M48
; DRILL file KiCad 10.0.5 date 2026-08-21T00:00:29
; FORMAT={-:-/ absolute / metric / decimal}
; #@! TF.CreationDate,2026-08-21T00:00:29+05:30
; #@! TF.GenerationSoftware,Kicad,Pcbnew,10.0.5
; #@! TF.FileFunction,Plated,1,4,PTH
FMAT,2
METRIC
; #@! TA.AperFunction,Plated,PTH,ViaDrill
T1C0.250
; #@! TA.AperFunction,Plated,PTH,ViaDrill
T2C0.300
; #@! TA.AperFunction,Plated,PTH,ViaDrill
T3C0.350
; #@! TA.AperFunction,Plated,PTH,ViaDrill
T4C0.400
; #@! TA.AperFunction,Plated,PTH,ComponentDrill
T5C0.650
; #@! TA.AperFunction,Plated,PTH,ComponentDrill
T6C1.000
%
G90
G05
T1
X156.575Y-112.4
X156.575Y-113.85
X157.2Y-119.275
X157.2Y-125.65
X157.85Y-112.75
X157.85Y-113.85
X158.475Y-119.275
X158.475Y-125.65
X159.125Y-112.6
X159.75Y-119.275
X160.75Y-121.0
X167.324Y-122.3
X169.15Y-121.15
X169.375Y-114.325
X169.375Y-118.225
X169.375Y-119.175
X169.625Y-120.7
X169.825Y-118.7
X169.825Y-119.65
X169.85Y-113.875
X170.1Y-121.15
X170.325Y-114.325
X170.575Y-120.7
X170.8Y-113.875
X171.05Y-121.15
X171.275Y-114.325
X171.525Y-120.7
X171.75Y-113.875
X172.0Y-121.15
X172.225Y-114.325
X172.475Y-120.7
X173.525Y-113.775
X173.55Y-120.65
X174.0Y-113.325
X174.025Y-121.1
X174.475Y-113.775
X174.5Y-120.65
X174.95Y-113.325
X174.975Y-121.1
X175.05Y-119.525
X175.175Y-115.318
X175.425Y-113.775
X175.45Y-120.65
X175.5Y-114.75
X175.9Y-113.325
X175.925Y-121.1
X176.134Y-115.494
X176.3Y-116.6
X176.35Y-114.75
X176.35Y-117.85
X176.375Y-113.775
X176.4Y-120.65
X176.425Y-118.775
X176.425Y-119.725
X176.75Y-122.925
X176.8Y-114.275
X176.8Y-115.225
X176.8Y-116.175
X176.85Y-113.325
X176.875Y-118.3
X176.875Y-119.25
X176.875Y-120.2
X176.875Y-121.15
X177.35Y-112.85
X177.35Y-121.65
X178.825Y-113.25
X178.91Y-111.89
X180.571Y-111.878
T2
X146.29Y-120.02
X147.04Y-108.25
X151.47Y-110.27
X151.47Y-112.23
X152.805Y-113.791
X155.3Y-111.575
X155.3Y-118.875
X155.45Y-105.89
X155.925Y-120.325
X158.45Y-120.325
X159.1Y-113.875
X160.75Y-126.8
X162.3Y-116.35
X163.6Y-120.4
X164.3Y-126.8
X165.45Y-116.525
X167.1Y-116.6
X167.2Y-120.4
X169.44Y-128.21
X170.0Y-116.05
X170.45Y-108.35
X171.575Y-115.9
X171.575Y-118.6
X172.26Y-132.12
X172.397Y-126.672
X172.65Y-108.35
X172.75Y-113.15
X172.95Y-117.25
X173.019Y-120.194
X174.325Y-115.875
X174.325Y-118.625
X174.75Y-126.25
X175.15Y-117.3
X175.44Y-106.27
X175.55Y-110.125
X181.265Y-108.175
X182.02Y-127.78
X182.15Y-114.075
X182.15Y-115.5
X182.15Y-117.2
X182.15Y-121.9
X182.45Y-124.8
X182.98Y-124.27
X184.09Y-106.841
X185.416Y-115.984
X185.7Y-111.85
X187.7Y-118.9
X187.7Y-124.275
X188.7Y-116.392
X188.7Y-124.275
X189.08Y-107.975
X189.7Y-118.9
X189.7Y-124.275
X193.46Y-115.88
X195.1Y-97.4
X198.14Y-110.0
T3
X133.46Y-113.93
X137.44Y-108.03
X137.86Y-119.96
X143.28Y-113.98
X182.0Y-133.635
X182.131Y-113.275
X200.78Y-116.05
X205.65Y-110.02
T4
X162.05Y-109.55
X164.0Y-114.725
X165.75Y-112.25
X167.4Y-111.7
X168.175Y-110.725
X169.475Y-123.65
X174.517Y-111.017
X175.875Y-123.775
X180.725Y-123.075
X186.7Y-110.91
X187.86Y-110.91
X188.162Y-114.942
X188.65Y-109.95
X188.95Y-114.25
X189.8Y-109.95
X190.15Y-114.25
X192.15Y-115.1
T5
X149.28Y-104.33
X149.5Y-117.44
X149.5Y-118.71
X149.5Y-119.98
X149.5Y-121.25
X149.5Y-122.52
X149.5Y-123.79
X149.5Y-125.06
X149.5Y-126.33
X149.5Y-127.6
X149.5Y-128.87
X153.48Y-104.46
X157.725Y-104.6
X158.995Y-104.6
X161.64Y-104.72
X162.91Y-104.72
X165.6Y-132.47
X166.26Y-104.02
X166.87Y-132.47
X169.97Y-104.11
X173.28Y-104.14
X173.98Y-131.84
X175.25Y-131.84
X176.43Y-104.02
X176.52Y-131.84
X177.79Y-131.84
X179.06Y-131.84
X179.24Y-104.06
X180.51Y-104.06
X195.01Y-108.69
X195.01Y-109.96
X196.07Y-113.14
X198.92Y-120.3
X198.92Y-121.57
X198.92Y-122.84
X198.92Y-124.11
X198.92Y-125.38
X198.92Y-126.65
X198.92Y-127.92
X198.92Y-129.19
X198.92Y-130.46
X198.92Y-131.73
T6
X154.04Y-130.45
X156.58Y-130.45
X159.12Y-130.45
X161.66Y-130.45
X164.2Y-130.45
X192.7Y-82.19
X192.7Y-84.73
X192.7Y-87.27
X192.7Y-89.81
X192.7Y-92.35
X192.7Y-94.89
X192.7Y-97.43
X192.7Y-99.97
M30
