%TF.GenerationSoftware,KiCad,Pcbnew,10.0.5*%
%TF.CreationDate,2026-08-21T00:00:12+05:30*%
%TF.ProjectId,microboy,6d696372-6f62-46f7-992e-6b696361645f,rev?*%
%TF.SameCoordinates,Original*%
%TF.FileFunction,Paste,Top*%
%TF.FilePolarity,Positive*%
%FSLAX46Y46*%
G04 Gerber Fmt 4.6, Leading zero omitted, Abs format (unit mm)*
G04 Created by KiCad (PCBNEW 10.0.5) date 2026-08-21 00:00:12*
%MOMM*%
%LPD*%
G01*
G04 APERTURE LIST*
G04 Aperture macros list*
%AMRoundRect*
0 Rectangle with rounded corners*
0 $1 Rounding radius*
0 $2 $3 $4 $5 $6 $7 $8 $9 X,Y pos of 4 corners*
0 Add a 4 corners polygon primitive as box body*
4,1,4,$2,$3,$4,$5,$6,$7,$8,$9,$2,$3,0*
0 Add four circle primitives for the rounded corners*
1,1,$1+$1,$2,$3*
1,1,$1+$1,$4,$5*
1,1,$1+$1,$6,$7*
1,1,$1+$1,$8,$9*
0 Add four rect primitives between the rounded corners*
20,1,$1+$1,$2,$3,$4,$5,0*
20,1,$1+$1,$4,$5,$6,$7,0*
20,1,$1+$1,$6,$7,$8,$9,0*
20,1,$1+$1,$8,$9,$2,$3,0*%
G04 Aperture macros list end*
%ADD10RoundRect,0.225000X0.250000X-0.225000X0.250000X0.225000X-0.250000X0.225000X-0.250000X-0.225000X0*%
%ADD11RoundRect,0.112500X0.112500X-0.187500X0.112500X0.187500X-0.112500X0.187500X-0.112500X-0.187500X0*%
%ADD12RoundRect,0.200000X0.275000X-0.200000X0.275000X0.200000X-0.275000X0.200000X-0.275000X-0.200000X0*%
%ADD13R,1.700000X0.900000*%
%ADD14R,2.300000X0.850000*%
%ADD15RoundRect,0.150000X-0.512500X-0.150000X0.512500X-0.150000X0.512500X0.150000X-0.512500X0.150000X0*%
%ADD16RoundRect,0.225000X0.225000X0.250000X-0.225000X0.250000X-0.225000X-0.250000X0.225000X-0.250000X0*%
%ADD17RoundRect,0.218750X-0.218750X-0.256250X0.218750X-0.256250X0.218750X0.256250X-0.218750X0.256250X0*%
%ADD18RoundRect,0.200000X-0.200000X-0.275000X0.200000X-0.275000X0.200000X0.275000X-0.200000X0.275000X0*%
%ADD19RoundRect,0.225000X-0.250000X0.225000X-0.250000X-0.225000X0.250000X-0.225000X0.250000X0.225000X0*%
%ADD20RoundRect,0.225000X-0.225000X-0.250000X0.225000X-0.250000X0.225000X0.250000X-0.225000X0.250000X0*%
%ADD21RoundRect,0.200000X0.200000X0.275000X-0.200000X0.275000X-0.200000X-0.275000X0.200000X-0.275000X0*%
%ADD22R,2.800000X2.800000*%
%ADD23R,0.200000X0.600000*%
%ADD24R,0.600000X0.200000*%
%ADD25RoundRect,0.250000X0.555000X-0.435000X0.555000X0.435000X-0.555000X0.435000X-0.555000X-0.435000X0*%
%ADD26RoundRect,0.125000X0.125000X-0.262500X0.125000X0.262500X-0.125000X0.262500X-0.125000X-0.262500X0*%
%ADD27R,1.000000X1.150000*%
%ADD28RoundRect,0.150000X-0.587500X-0.150000X0.587500X-0.150000X0.587500X0.150000X-0.587500X0.150000X0*%
G04 APERTURE END LIST*
D10*
%TO.C,C2*%
X191125000Y-114925000D03*
X191125000Y-113375000D03*
%TD*%
%TO.C,C13*%
X169350000Y-110725000D03*
X169350000Y-109175000D03*
%TD*%
D11*
%TO.C,D1*%
X191062500Y-111850000D03*
X191062500Y-109750000D03*
%TD*%
D12*
%TO.C,R9*%
X153600000Y-124850000D03*
X153600000Y-123200000D03*
%TD*%
D13*
%TO.C,SW1*%
X165600000Y-126200000D03*
X165600000Y-122800000D03*
%TD*%
D14*
%TO.C,L1*%
X162400000Y-114225000D03*
X162400000Y-112275000D03*
%TD*%
D15*
%TO.C,U3*%
X187025000Y-113375000D03*
X187025000Y-114325000D03*
X187025000Y-115275000D03*
X189300000Y-115275000D03*
X189300000Y-113375000D03*
%TD*%
D16*
%TO.C,C1*%
X184775000Y-113350000D03*
X183225000Y-113350000D03*
%TD*%
D17*
%TO.C,D2*%
X179587500Y-109450000D03*
X181162500Y-109450000D03*
%TD*%
D10*
%TO.C,C10*%
X176750000Y-110725000D03*
X176750000Y-109175000D03*
%TD*%
D18*
%TO.C,R3*%
X183175000Y-114850000D03*
X184825000Y-114850000D03*
%TD*%
D19*
%TO.C,C17*%
X172750000Y-123775000D03*
X172750000Y-125325000D03*
%TD*%
D20*
%TO.C,C5*%
X179600000Y-115500000D03*
X181150000Y-115500000D03*
%TD*%
D18*
%TO.C,R1*%
X189725000Y-108425000D03*
X191375000Y-108425000D03*
%TD*%
D15*
%TO.C,U2*%
X182862500Y-108425000D03*
X182862500Y-109375000D03*
X182862500Y-110325000D03*
X185137500Y-110325000D03*
X185137500Y-109375000D03*
X185137500Y-108425000D03*
%TD*%
D21*
%TO.C,R8*%
X181200000Y-112500000D03*
X179550000Y-112500000D03*
%TD*%
D20*
%TO.C,C12*%
X165100000Y-110700000D03*
X166650000Y-110700000D03*
%TD*%
D12*
%TO.C,R10*%
X153600000Y-116925000D03*
X153600000Y-115275000D03*
%TD*%
D20*
%TO.C,C18*%
X179600000Y-114000000D03*
X181150000Y-114000000D03*
%TD*%
D21*
%TO.C,R2*%
X181200000Y-111000000D03*
X179550000Y-111000000D03*
%TD*%
D16*
%TO.C,C3*%
X184775000Y-111850000D03*
X183225000Y-111850000D03*
%TD*%
D18*
%TO.C,R11*%
X162050000Y-110700000D03*
X163700000Y-110700000D03*
%TD*%
D19*
%TO.C,C6*%
X170750000Y-123775000D03*
X170750000Y-125325000D03*
%TD*%
D16*
%TO.C,C8*%
X166225000Y-117100000D03*
X164675000Y-117100000D03*
%TD*%
D22*
%TO.C,U5*%
X172950000Y-117250000D03*
D23*
X169150000Y-122150000D03*
X169550000Y-122150000D03*
X169950000Y-122150000D03*
X170350000Y-122150000D03*
X170750000Y-122150000D03*
X171150000Y-122150000D03*
X171550000Y-122150000D03*
X171950000Y-122150000D03*
X172350000Y-122150000D03*
X172750000Y-122150000D03*
X173150000Y-122150000D03*
X173550000Y-122150000D03*
X173950000Y-122150000D03*
X174350000Y-122150000D03*
X174750000Y-122150000D03*
X175150000Y-122150000D03*
X175550000Y-122150000D03*
X175950000Y-122150000D03*
X176350000Y-122150000D03*
X176750000Y-122150000D03*
D24*
X177850000Y-121050000D03*
X177850000Y-120650000D03*
X177850000Y-120250000D03*
X177850000Y-119850000D03*
X177850000Y-119450000D03*
X177850000Y-119050000D03*
X177850000Y-118650000D03*
X177850000Y-118250000D03*
X177850000Y-117850000D03*
X177850000Y-117450000D03*
X177850000Y-117050000D03*
X177850000Y-116650000D03*
X177850000Y-116250000D03*
X177850000Y-115850000D03*
X177850000Y-115450000D03*
X177850000Y-115050000D03*
X177850000Y-114650000D03*
X177850000Y-114250000D03*
X177850000Y-113850000D03*
X177850000Y-113450000D03*
D23*
X176750000Y-112350000D03*
X176350000Y-112350000D03*
X175950000Y-112350000D03*
X175550000Y-112350000D03*
X175150000Y-112350000D03*
X174750000Y-112350000D03*
X174350000Y-112350000D03*
X173950000Y-112350000D03*
X173550000Y-112350000D03*
X173150000Y-112350000D03*
X172750000Y-112350000D03*
X172350000Y-112350000D03*
X171950000Y-112350000D03*
X171550000Y-112350000D03*
X171150000Y-112350000D03*
X170750000Y-112350000D03*
X170350000Y-112350000D03*
X169950000Y-112350000D03*
X169550000Y-112350000D03*
X169150000Y-112350000D03*
D24*
X168050000Y-113450000D03*
X168050000Y-113850000D03*
X168050000Y-114250000D03*
X168050000Y-114650000D03*
X168050000Y-115050000D03*
X168050000Y-115450000D03*
X168050000Y-115850000D03*
X168050000Y-116250000D03*
X168050000Y-116650000D03*
X168050000Y-117050000D03*
X168050000Y-117450000D03*
X168050000Y-117850000D03*
X168050000Y-118250000D03*
X168050000Y-118650000D03*
X168050000Y-119050000D03*
X168050000Y-119450000D03*
X168050000Y-119850000D03*
X168050000Y-120250000D03*
X168050000Y-120650000D03*
X168050000Y-121050000D03*
%TD*%
D10*
%TO.C,C19*%
X172200000Y-110725000D03*
X172200000Y-109175000D03*
%TD*%
D25*
%TO.C,U1*%
X156200000Y-123325000D03*
X158200000Y-123325000D03*
X156200000Y-121625000D03*
X158200000Y-121625000D03*
D26*
X155295000Y-125137500D03*
X156565000Y-125137500D03*
X157835000Y-125137500D03*
X159105000Y-125137500D03*
X159105000Y-119812500D03*
X157835000Y-119812500D03*
X156565000Y-119812500D03*
X155295000Y-119812500D03*
%TD*%
D21*
%TO.C,R7*%
X163125000Y-117100000D03*
X161475000Y-117100000D03*
%TD*%
D16*
%TO.C,C15*%
X166225000Y-120400000D03*
X164675000Y-120400000D03*
%TD*%
D21*
%TO.C,R5*%
X188400000Y-108425000D03*
X186750000Y-108425000D03*
%TD*%
D10*
%TO.C,C14*%
X166500000Y-114725000D03*
X166500000Y-113175000D03*
%TD*%
D21*
%TO.C,R6*%
X163125000Y-115600000D03*
X161475000Y-115600000D03*
%TD*%
D27*
%TO.C,Y1*%
X179675000Y-117100000D03*
X179675000Y-118850000D03*
X181075000Y-118850000D03*
X181075000Y-117100000D03*
%TD*%
D19*
%TO.C,C7*%
X174750000Y-123775000D03*
X174750000Y-125325000D03*
%TD*%
D28*
%TO.C,Q1*%
X187225000Y-109925000D03*
X187225000Y-111825000D03*
X189100000Y-110875000D03*
%TD*%
D13*
%TO.C,SW2*%
X162050000Y-122800000D03*
X162050000Y-126200000D03*
%TD*%
D10*
%TO.C,C16*%
X165000000Y-114725000D03*
X165000000Y-113175000D03*
%TD*%
D20*
%TO.C,C9*%
X179600000Y-121950000D03*
X181150000Y-121950000D03*
%TD*%
D16*
%TO.C,C4*%
X181150000Y-120450000D03*
X179600000Y-120450000D03*
%TD*%
D10*
%TO.C,C11*%
X173700000Y-110725000D03*
X173700000Y-109175000D03*
%TD*%
D12*
%TO.C,R4*%
X153600000Y-121750000D03*
X153600000Y-120100000D03*
%TD*%
D13*
%TO.C,SW3*%
X139300000Y-108000000D03*
X142700000Y-108000000D03*
%TD*%
%TO.C,SW4*%
X134800000Y-114000000D03*
X138200000Y-114000000D03*
%TD*%
%TO.C,SW5*%
X144800000Y-114000000D03*
X148200000Y-114000000D03*
%TD*%
%TO.C,SW6*%
X139300000Y-120000000D03*
X142700000Y-120000000D03*
%TD*%
%TO.C,SW7*%
X198700000Y-116000000D03*
X195300000Y-116000000D03*
%TD*%
%TO.C,SW8*%
X203700000Y-110000000D03*
X200300000Y-110000000D03*
%TD*%
%TO.C,SW9*%
X169470000Y-133020000D03*
X169470000Y-129620000D03*
%TD*%
%TO.C,SW10*%
X182000000Y-132700000D03*
X182000000Y-129300000D03*
%TD*%
M02*
