%TF.GenerationSoftware,KiCad,Pcbnew,10.0.5*%
%TF.CreationDate,2026-08-21T00:00:12+05:30*%
%TF.ProjectId,microboy,6d696372-6f62-46f7-992e-6b696361645f,rev?*%
%TF.SameCoordinates,Original*%
%TF.FileFunction,Legend,Top*%
%TF.FilePolarity,Positive*%
%FSLAX46Y46*%
G04 Gerber Fmt 4.6, Leading zero omitted, Abs format (unit mm)*
G04 Created by KiCad (PCBNEW 10.0.5) date 2026-08-21 00:00:12*
%MOMM*%
%LPD*%
G01*
G04 APERTURE LIST*
%ADD10C,0.150000*%
%ADD11C,0.100000*%
%ADD12C,0.125000*%
%ADD13C,0.120000*%
G04 APERTURE END LIST*
D10*
X152900000Y-80910000D02*
X191400000Y-80910000D01*
X191400000Y-102910000D01*
X152900000Y-102910000D01*
X152900000Y-80910000D01*
D11*
X161252931Y-121637847D02*
X161367217Y-121675942D01*
X161367217Y-121675942D02*
X161405312Y-121714038D01*
X161405312Y-121714038D02*
X161443408Y-121790228D01*
X161443408Y-121790228D02*
X161443408Y-121904514D01*
X161443408Y-121904514D02*
X161405312Y-121980704D01*
X161405312Y-121980704D02*
X161367217Y-122018800D01*
X161367217Y-122018800D02*
X161291027Y-122056895D01*
X161291027Y-122056895D02*
X160986265Y-122056895D01*
X160986265Y-122056895D02*
X160986265Y-121256895D01*
X160986265Y-121256895D02*
X161252931Y-121256895D01*
X161252931Y-121256895D02*
X161329122Y-121294990D01*
X161329122Y-121294990D02*
X161367217Y-121333085D01*
X161367217Y-121333085D02*
X161405312Y-121409276D01*
X161405312Y-121409276D02*
X161405312Y-121485466D01*
X161405312Y-121485466D02*
X161367217Y-121561657D01*
X161367217Y-121561657D02*
X161329122Y-121599752D01*
X161329122Y-121599752D02*
X161252931Y-121637847D01*
X161252931Y-121637847D02*
X160986265Y-121637847D01*
X161938646Y-121256895D02*
X162091027Y-121256895D01*
X162091027Y-121256895D02*
X162167217Y-121294990D01*
X162167217Y-121294990D02*
X162243408Y-121371180D01*
X162243408Y-121371180D02*
X162281503Y-121523561D01*
X162281503Y-121523561D02*
X162281503Y-121790228D01*
X162281503Y-121790228D02*
X162243408Y-121942609D01*
X162243408Y-121942609D02*
X162167217Y-122018800D01*
X162167217Y-122018800D02*
X162091027Y-122056895D01*
X162091027Y-122056895D02*
X161938646Y-122056895D01*
X161938646Y-122056895D02*
X161862455Y-122018800D01*
X161862455Y-122018800D02*
X161786265Y-121942609D01*
X161786265Y-121942609D02*
X161748169Y-121790228D01*
X161748169Y-121790228D02*
X161748169Y-121523561D01*
X161748169Y-121523561D02*
X161786265Y-121371180D01*
X161786265Y-121371180D02*
X161862455Y-121294990D01*
X161862455Y-121294990D02*
X161938646Y-121256895D01*
X162776741Y-121256895D02*
X162929122Y-121256895D01*
X162929122Y-121256895D02*
X163005312Y-121294990D01*
X163005312Y-121294990D02*
X163081503Y-121371180D01*
X163081503Y-121371180D02*
X163119598Y-121523561D01*
X163119598Y-121523561D02*
X163119598Y-121790228D01*
X163119598Y-121790228D02*
X163081503Y-121942609D01*
X163081503Y-121942609D02*
X163005312Y-122018800D01*
X163005312Y-122018800D02*
X162929122Y-122056895D01*
X162929122Y-122056895D02*
X162776741Y-122056895D01*
X162776741Y-122056895D02*
X162700550Y-122018800D01*
X162700550Y-122018800D02*
X162624360Y-121942609D01*
X162624360Y-121942609D02*
X162586264Y-121790228D01*
X162586264Y-121790228D02*
X162586264Y-121523561D01*
X162586264Y-121523561D02*
X162624360Y-121371180D01*
X162624360Y-121371180D02*
X162700550Y-121294990D01*
X162700550Y-121294990D02*
X162776741Y-121256895D01*
X163348169Y-121256895D02*
X163805312Y-121256895D01*
X163576740Y-122056895D02*
X163576740Y-121256895D01*
X164703408Y-122076895D02*
X164436741Y-121695942D01*
X164246265Y-122076895D02*
X164246265Y-121276895D01*
X164246265Y-121276895D02*
X164551027Y-121276895D01*
X164551027Y-121276895D02*
X164627217Y-121314990D01*
X164627217Y-121314990D02*
X164665312Y-121353085D01*
X164665312Y-121353085D02*
X164703408Y-121429276D01*
X164703408Y-121429276D02*
X164703408Y-121543561D01*
X164703408Y-121543561D02*
X164665312Y-121619752D01*
X164665312Y-121619752D02*
X164627217Y-121657847D01*
X164627217Y-121657847D02*
X164551027Y-121695942D01*
X164551027Y-121695942D02*
X164246265Y-121695942D01*
X165046265Y-121657847D02*
X165312931Y-121657847D01*
X165427217Y-122076895D02*
X165046265Y-122076895D01*
X165046265Y-122076895D02*
X165046265Y-121276895D01*
X165046265Y-121276895D02*
X165427217Y-121276895D01*
X165731979Y-122038800D02*
X165846265Y-122076895D01*
X165846265Y-122076895D02*
X166036741Y-122076895D01*
X166036741Y-122076895D02*
X166112932Y-122038800D01*
X166112932Y-122038800D02*
X166151027Y-122000704D01*
X166151027Y-122000704D02*
X166189122Y-121924514D01*
X166189122Y-121924514D02*
X166189122Y-121848323D01*
X166189122Y-121848323D02*
X166151027Y-121772133D01*
X166151027Y-121772133D02*
X166112932Y-121734038D01*
X166112932Y-121734038D02*
X166036741Y-121695942D01*
X166036741Y-121695942D02*
X165884360Y-121657847D01*
X165884360Y-121657847D02*
X165808170Y-121619752D01*
X165808170Y-121619752D02*
X165770075Y-121581657D01*
X165770075Y-121581657D02*
X165731979Y-121505466D01*
X165731979Y-121505466D02*
X165731979Y-121429276D01*
X165731979Y-121429276D02*
X165770075Y-121353085D01*
X165770075Y-121353085D02*
X165808170Y-121314990D01*
X165808170Y-121314990D02*
X165884360Y-121276895D01*
X165884360Y-121276895D02*
X166074837Y-121276895D01*
X166074837Y-121276895D02*
X166189122Y-121314990D01*
X166531980Y-121657847D02*
X166798646Y-121657847D01*
X166912932Y-122076895D02*
X166531980Y-122076895D01*
X166531980Y-122076895D02*
X166531980Y-121276895D01*
X166531980Y-121276895D02*
X166912932Y-121276895D01*
X167141504Y-121276895D02*
X167598647Y-121276895D01*
X167370075Y-122076895D02*
X167370075Y-121276895D01*
D10*
X151020588Y-129089819D02*
X150449160Y-129089819D01*
X150734874Y-129089819D02*
X150734874Y-128089819D01*
X150734874Y-128089819D02*
X150639636Y-128232676D01*
X150639636Y-128232676D02*
X150544398Y-128327914D01*
X150544398Y-128327914D02*
X150449160Y-128375533D01*
X151639636Y-128089819D02*
X151734874Y-128089819D01*
X151734874Y-128089819D02*
X151830112Y-128137438D01*
X151830112Y-128137438D02*
X151877731Y-128185057D01*
X151877731Y-128185057D02*
X151925350Y-128280295D01*
X151925350Y-128280295D02*
X151972969Y-128470771D01*
X151972969Y-128470771D02*
X151972969Y-128708866D01*
X151972969Y-128708866D02*
X151925350Y-128899342D01*
X151925350Y-128899342D02*
X151877731Y-128994580D01*
X151877731Y-128994580D02*
X151830112Y-129042200D01*
X151830112Y-129042200D02*
X151734874Y-129089819D01*
X151734874Y-129089819D02*
X151639636Y-129089819D01*
X151639636Y-129089819D02*
X151544398Y-129042200D01*
X151544398Y-129042200D02*
X151496779Y-128994580D01*
X151496779Y-128994580D02*
X151449160Y-128899342D01*
X151449160Y-128899342D02*
X151401541Y-128708866D01*
X151401541Y-128708866D02*
X151401541Y-128470771D01*
X151401541Y-128470771D02*
X151449160Y-128280295D01*
X151449160Y-128280295D02*
X151496779Y-128185057D01*
X151496779Y-128185057D02*
X151544398Y-128137438D01*
X151544398Y-128137438D02*
X151639636Y-128089819D01*
X151097255Y-105499819D02*
X151192493Y-105499819D01*
X151192493Y-105499819D02*
X151287731Y-105547438D01*
X151287731Y-105547438D02*
X151335350Y-105595057D01*
X151335350Y-105595057D02*
X151382969Y-105690295D01*
X151382969Y-105690295D02*
X151430588Y-105880771D01*
X151430588Y-105880771D02*
X151430588Y-106118866D01*
X151430588Y-106118866D02*
X151382969Y-106309342D01*
X151382969Y-106309342D02*
X151335350Y-106404580D01*
X151335350Y-106404580D02*
X151287731Y-106452200D01*
X151287731Y-106452200D02*
X151192493Y-106499819D01*
X151192493Y-106499819D02*
X151097255Y-106499819D01*
X151097255Y-106499819D02*
X151002017Y-106452200D01*
X151002017Y-106452200D02*
X150954398Y-106404580D01*
X150954398Y-106404580D02*
X150906779Y-106309342D01*
X150906779Y-106309342D02*
X150859160Y-106118866D01*
X150859160Y-106118866D02*
X150859160Y-105880771D01*
X150859160Y-105880771D02*
X150906779Y-105690295D01*
X150906779Y-105690295D02*
X150954398Y-105595057D01*
X150954398Y-105595057D02*
X151002017Y-105547438D01*
X151002017Y-105547438D02*
X151097255Y-105499819D01*
X155878207Y-108304580D02*
X155830588Y-108352200D01*
X155830588Y-108352200D02*
X155687731Y-108399819D01*
X155687731Y-108399819D02*
X155592493Y-108399819D01*
X155592493Y-108399819D02*
X155449636Y-108352200D01*
X155449636Y-108352200D02*
X155354398Y-108256961D01*
X155354398Y-108256961D02*
X155306779Y-108161723D01*
X155306779Y-108161723D02*
X155259160Y-107971247D01*
X155259160Y-107971247D02*
X155259160Y-107828390D01*
X155259160Y-107828390D02*
X155306779Y-107637914D01*
X155306779Y-107637914D02*
X155354398Y-107542676D01*
X155354398Y-107542676D02*
X155449636Y-107447438D01*
X155449636Y-107447438D02*
X155592493Y-107399819D01*
X155592493Y-107399819D02*
X155687731Y-107399819D01*
X155687731Y-107399819D02*
X155830588Y-107447438D01*
X155830588Y-107447438D02*
X155878207Y-107495057D01*
X156259160Y-108352200D02*
X156402017Y-108399819D01*
X156402017Y-108399819D02*
X156640112Y-108399819D01*
X156640112Y-108399819D02*
X156735350Y-108352200D01*
X156735350Y-108352200D02*
X156782969Y-108304580D01*
X156782969Y-108304580D02*
X156830588Y-108209342D01*
X156830588Y-108209342D02*
X156830588Y-108114104D01*
X156830588Y-108114104D02*
X156782969Y-108018866D01*
X156782969Y-108018866D02*
X156735350Y-107971247D01*
X156735350Y-107971247D02*
X156640112Y-107923628D01*
X156640112Y-107923628D02*
X156449636Y-107876009D01*
X156449636Y-107876009D02*
X156354398Y-107828390D01*
X156354398Y-107828390D02*
X156306779Y-107780771D01*
X156306779Y-107780771D02*
X156259160Y-107685533D01*
X156259160Y-107685533D02*
X156259160Y-107590295D01*
X156259160Y-107590295D02*
X156306779Y-107495057D01*
X156306779Y-107495057D02*
X156354398Y-107447438D01*
X156354398Y-107447438D02*
X156449636Y-107399819D01*
X156449636Y-107399819D02*
X156687731Y-107399819D01*
X156687731Y-107399819D02*
X156830588Y-107447438D01*
X157259160Y-108304580D02*
X157306779Y-108352200D01*
X157306779Y-108352200D02*
X157259160Y-108399819D01*
X157259160Y-108399819D02*
X157211541Y-108352200D01*
X157211541Y-108352200D02*
X157259160Y-108304580D01*
X157259160Y-108304580D02*
X157259160Y-108399819D01*
X157259160Y-107780771D02*
X157306779Y-107828390D01*
X157306779Y-107828390D02*
X157259160Y-107876009D01*
X157259160Y-107876009D02*
X157211541Y-107828390D01*
X157211541Y-107828390D02*
X157259160Y-107780771D01*
X157259160Y-107780771D02*
X157259160Y-107876009D01*
X157735350Y-108399819D02*
X157735350Y-107399819D01*
X158402016Y-107399819D02*
X158592492Y-107399819D01*
X158592492Y-107399819D02*
X158687730Y-107447438D01*
X158687730Y-107447438D02*
X158782968Y-107542676D01*
X158782968Y-107542676D02*
X158830587Y-107733152D01*
X158830587Y-107733152D02*
X158830587Y-108066485D01*
X158830587Y-108066485D02*
X158782968Y-108256961D01*
X158782968Y-108256961D02*
X158687730Y-108352200D01*
X158687730Y-108352200D02*
X158592492Y-108399819D01*
X158592492Y-108399819D02*
X158402016Y-108399819D01*
X158402016Y-108399819D02*
X158306778Y-108352200D01*
X158306778Y-108352200D02*
X158211540Y-108256961D01*
X158211540Y-108256961D02*
X158163921Y-108066485D01*
X158163921Y-108066485D02*
X158163921Y-107733152D01*
X158163921Y-107733152D02*
X158211540Y-107542676D01*
X158211540Y-107542676D02*
X158306778Y-107447438D01*
X158306778Y-107447438D02*
X158402016Y-107399819D01*
X159402016Y-107828390D02*
X159306778Y-107780771D01*
X159306778Y-107780771D02*
X159259159Y-107733152D01*
X159259159Y-107733152D02*
X159211540Y-107637914D01*
X159211540Y-107637914D02*
X159211540Y-107590295D01*
X159211540Y-107590295D02*
X159259159Y-107495057D01*
X159259159Y-107495057D02*
X159306778Y-107447438D01*
X159306778Y-107447438D02*
X159402016Y-107399819D01*
X159402016Y-107399819D02*
X159592492Y-107399819D01*
X159592492Y-107399819D02*
X159687730Y-107447438D01*
X159687730Y-107447438D02*
X159735349Y-107495057D01*
X159735349Y-107495057D02*
X159782968Y-107590295D01*
X159782968Y-107590295D02*
X159782968Y-107637914D01*
X159782968Y-107637914D02*
X159735349Y-107733152D01*
X159735349Y-107733152D02*
X159687730Y-107780771D01*
X159687730Y-107780771D02*
X159592492Y-107828390D01*
X159592492Y-107828390D02*
X159402016Y-107828390D01*
X159402016Y-107828390D02*
X159306778Y-107876009D01*
X159306778Y-107876009D02*
X159259159Y-107923628D01*
X159259159Y-107923628D02*
X159211540Y-108018866D01*
X159211540Y-108018866D02*
X159211540Y-108209342D01*
X159211540Y-108209342D02*
X159259159Y-108304580D01*
X159259159Y-108304580D02*
X159306778Y-108352200D01*
X159306778Y-108352200D02*
X159402016Y-108399819D01*
X159402016Y-108399819D02*
X159592492Y-108399819D01*
X159592492Y-108399819D02*
X159687730Y-108352200D01*
X159687730Y-108352200D02*
X159735349Y-108304580D01*
X159735349Y-108304580D02*
X159782968Y-108209342D01*
X159782968Y-108209342D02*
X159782968Y-108018866D01*
X159782968Y-108018866D02*
X159735349Y-107923628D01*
X159735349Y-107923628D02*
X159687730Y-107876009D01*
X159687730Y-107876009D02*
X159592492Y-107828390D01*
X177033922Y-125909819D02*
X177605350Y-125909819D01*
X177319636Y-126909819D02*
X177319636Y-125909819D01*
X177843446Y-125909819D02*
X178510112Y-126909819D01*
X178510112Y-125909819D02*
X177843446Y-126909819D01*
X178891065Y-126814580D02*
X178938684Y-126862200D01*
X178938684Y-126862200D02*
X178891065Y-126909819D01*
X178891065Y-126909819D02*
X178843446Y-126862200D01*
X178843446Y-126862200D02*
X178891065Y-126814580D01*
X178891065Y-126814580D02*
X178891065Y-126909819D01*
X178891065Y-126290771D02*
X178938684Y-126338390D01*
X178938684Y-126338390D02*
X178891065Y-126386009D01*
X178891065Y-126386009D02*
X178843446Y-126338390D01*
X178843446Y-126338390D02*
X178891065Y-126290771D01*
X178891065Y-126290771D02*
X178891065Y-126386009D01*
X179367255Y-126909819D02*
X179367255Y-125909819D01*
X180033921Y-125909819D02*
X180224397Y-125909819D01*
X180224397Y-125909819D02*
X180319635Y-125957438D01*
X180319635Y-125957438D02*
X180414873Y-126052676D01*
X180414873Y-126052676D02*
X180462492Y-126243152D01*
X180462492Y-126243152D02*
X180462492Y-126576485D01*
X180462492Y-126576485D02*
X180414873Y-126766961D01*
X180414873Y-126766961D02*
X180319635Y-126862200D01*
X180319635Y-126862200D02*
X180224397Y-126909819D01*
X180224397Y-126909819D02*
X180033921Y-126909819D01*
X180033921Y-126909819D02*
X179938683Y-126862200D01*
X179938683Y-126862200D02*
X179843445Y-126766961D01*
X179843445Y-126766961D02*
X179795826Y-126576485D01*
X179795826Y-126576485D02*
X179795826Y-126243152D01*
X179795826Y-126243152D02*
X179843445Y-126052676D01*
X179843445Y-126052676D02*
X179938683Y-125957438D01*
X179938683Y-125957438D02*
X180033921Y-125909819D01*
X181081540Y-125909819D02*
X181176778Y-125909819D01*
X181176778Y-125909819D02*
X181272016Y-125957438D01*
X181272016Y-125957438D02*
X181319635Y-126005057D01*
X181319635Y-126005057D02*
X181367254Y-126100295D01*
X181367254Y-126100295D02*
X181414873Y-126290771D01*
X181414873Y-126290771D02*
X181414873Y-126528866D01*
X181414873Y-126528866D02*
X181367254Y-126719342D01*
X181367254Y-126719342D02*
X181319635Y-126814580D01*
X181319635Y-126814580D02*
X181272016Y-126862200D01*
X181272016Y-126862200D02*
X181176778Y-126909819D01*
X181176778Y-126909819D02*
X181081540Y-126909819D01*
X181081540Y-126909819D02*
X180986302Y-126862200D01*
X180986302Y-126862200D02*
X180938683Y-126814580D01*
X180938683Y-126814580D02*
X180891064Y-126719342D01*
X180891064Y-126719342D02*
X180843445Y-126528866D01*
X180843445Y-126528866D02*
X180843445Y-126290771D01*
X180843445Y-126290771D02*
X180891064Y-126100295D01*
X180891064Y-126100295D02*
X180938683Y-126005057D01*
X180938683Y-126005057D02*
X180986302Y-125957438D01*
X180986302Y-125957438D02*
X181081540Y-125909819D01*
X183176778Y-126909819D02*
X182843445Y-126433628D01*
X182605350Y-126909819D02*
X182605350Y-125909819D01*
X182605350Y-125909819D02*
X182986302Y-125909819D01*
X182986302Y-125909819D02*
X183081540Y-125957438D01*
X183081540Y-125957438D02*
X183129159Y-126005057D01*
X183129159Y-126005057D02*
X183176778Y-126100295D01*
X183176778Y-126100295D02*
X183176778Y-126243152D01*
X183176778Y-126243152D02*
X183129159Y-126338390D01*
X183129159Y-126338390D02*
X183081540Y-126386009D01*
X183081540Y-126386009D02*
X182986302Y-126433628D01*
X182986302Y-126433628D02*
X182605350Y-126433628D01*
X183510112Y-125909819D02*
X184176778Y-126909819D01*
X184176778Y-125909819D02*
X183510112Y-126909819D01*
X184557731Y-126814580D02*
X184605350Y-126862200D01*
X184605350Y-126862200D02*
X184557731Y-126909819D01*
X184557731Y-126909819D02*
X184510112Y-126862200D01*
X184510112Y-126862200D02*
X184557731Y-126814580D01*
X184557731Y-126814580D02*
X184557731Y-126909819D01*
X184557731Y-126290771D02*
X184605350Y-126338390D01*
X184605350Y-126338390D02*
X184557731Y-126386009D01*
X184557731Y-126386009D02*
X184510112Y-126338390D01*
X184510112Y-126338390D02*
X184557731Y-126290771D01*
X184557731Y-126290771D02*
X184557731Y-126386009D01*
X185033921Y-126909819D02*
X185033921Y-125909819D01*
X185700587Y-125909819D02*
X185891063Y-125909819D01*
X185891063Y-125909819D02*
X185986301Y-125957438D01*
X185986301Y-125957438D02*
X186081539Y-126052676D01*
X186081539Y-126052676D02*
X186129158Y-126243152D01*
X186129158Y-126243152D02*
X186129158Y-126576485D01*
X186129158Y-126576485D02*
X186081539Y-126766961D01*
X186081539Y-126766961D02*
X185986301Y-126862200D01*
X185986301Y-126862200D02*
X185891063Y-126909819D01*
X185891063Y-126909819D02*
X185700587Y-126909819D01*
X185700587Y-126909819D02*
X185605349Y-126862200D01*
X185605349Y-126862200D02*
X185510111Y-126766961D01*
X185510111Y-126766961D02*
X185462492Y-126576485D01*
X185462492Y-126576485D02*
X185462492Y-126243152D01*
X185462492Y-126243152D02*
X185510111Y-126052676D01*
X185510111Y-126052676D02*
X185605349Y-125957438D01*
X185605349Y-125957438D02*
X185700587Y-125909819D01*
X187081539Y-126909819D02*
X186510111Y-126909819D01*
X186795825Y-126909819D02*
X186795825Y-125909819D01*
X186795825Y-125909819D02*
X186700587Y-126052676D01*
X186700587Y-126052676D02*
X186605349Y-126147914D01*
X186605349Y-126147914D02*
X186510111Y-126195533D01*
X192971541Y-128099819D02*
X193590588Y-128099819D01*
X193590588Y-128099819D02*
X193257255Y-128480771D01*
X193257255Y-128480771D02*
X193400112Y-128480771D01*
X193400112Y-128480771D02*
X193495350Y-128528390D01*
X193495350Y-128528390D02*
X193542969Y-128576009D01*
X193542969Y-128576009D02*
X193590588Y-128671247D01*
X193590588Y-128671247D02*
X193590588Y-128909342D01*
X193590588Y-128909342D02*
X193542969Y-129004580D01*
X193542969Y-129004580D02*
X193495350Y-129052200D01*
X193495350Y-129052200D02*
X193400112Y-129099819D01*
X193400112Y-129099819D02*
X193114398Y-129099819D01*
X193114398Y-129099819D02*
X193019160Y-129052200D01*
X193019160Y-129052200D02*
X192971541Y-129004580D01*
X194209636Y-128099819D02*
X194304874Y-128099819D01*
X194304874Y-128099819D02*
X194400112Y-128147438D01*
X194400112Y-128147438D02*
X194447731Y-128195057D01*
X194447731Y-128195057D02*
X194495350Y-128290295D01*
X194495350Y-128290295D02*
X194542969Y-128480771D01*
X194542969Y-128480771D02*
X194542969Y-128718866D01*
X194542969Y-128718866D02*
X194495350Y-128909342D01*
X194495350Y-128909342D02*
X194447731Y-129004580D01*
X194447731Y-129004580D02*
X194400112Y-129052200D01*
X194400112Y-129052200D02*
X194304874Y-129099819D01*
X194304874Y-129099819D02*
X194209636Y-129099819D01*
X194209636Y-129099819D02*
X194114398Y-129052200D01*
X194114398Y-129052200D02*
X194066779Y-129004580D01*
X194066779Y-129004580D02*
X194019160Y-128909342D01*
X194019160Y-128909342D02*
X193971541Y-128718866D01*
X193971541Y-128718866D02*
X193971541Y-128480771D01*
X193971541Y-128480771D02*
X194019160Y-128290295D01*
X194019160Y-128290295D02*
X194066779Y-128195057D01*
X194066779Y-128195057D02*
X194114398Y-128147438D01*
X194114398Y-128147438D02*
X194209636Y-128099819D01*
X193515350Y-105963152D02*
X193515350Y-106629819D01*
X193277255Y-105582200D02*
X193039160Y-106296485D01*
X193039160Y-106296485D02*
X193658207Y-106296485D01*
X194229636Y-105629819D02*
X194324874Y-105629819D01*
X194324874Y-105629819D02*
X194420112Y-105677438D01*
X194420112Y-105677438D02*
X194467731Y-105725057D01*
X194467731Y-105725057D02*
X194515350Y-105820295D01*
X194515350Y-105820295D02*
X194562969Y-106010771D01*
X194562969Y-106010771D02*
X194562969Y-106248866D01*
X194562969Y-106248866D02*
X194515350Y-106439342D01*
X194515350Y-106439342D02*
X194467731Y-106534580D01*
X194467731Y-106534580D02*
X194420112Y-106582200D01*
X194420112Y-106582200D02*
X194324874Y-106629819D01*
X194324874Y-106629819D02*
X194229636Y-106629819D01*
X194229636Y-106629819D02*
X194134398Y-106582200D01*
X194134398Y-106582200D02*
X194086779Y-106534580D01*
X194086779Y-106534580D02*
X194039160Y-106439342D01*
X194039160Y-106439342D02*
X193991541Y-106248866D01*
X193991541Y-106248866D02*
X193991541Y-106010771D01*
X193991541Y-106010771D02*
X194039160Y-105820295D01*
X194039160Y-105820295D02*
X194086779Y-105725057D01*
X194086779Y-105725057D02*
X194134398Y-105677438D01*
X194134398Y-105677438D02*
X194229636Y-105629819D01*
X153656009Y-114269887D02*
X153656009Y-114603220D01*
X154179819Y-114603220D02*
X153179819Y-114603220D01*
X153179819Y-114603220D02*
X153179819Y-114127030D01*
X154179819Y-113269887D02*
X154179819Y-113746077D01*
X154179819Y-113746077D02*
X153179819Y-113746077D01*
X153894104Y-112984172D02*
X153894104Y-112507982D01*
X154179819Y-113079410D02*
X153179819Y-112746077D01*
X153179819Y-112746077D02*
X154179819Y-112412744D01*
X154132200Y-112127029D02*
X154179819Y-111984172D01*
X154179819Y-111984172D02*
X154179819Y-111746077D01*
X154179819Y-111746077D02*
X154132200Y-111650839D01*
X154132200Y-111650839D02*
X154084580Y-111603220D01*
X154084580Y-111603220D02*
X153989342Y-111555601D01*
X153989342Y-111555601D02*
X153894104Y-111555601D01*
X153894104Y-111555601D02*
X153798866Y-111603220D01*
X153798866Y-111603220D02*
X153751247Y-111650839D01*
X153751247Y-111650839D02*
X153703628Y-111746077D01*
X153703628Y-111746077D02*
X153656009Y-111936553D01*
X153656009Y-111936553D02*
X153608390Y-112031791D01*
X153608390Y-112031791D02*
X153560771Y-112079410D01*
X153560771Y-112079410D02*
X153465533Y-112127029D01*
X153465533Y-112127029D02*
X153370295Y-112127029D01*
X153370295Y-112127029D02*
X153275057Y-112079410D01*
X153275057Y-112079410D02*
X153227438Y-112031791D01*
X153227438Y-112031791D02*
X153179819Y-111936553D01*
X153179819Y-111936553D02*
X153179819Y-111698458D01*
X153179819Y-111698458D02*
X153227438Y-111555601D01*
X154179819Y-111127029D02*
X153179819Y-111127029D01*
X153656009Y-111127029D02*
X153656009Y-110555601D01*
X154179819Y-110555601D02*
X153179819Y-110555601D01*
X161109819Y-114603220D02*
X160109819Y-114603220D01*
X160109819Y-114603220D02*
X160109819Y-114222268D01*
X160109819Y-114222268D02*
X160157438Y-114127030D01*
X160157438Y-114127030D02*
X160205057Y-114079411D01*
X160205057Y-114079411D02*
X160300295Y-114031792D01*
X160300295Y-114031792D02*
X160443152Y-114031792D01*
X160443152Y-114031792D02*
X160538390Y-114079411D01*
X160538390Y-114079411D02*
X160586009Y-114127030D01*
X160586009Y-114127030D02*
X160633628Y-114222268D01*
X160633628Y-114222268D02*
X160633628Y-114603220D01*
X161062200Y-113650839D02*
X161109819Y-113507982D01*
X161109819Y-113507982D02*
X161109819Y-113269887D01*
X161109819Y-113269887D02*
X161062200Y-113174649D01*
X161062200Y-113174649D02*
X161014580Y-113127030D01*
X161014580Y-113127030D02*
X160919342Y-113079411D01*
X160919342Y-113079411D02*
X160824104Y-113079411D01*
X160824104Y-113079411D02*
X160728866Y-113127030D01*
X160728866Y-113127030D02*
X160681247Y-113174649D01*
X160681247Y-113174649D02*
X160633628Y-113269887D01*
X160633628Y-113269887D02*
X160586009Y-113460363D01*
X160586009Y-113460363D02*
X160538390Y-113555601D01*
X160538390Y-113555601D02*
X160490771Y-113603220D01*
X160490771Y-113603220D02*
X160395533Y-113650839D01*
X160395533Y-113650839D02*
X160300295Y-113650839D01*
X160300295Y-113650839D02*
X160205057Y-113603220D01*
X160205057Y-113603220D02*
X160157438Y-113555601D01*
X160157438Y-113555601D02*
X160109819Y-113460363D01*
X160109819Y-113460363D02*
X160109819Y-113222268D01*
X160109819Y-113222268D02*
X160157438Y-113079411D01*
X161109819Y-112079411D02*
X160633628Y-112412744D01*
X161109819Y-112650839D02*
X160109819Y-112650839D01*
X160109819Y-112650839D02*
X160109819Y-112269887D01*
X160109819Y-112269887D02*
X160157438Y-112174649D01*
X160157438Y-112174649D02*
X160205057Y-112127030D01*
X160205057Y-112127030D02*
X160300295Y-112079411D01*
X160300295Y-112079411D02*
X160443152Y-112079411D01*
X160443152Y-112079411D02*
X160538390Y-112127030D01*
X160538390Y-112127030D02*
X160586009Y-112174649D01*
X160586009Y-112174649D02*
X160633628Y-112269887D01*
X160633628Y-112269887D02*
X160633628Y-112650839D01*
X160824104Y-111698458D02*
X160824104Y-111222268D01*
X161109819Y-111793696D02*
X160109819Y-111460363D01*
X160109819Y-111460363D02*
X161109819Y-111127030D01*
X161109819Y-110793696D02*
X160109819Y-110793696D01*
X160109819Y-110793696D02*
X160824104Y-110460363D01*
X160824104Y-110460363D02*
X160109819Y-110127030D01*
X160109819Y-110127030D02*
X161109819Y-110127030D01*
X185252200Y-122450839D02*
X185299819Y-122307982D01*
X185299819Y-122307982D02*
X185299819Y-122069887D01*
X185299819Y-122069887D02*
X185252200Y-121974649D01*
X185252200Y-121974649D02*
X185204580Y-121927030D01*
X185204580Y-121927030D02*
X185109342Y-121879411D01*
X185109342Y-121879411D02*
X185014104Y-121879411D01*
X185014104Y-121879411D02*
X184918866Y-121927030D01*
X184918866Y-121927030D02*
X184871247Y-121974649D01*
X184871247Y-121974649D02*
X184823628Y-122069887D01*
X184823628Y-122069887D02*
X184776009Y-122260363D01*
X184776009Y-122260363D02*
X184728390Y-122355601D01*
X184728390Y-122355601D02*
X184680771Y-122403220D01*
X184680771Y-122403220D02*
X184585533Y-122450839D01*
X184585533Y-122450839D02*
X184490295Y-122450839D01*
X184490295Y-122450839D02*
X184395057Y-122403220D01*
X184395057Y-122403220D02*
X184347438Y-122355601D01*
X184347438Y-122355601D02*
X184299819Y-122260363D01*
X184299819Y-122260363D02*
X184299819Y-122022268D01*
X184299819Y-122022268D02*
X184347438Y-121879411D01*
X184299819Y-121546077D02*
X185299819Y-121307982D01*
X185299819Y-121307982D02*
X184585533Y-121117506D01*
X184585533Y-121117506D02*
X185299819Y-120927030D01*
X185299819Y-120927030D02*
X184299819Y-120688935D01*
X185299819Y-120307982D02*
X184299819Y-120307982D01*
X184299819Y-120307982D02*
X184299819Y-120069887D01*
X184299819Y-120069887D02*
X184347438Y-119927030D01*
X184347438Y-119927030D02*
X184442676Y-119831792D01*
X184442676Y-119831792D02*
X184537914Y-119784173D01*
X184537914Y-119784173D02*
X184728390Y-119736554D01*
X184728390Y-119736554D02*
X184871247Y-119736554D01*
X184871247Y-119736554D02*
X185061723Y-119784173D01*
X185061723Y-119784173D02*
X185156961Y-119831792D01*
X185156961Y-119831792D02*
X185252200Y-119927030D01*
X185252200Y-119927030D02*
X185299819Y-120069887D01*
X185299819Y-120069887D02*
X185299819Y-120307982D01*
D11*
X140371429Y-104064895D02*
X140371429Y-104712514D01*
X140371429Y-104712514D02*
X140409524Y-104788704D01*
X140409524Y-104788704D02*
X140447619Y-104826800D01*
X140447619Y-104826800D02*
X140523810Y-104864895D01*
X140523810Y-104864895D02*
X140676191Y-104864895D01*
X140676191Y-104864895D02*
X140752381Y-104826800D01*
X140752381Y-104826800D02*
X140790476Y-104788704D01*
X140790476Y-104788704D02*
X140828572Y-104712514D01*
X140828572Y-104712514D02*
X140828572Y-104064895D01*
X141209524Y-104864895D02*
X141209524Y-104064895D01*
X141209524Y-104064895D02*
X141514286Y-104064895D01*
X141514286Y-104064895D02*
X141590476Y-104102990D01*
X141590476Y-104102990D02*
X141628571Y-104141085D01*
X141628571Y-104141085D02*
X141666667Y-104217276D01*
X141666667Y-104217276D02*
X141666667Y-104331561D01*
X141666667Y-104331561D02*
X141628571Y-104407752D01*
X141628571Y-104407752D02*
X141590476Y-104445847D01*
X141590476Y-104445847D02*
X141514286Y-104483942D01*
X141514286Y-104483942D02*
X141209524Y-104483942D01*
X133047619Y-114364895D02*
X132666667Y-114364895D01*
X132666667Y-114364895D02*
X132666667Y-113564895D01*
X150447619Y-114364895D02*
X150180952Y-113983942D01*
X149990476Y-114364895D02*
X149990476Y-113564895D01*
X149990476Y-113564895D02*
X150295238Y-113564895D01*
X150295238Y-113564895D02*
X150371428Y-113602990D01*
X150371428Y-113602990D02*
X150409523Y-113641085D01*
X150409523Y-113641085D02*
X150447619Y-113717276D01*
X150447619Y-113717276D02*
X150447619Y-113831561D01*
X150447619Y-113831561D02*
X150409523Y-113907752D01*
X150409523Y-113907752D02*
X150371428Y-113945847D01*
X150371428Y-113945847D02*
X150295238Y-113983942D01*
X150295238Y-113983942D02*
X149990476Y-113983942D01*
X139495238Y-124564895D02*
X139495238Y-123764895D01*
X139495238Y-123764895D02*
X139685714Y-123764895D01*
X139685714Y-123764895D02*
X139800000Y-123802990D01*
X139800000Y-123802990D02*
X139876190Y-123879180D01*
X139876190Y-123879180D02*
X139914285Y-123955371D01*
X139914285Y-123955371D02*
X139952381Y-124107752D01*
X139952381Y-124107752D02*
X139952381Y-124222038D01*
X139952381Y-124222038D02*
X139914285Y-124374419D01*
X139914285Y-124374419D02*
X139876190Y-124450609D01*
X139876190Y-124450609D02*
X139800000Y-124526800D01*
X139800000Y-124526800D02*
X139685714Y-124564895D01*
X139685714Y-124564895D02*
X139495238Y-124564895D01*
X140447619Y-123764895D02*
X140600000Y-123764895D01*
X140600000Y-123764895D02*
X140676190Y-123802990D01*
X140676190Y-123802990D02*
X140752381Y-123879180D01*
X140752381Y-123879180D02*
X140790476Y-124031561D01*
X140790476Y-124031561D02*
X140790476Y-124298228D01*
X140790476Y-124298228D02*
X140752381Y-124450609D01*
X140752381Y-124450609D02*
X140676190Y-124526800D01*
X140676190Y-124526800D02*
X140600000Y-124564895D01*
X140600000Y-124564895D02*
X140447619Y-124564895D01*
X140447619Y-124564895D02*
X140371428Y-124526800D01*
X140371428Y-124526800D02*
X140295238Y-124450609D01*
X140295238Y-124450609D02*
X140257142Y-124298228D01*
X140257142Y-124298228D02*
X140257142Y-124031561D01*
X140257142Y-124031561D02*
X140295238Y-123879180D01*
X140295238Y-123879180D02*
X140371428Y-123802990D01*
X140371428Y-123802990D02*
X140447619Y-123764895D01*
X141057142Y-123764895D02*
X141247618Y-124564895D01*
X141247618Y-124564895D02*
X141399999Y-123993466D01*
X141399999Y-123993466D02*
X141552380Y-124564895D01*
X141552380Y-124564895D02*
X141742857Y-123764895D01*
X142047619Y-124564895D02*
X142047619Y-123764895D01*
X142047619Y-123764895D02*
X142504762Y-124564895D01*
X142504762Y-124564895D02*
X142504762Y-123764895D01*
D10*
X201809523Y-106833723D02*
X202190476Y-106833723D01*
X201733333Y-107062295D02*
X202000000Y-106262295D01*
X202000000Y-106262295D02*
X202266666Y-107062295D01*
D11*
X171469046Y-131436800D02*
X171583332Y-131474895D01*
X171583332Y-131474895D02*
X171773808Y-131474895D01*
X171773808Y-131474895D02*
X171849999Y-131436800D01*
X171849999Y-131436800D02*
X171888094Y-131398704D01*
X171888094Y-131398704D02*
X171926189Y-131322514D01*
X171926189Y-131322514D02*
X171926189Y-131246323D01*
X171926189Y-131246323D02*
X171888094Y-131170133D01*
X171888094Y-131170133D02*
X171849999Y-131132038D01*
X171849999Y-131132038D02*
X171773808Y-131093942D01*
X171773808Y-131093942D02*
X171621427Y-131055847D01*
X171621427Y-131055847D02*
X171545237Y-131017752D01*
X171545237Y-131017752D02*
X171507142Y-130979657D01*
X171507142Y-130979657D02*
X171469046Y-130903466D01*
X171469046Y-130903466D02*
X171469046Y-130827276D01*
X171469046Y-130827276D02*
X171507142Y-130751085D01*
X171507142Y-130751085D02*
X171545237Y-130712990D01*
X171545237Y-130712990D02*
X171621427Y-130674895D01*
X171621427Y-130674895D02*
X171811904Y-130674895D01*
X171811904Y-130674895D02*
X171926189Y-130712990D01*
X172269047Y-131055847D02*
X172535713Y-131055847D01*
X172649999Y-131474895D02*
X172269047Y-131474895D01*
X172269047Y-131474895D02*
X172269047Y-130674895D01*
X172269047Y-130674895D02*
X172649999Y-130674895D01*
X173373809Y-131474895D02*
X172992857Y-131474895D01*
X172992857Y-131474895D02*
X172992857Y-130674895D01*
X173640476Y-131055847D02*
X173907142Y-131055847D01*
X174021428Y-131474895D02*
X173640476Y-131474895D01*
X173640476Y-131474895D02*
X173640476Y-130674895D01*
X173640476Y-130674895D02*
X174021428Y-130674895D01*
X174821429Y-131398704D02*
X174783333Y-131436800D01*
X174783333Y-131436800D02*
X174669048Y-131474895D01*
X174669048Y-131474895D02*
X174592857Y-131474895D01*
X174592857Y-131474895D02*
X174478571Y-131436800D01*
X174478571Y-131436800D02*
X174402381Y-131360609D01*
X174402381Y-131360609D02*
X174364286Y-131284419D01*
X174364286Y-131284419D02*
X174326190Y-131132038D01*
X174326190Y-131132038D02*
X174326190Y-131017752D01*
X174326190Y-131017752D02*
X174364286Y-130865371D01*
X174364286Y-130865371D02*
X174402381Y-130789180D01*
X174402381Y-130789180D02*
X174478571Y-130712990D01*
X174478571Y-130712990D02*
X174592857Y-130674895D01*
X174592857Y-130674895D02*
X174669048Y-130674895D01*
X174669048Y-130674895D02*
X174783333Y-130712990D01*
X174783333Y-130712990D02*
X174821429Y-130751085D01*
X175050000Y-130674895D02*
X175507143Y-130674895D01*
X175278571Y-131474895D02*
X175278571Y-130674895D01*
X183669047Y-131406800D02*
X183783333Y-131444895D01*
X183783333Y-131444895D02*
X183973809Y-131444895D01*
X183973809Y-131444895D02*
X184050000Y-131406800D01*
X184050000Y-131406800D02*
X184088095Y-131368704D01*
X184088095Y-131368704D02*
X184126190Y-131292514D01*
X184126190Y-131292514D02*
X184126190Y-131216323D01*
X184126190Y-131216323D02*
X184088095Y-131140133D01*
X184088095Y-131140133D02*
X184050000Y-131102038D01*
X184050000Y-131102038D02*
X183973809Y-131063942D01*
X183973809Y-131063942D02*
X183821428Y-131025847D01*
X183821428Y-131025847D02*
X183745238Y-130987752D01*
X183745238Y-130987752D02*
X183707143Y-130949657D01*
X183707143Y-130949657D02*
X183669047Y-130873466D01*
X183669047Y-130873466D02*
X183669047Y-130797276D01*
X183669047Y-130797276D02*
X183707143Y-130721085D01*
X183707143Y-130721085D02*
X183745238Y-130682990D01*
X183745238Y-130682990D02*
X183821428Y-130644895D01*
X183821428Y-130644895D02*
X184011905Y-130644895D01*
X184011905Y-130644895D02*
X184126190Y-130682990D01*
X184354762Y-130644895D02*
X184811905Y-130644895D01*
X184583333Y-131444895D02*
X184583333Y-130644895D01*
X185040476Y-131216323D02*
X185421429Y-131216323D01*
X184964286Y-131444895D02*
X185230953Y-130644895D01*
X185230953Y-130644895D02*
X185497619Y-131444895D01*
X186221429Y-131444895D02*
X185954762Y-131063942D01*
X185764286Y-131444895D02*
X185764286Y-130644895D01*
X185764286Y-130644895D02*
X186069048Y-130644895D01*
X186069048Y-130644895D02*
X186145238Y-130682990D01*
X186145238Y-130682990D02*
X186183333Y-130721085D01*
X186183333Y-130721085D02*
X186221429Y-130797276D01*
X186221429Y-130797276D02*
X186221429Y-130911561D01*
X186221429Y-130911561D02*
X186183333Y-130987752D01*
X186183333Y-130987752D02*
X186145238Y-131025847D01*
X186145238Y-131025847D02*
X186069048Y-131063942D01*
X186069048Y-131063942D02*
X185764286Y-131063942D01*
X186450000Y-130644895D02*
X186907143Y-130644895D01*
X186678571Y-131444895D02*
X186678571Y-130644895D01*
D12*
X196016119Y-93240476D02*
X196016119Y-93716666D01*
X196016119Y-93716666D02*
X195016119Y-93716666D01*
X195920880Y-92335714D02*
X195968500Y-92383333D01*
X195968500Y-92383333D02*
X196016119Y-92526190D01*
X196016119Y-92526190D02*
X196016119Y-92621428D01*
X196016119Y-92621428D02*
X195968500Y-92764285D01*
X195968500Y-92764285D02*
X195873261Y-92859523D01*
X195873261Y-92859523D02*
X195778023Y-92907142D01*
X195778023Y-92907142D02*
X195587547Y-92954761D01*
X195587547Y-92954761D02*
X195444690Y-92954761D01*
X195444690Y-92954761D02*
X195254214Y-92907142D01*
X195254214Y-92907142D02*
X195158976Y-92859523D01*
X195158976Y-92859523D02*
X195063738Y-92764285D01*
X195063738Y-92764285D02*
X195016119Y-92621428D01*
X195016119Y-92621428D02*
X195016119Y-92526190D01*
X195016119Y-92526190D02*
X195063738Y-92383333D01*
X195063738Y-92383333D02*
X195111357Y-92335714D01*
X196016119Y-91907142D02*
X195016119Y-91907142D01*
X195016119Y-91907142D02*
X195016119Y-91669047D01*
X195016119Y-91669047D02*
X195063738Y-91526190D01*
X195063738Y-91526190D02*
X195158976Y-91430952D01*
X195158976Y-91430952D02*
X195254214Y-91383333D01*
X195254214Y-91383333D02*
X195444690Y-91335714D01*
X195444690Y-91335714D02*
X195587547Y-91335714D01*
X195587547Y-91335714D02*
X195778023Y-91383333D01*
X195778023Y-91383333D02*
X195873261Y-91430952D01*
X195873261Y-91430952D02*
X195968500Y-91526190D01*
X195968500Y-91526190D02*
X196016119Y-91669047D01*
X196016119Y-91669047D02*
X196016119Y-91907142D01*
D11*
X156161905Y-133364895D02*
X156161905Y-132564895D01*
X156504761Y-132641085D02*
X156542857Y-132602990D01*
X156542857Y-132602990D02*
X156619047Y-132564895D01*
X156619047Y-132564895D02*
X156809523Y-132564895D01*
X156809523Y-132564895D02*
X156885714Y-132602990D01*
X156885714Y-132602990D02*
X156923809Y-132641085D01*
X156923809Y-132641085D02*
X156961904Y-132717276D01*
X156961904Y-132717276D02*
X156961904Y-132793466D01*
X156961904Y-132793466D02*
X156923809Y-132907752D01*
X156923809Y-132907752D02*
X156466666Y-133364895D01*
X156466666Y-133364895D02*
X156961904Y-133364895D01*
X157266666Y-133326800D02*
X157380952Y-133364895D01*
X157380952Y-133364895D02*
X157571428Y-133364895D01*
X157571428Y-133364895D02*
X157647619Y-133326800D01*
X157647619Y-133326800D02*
X157685714Y-133288704D01*
X157685714Y-133288704D02*
X157723809Y-133212514D01*
X157723809Y-133212514D02*
X157723809Y-133136323D01*
X157723809Y-133136323D02*
X157685714Y-133060133D01*
X157685714Y-133060133D02*
X157647619Y-133022038D01*
X157647619Y-133022038D02*
X157571428Y-132983942D01*
X157571428Y-132983942D02*
X157419047Y-132945847D01*
X157419047Y-132945847D02*
X157342857Y-132907752D01*
X157342857Y-132907752D02*
X157304762Y-132869657D01*
X157304762Y-132869657D02*
X157266666Y-132793466D01*
X157266666Y-132793466D02*
X157266666Y-132717276D01*
X157266666Y-132717276D02*
X157304762Y-132641085D01*
X157304762Y-132641085D02*
X157342857Y-132602990D01*
X157342857Y-132602990D02*
X157419047Y-132564895D01*
X157419047Y-132564895D02*
X157609524Y-132564895D01*
X157609524Y-132564895D02*
X157723809Y-132602990D01*
X158638095Y-133136323D02*
X159019048Y-133136323D01*
X158561905Y-133364895D02*
X158828572Y-132564895D01*
X158828572Y-132564895D02*
X159095238Y-133364895D01*
X159361905Y-132564895D02*
X159361905Y-133212514D01*
X159361905Y-133212514D02*
X159400000Y-133288704D01*
X159400000Y-133288704D02*
X159438095Y-133326800D01*
X159438095Y-133326800D02*
X159514286Y-133364895D01*
X159514286Y-133364895D02*
X159666667Y-133364895D01*
X159666667Y-133364895D02*
X159742857Y-133326800D01*
X159742857Y-133326800D02*
X159780952Y-133288704D01*
X159780952Y-133288704D02*
X159819048Y-133212514D01*
X159819048Y-133212514D02*
X159819048Y-132564895D01*
X160200000Y-133364895D02*
X160200000Y-132564895D01*
X160200000Y-132564895D02*
X160390476Y-132564895D01*
X160390476Y-132564895D02*
X160504762Y-132602990D01*
X160504762Y-132602990D02*
X160580952Y-132679180D01*
X160580952Y-132679180D02*
X160619047Y-132755371D01*
X160619047Y-132755371D02*
X160657143Y-132907752D01*
X160657143Y-132907752D02*
X160657143Y-133022038D01*
X160657143Y-133022038D02*
X160619047Y-133174419D01*
X160619047Y-133174419D02*
X160580952Y-133250609D01*
X160580952Y-133250609D02*
X160504762Y-133326800D01*
X160504762Y-133326800D02*
X160390476Y-133364895D01*
X160390476Y-133364895D02*
X160200000Y-133364895D01*
X161000000Y-133364895D02*
X161000000Y-132564895D01*
X161533333Y-132564895D02*
X161685714Y-132564895D01*
X161685714Y-132564895D02*
X161761904Y-132602990D01*
X161761904Y-132602990D02*
X161838095Y-132679180D01*
X161838095Y-132679180D02*
X161876190Y-132831561D01*
X161876190Y-132831561D02*
X161876190Y-133098228D01*
X161876190Y-133098228D02*
X161838095Y-133250609D01*
X161838095Y-133250609D02*
X161761904Y-133326800D01*
X161761904Y-133326800D02*
X161685714Y-133364895D01*
X161685714Y-133364895D02*
X161533333Y-133364895D01*
X161533333Y-133364895D02*
X161457142Y-133326800D01*
X161457142Y-133326800D02*
X161380952Y-133250609D01*
X161380952Y-133250609D02*
X161342856Y-133098228D01*
X161342856Y-133098228D02*
X161342856Y-132831561D01*
X161342856Y-132831561D02*
X161380952Y-132679180D01*
X161380952Y-132679180D02*
X161457142Y-132602990D01*
X161457142Y-132602990D02*
X161533333Y-132564895D01*
%TO.C,J19*%
D13*
X177590000Y-104830000D02*
X177590000Y-104765000D01*
X177096708Y-104830000D02*
X177590000Y-104830000D01*
X175270000Y-104830000D02*
X177590000Y-104830000D01*
X175270000Y-104830000D02*
X175763292Y-104830000D01*
X175270000Y-104830000D02*
X175270000Y-104765000D01*
X175270000Y-104020000D02*
X175270000Y-103210000D01*
X175270000Y-103210000D02*
X176430000Y-103210000D01*
%TO.C,J20*%
X148120000Y-103520000D02*
X149280000Y-103520000D01*
X148120000Y-104330000D02*
X148120000Y-103520000D01*
X148120000Y-105140000D02*
X148120000Y-105075000D01*
X148120000Y-105140000D02*
X148613292Y-105140000D01*
X148120000Y-105140000D02*
X150440000Y-105140000D01*
X149946708Y-105140000D02*
X150440000Y-105140000D01*
X150440000Y-105140000D02*
X150440000Y-105075000D01*
%TO.C,J10*%
X197230000Y-113950000D02*
X197230000Y-113885000D01*
X196736708Y-113950000D02*
X197230000Y-113950000D01*
X194910000Y-113950000D02*
X197230000Y-113950000D01*
X194910000Y-113950000D02*
X195403292Y-113950000D01*
X194910000Y-113950000D02*
X194910000Y-113885000D01*
X194910000Y-113140000D02*
X194910000Y-112330000D01*
X194910000Y-112330000D02*
X196070000Y-112330000D01*
%TO.C,J7*%
X191430000Y-80920000D02*
X193970000Y-80920000D01*
X193970000Y-101240000D01*
X191430000Y-101240000D01*
X191430000Y-80920000D01*
%TO.C,J15*%
X172120000Y-103330000D02*
X173280000Y-103330000D01*
X172120000Y-104140000D02*
X172120000Y-103330000D01*
X172120000Y-104950000D02*
X172120000Y-104885000D01*
X172120000Y-104950000D02*
X172613292Y-104950000D01*
X172120000Y-104950000D02*
X174440000Y-104950000D01*
X173946708Y-104950000D02*
X174440000Y-104950000D01*
X174440000Y-104950000D02*
X174440000Y-104885000D01*
%TO.C,J17*%
X165100000Y-103210000D02*
X166260000Y-103210000D01*
X165100000Y-104020000D02*
X165100000Y-103210000D01*
X165100000Y-104830000D02*
X165100000Y-104765000D01*
X165100000Y-104830000D02*
X165593292Y-104830000D01*
X165100000Y-104830000D02*
X167420000Y-104830000D01*
X166926708Y-104830000D02*
X167420000Y-104830000D01*
X167420000Y-104830000D02*
X167420000Y-104765000D01*
%TO.C,J16*%
X168810000Y-103300000D02*
X169970000Y-103300000D01*
X168810000Y-104110000D02*
X168810000Y-103300000D01*
X168810000Y-104920000D02*
X168810000Y-104855000D01*
X168810000Y-104920000D02*
X169303292Y-104920000D01*
X168810000Y-104920000D02*
X171130000Y-104920000D01*
X170636708Y-104920000D02*
X171130000Y-104920000D01*
X171130000Y-104920000D02*
X171130000Y-104855000D01*
%TO.C,J14*%
X181320000Y-102900000D02*
X181320000Y-104060000D01*
X180510000Y-102900000D02*
X181320000Y-102900000D01*
X179700000Y-102900000D02*
X178495000Y-102900000D01*
X179700000Y-102900000D02*
X179700000Y-103393292D01*
X178495000Y-102900000D02*
X178495000Y-103742077D01*
X178495000Y-104377923D02*
X178495000Y-105220000D01*
X179700000Y-104726708D02*
X179700000Y-105220000D01*
X179700000Y-105220000D02*
X178495000Y-105220000D01*
%TO.C,J13*%
X163720000Y-103560000D02*
X163720000Y-104720000D01*
X162910000Y-103560000D02*
X163720000Y-103560000D01*
X162100000Y-103560000D02*
X160895000Y-103560000D01*
X162100000Y-103560000D02*
X162100000Y-104053292D01*
X160895000Y-103560000D02*
X160895000Y-104402077D01*
X160895000Y-105037923D02*
X160895000Y-105880000D01*
X162100000Y-105386708D02*
X162100000Y-105880000D01*
X162100000Y-105880000D02*
X160895000Y-105880000D01*
%TO.C,J12*%
X156915000Y-105760000D02*
X156915000Y-104600000D01*
X157725000Y-105760000D02*
X156915000Y-105760000D01*
X158535000Y-105760000D02*
X159740000Y-105760000D01*
X158535000Y-105760000D02*
X158535000Y-105266708D01*
X159740000Y-105760000D02*
X159740000Y-104917923D01*
X159740000Y-104282077D02*
X159740000Y-103440000D01*
X158535000Y-103933292D02*
X158535000Y-103440000D01*
X158535000Y-103440000D02*
X159740000Y-103440000D01*
%TO.C,J11*%
X152320000Y-103650000D02*
X153480000Y-103650000D01*
X152320000Y-104460000D02*
X152320000Y-103650000D01*
X152320000Y-105270000D02*
X152320000Y-105205000D01*
X152320000Y-105270000D02*
X152813292Y-105270000D01*
X152320000Y-105270000D02*
X154640000Y-105270000D01*
X154146708Y-105270000D02*
X154640000Y-105270000D01*
X154640000Y-105270000D02*
X154640000Y-105205000D01*
%TO.C,J9*%
X196170000Y-110770000D02*
X195010000Y-110770000D01*
X196170000Y-109960000D02*
X196170000Y-110770000D01*
X196170000Y-109150000D02*
X196170000Y-107945000D01*
X196170000Y-109150000D02*
X195676708Y-109150000D01*
X196170000Y-107945000D02*
X195327923Y-107945000D01*
X194692077Y-107945000D02*
X193850000Y-107945000D01*
X194343292Y-109150000D02*
X193850000Y-109150000D01*
X193850000Y-109150000D02*
X193850000Y-107945000D01*
%TO.C,J4*%
X200080000Y-132540000D02*
X198920000Y-132540000D01*
X200080000Y-131730000D02*
X200080000Y-132540000D01*
X200080000Y-130920000D02*
X200080000Y-119555000D01*
X200080000Y-130920000D02*
X199586708Y-130920000D01*
X200080000Y-119555000D02*
X199237923Y-119555000D01*
X198602077Y-119555000D02*
X197760000Y-119555000D01*
X198253292Y-130920000D02*
X197760000Y-130920000D01*
X197760000Y-130920000D02*
X197760000Y-119555000D01*
%TO.C,J3*%
X173170000Y-133000000D02*
X173170000Y-131840000D01*
X173980000Y-133000000D02*
X173170000Y-133000000D01*
X174790000Y-133000000D02*
X179805000Y-133000000D01*
X174790000Y-133000000D02*
X174790000Y-132506708D01*
X179805000Y-133000000D02*
X179805000Y-132157923D01*
X179805000Y-131522077D02*
X179805000Y-130680000D01*
X174790000Y-131173292D02*
X174790000Y-130680000D01*
X174790000Y-130680000D02*
X179805000Y-130680000D01*
%TO.C,J1*%
X148340000Y-116630000D02*
X149500000Y-116630000D01*
X148340000Y-117440000D02*
X148340000Y-116630000D01*
X148340000Y-118250000D02*
X148340000Y-129615000D01*
X148340000Y-118250000D02*
X148833292Y-118250000D01*
X148340000Y-129615000D02*
X149182077Y-129615000D01*
X149817923Y-129615000D02*
X150660000Y-129615000D01*
X150166708Y-118250000D02*
X150660000Y-118250000D01*
X150660000Y-118250000D02*
X150660000Y-129615000D01*
%TO.C,C2*%
X190615000Y-114290580D02*
X190615000Y-114009420D01*
X191635000Y-114290580D02*
X191635000Y-114009420D01*
%TO.C,C13*%
X168840000Y-110090580D02*
X168840000Y-109809420D01*
X169860000Y-110090580D02*
X169860000Y-109809420D01*
%TO.C,D1*%
X190212500Y-112410000D02*
X190212500Y-109750000D01*
X190212500Y-112410000D02*
X191912500Y-112410000D01*
X191912500Y-112410000D02*
X191912500Y-109750000D01*
%TO.C,R9*%
X153077500Y-124262258D02*
X153077500Y-123787742D01*
X154122500Y-124262258D02*
X154122500Y-123787742D01*
%TO.C,J5*%
X186090000Y-117890000D02*
X187140000Y-117890000D01*
X186090000Y-119040000D02*
X186090000Y-117890000D01*
X190140000Y-121010000D02*
X187260000Y-121010000D01*
X190260000Y-117890000D02*
X190260000Y-116900000D01*
X191310000Y-117890000D02*
X190260000Y-117890000D01*
X191310000Y-119040000D02*
X191310000Y-117890000D01*
%TO.C,SW1*%
X164200000Y-122850000D02*
X164500000Y-122850000D01*
X164200000Y-126150000D02*
X164200000Y-122850000D01*
X164500000Y-126150000D02*
X164200000Y-126150000D01*
X166700000Y-126150000D02*
X167000000Y-126150000D01*
X167000000Y-122850000D02*
X166700000Y-122850000D01*
X167000000Y-126150000D02*
X167000000Y-122850000D01*
%TO.C,L1*%
X161300000Y-113600000D02*
X161300000Y-112900000D01*
X163500000Y-113600000D02*
X163500000Y-112900000D01*
%TO.C,U3*%
X188162500Y-112765000D02*
X186362500Y-112765000D01*
X188162500Y-112765000D02*
X188962500Y-112765000D01*
X188162500Y-115885000D02*
X187362500Y-115885000D01*
X188162500Y-115885000D02*
X188962500Y-115885000D01*
%TO.C,C1*%
X184140580Y-112840000D02*
X183859420Y-112840000D01*
X184140580Y-113860000D02*
X183859420Y-113860000D01*
%TO.C,D2*%
X178890000Y-108715000D02*
X178890000Y-110185000D01*
X178890000Y-110185000D02*
X181175000Y-110185000D01*
X181175000Y-108715000D02*
X178890000Y-108715000D01*
%TO.C,C10*%
X176240000Y-110090580D02*
X176240000Y-109809420D01*
X177260000Y-110090580D02*
X177260000Y-109809420D01*
%TO.C,R3*%
X183762742Y-114327500D02*
X184237258Y-114327500D01*
X183762742Y-115372500D02*
X184237258Y-115372500D01*
%TO.C,C17*%
X172240000Y-124409420D02*
X172240000Y-124690580D01*
X173260000Y-124409420D02*
X173260000Y-124690580D01*
%TO.C,C5*%
X180234420Y-114990000D02*
X180515580Y-114990000D01*
X180234420Y-116010000D02*
X180515580Y-116010000D01*
%TO.C,R1*%
X190312742Y-107902500D02*
X190787258Y-107902500D01*
X190312742Y-108947500D02*
X190787258Y-108947500D01*
%TO.C,U2*%
X184000000Y-107815000D02*
X182200000Y-107815000D01*
X184000000Y-107815000D02*
X184800000Y-107815000D01*
X184000000Y-110935000D02*
X183200000Y-110935000D01*
X184000000Y-110935000D02*
X184800000Y-110935000D01*
%TO.C,R8*%
X180612258Y-111977500D02*
X180137742Y-111977500D01*
X180612258Y-113022500D02*
X180137742Y-113022500D01*
%TO.C,C12*%
X165734420Y-110190000D02*
X166015580Y-110190000D01*
X165734420Y-111210000D02*
X166015580Y-111210000D01*
%TO.C,R10*%
X153077500Y-116337258D02*
X153077500Y-115862742D01*
X154122500Y-116337258D02*
X154122500Y-115862742D01*
%TO.C,C18*%
X180234420Y-113490000D02*
X180515580Y-113490000D01*
X180234420Y-114510000D02*
X180515580Y-114510000D01*
%TO.C,R2*%
X180612258Y-110477500D02*
X180137742Y-110477500D01*
X180612258Y-111522500D02*
X180137742Y-111522500D01*
%TO.C,C3*%
X184140580Y-111340000D02*
X183859420Y-111340000D01*
X184140580Y-112360000D02*
X183859420Y-112360000D01*
%TO.C,R11*%
X162637742Y-110177500D02*
X163112258Y-110177500D01*
X162637742Y-111222500D02*
X163112258Y-111222500D01*
%TO.C,C6*%
X170240000Y-124409420D02*
X170240000Y-124690580D01*
X171260000Y-124409420D02*
X171260000Y-124690580D01*
%TO.C,C8*%
X165590580Y-116590000D02*
X165309420Y-116590000D01*
X165590580Y-117610000D02*
X165309420Y-117610000D01*
%TO.C,U5*%
X167800000Y-112100000D02*
X168750000Y-112100001D01*
X167800001Y-113050000D02*
X167800000Y-112100000D01*
X167800001Y-121450000D02*
X167800000Y-122625000D01*
X178099999Y-113050000D02*
X178100000Y-112100000D01*
X178099999Y-121450000D02*
X178100000Y-122400000D01*
X178100000Y-112100000D02*
X177150000Y-112100001D01*
X178100000Y-122400000D02*
X177150000Y-122399999D01*
%TO.C,C19*%
X171690000Y-110090580D02*
X171690000Y-109809420D01*
X172710000Y-110090580D02*
X172710000Y-109809420D01*
%TO.C,U1*%
X154590000Y-122475000D02*
X154590000Y-119475000D01*
X159810000Y-125475000D02*
X159810000Y-119475000D01*
%TO.C,R7*%
X162537258Y-116577500D02*
X162062742Y-116577500D01*
X162537258Y-117622500D02*
X162062742Y-117622500D01*
%TO.C,C15*%
X165590580Y-119890000D02*
X165309420Y-119890000D01*
X165590580Y-120910000D02*
X165309420Y-120910000D01*
%TO.C,R5*%
X187812258Y-107902500D02*
X187337742Y-107902500D01*
X187812258Y-108947500D02*
X187337742Y-108947500D01*
%TO.C,C14*%
X165990000Y-114090580D02*
X165990000Y-113809420D01*
X167010000Y-114090580D02*
X167010000Y-113809420D01*
%TO.C,R6*%
X162537258Y-115077500D02*
X162062742Y-115077500D01*
X162537258Y-116122500D02*
X162062742Y-116122500D01*
%TO.C,Y1*%
X178975000Y-116325000D02*
X178975000Y-119625000D01*
X181775000Y-116325000D02*
X178975000Y-116325000D01*
%TO.C,C7*%
X174240000Y-124409420D02*
X174240000Y-124690580D01*
X175260000Y-124409420D02*
X175260000Y-124690580D01*
%TO.C,Q1*%
X188162500Y-109315000D02*
X186487500Y-109315000D01*
X188162500Y-109315000D02*
X188812500Y-109315000D01*
X188162500Y-112435000D02*
X187512500Y-112435000D01*
X188162500Y-112435000D02*
X188812500Y-112435000D01*
%TO.C,SW2*%
X160650000Y-122850000D02*
X160650000Y-126150000D01*
X160650000Y-126150000D02*
X160950000Y-126150000D01*
X160950000Y-122850000D02*
X160650000Y-122850000D01*
X163150000Y-122850000D02*
X163450000Y-122850000D01*
X163450000Y-122850000D02*
X163450000Y-126150000D01*
X163450000Y-126150000D02*
X163150000Y-126150000D01*
%TO.C,U4*%
X154470000Y-109990000D02*
X154735000Y-109990000D01*
X154470000Y-112725000D02*
X154470000Y-109990000D01*
X154470000Y-112725000D02*
X154470000Y-115460000D01*
X154470000Y-115460000D02*
X154735000Y-115460000D01*
X154735000Y-115460000D02*
X154735000Y-117200000D01*
X159930000Y-109990000D02*
X159665000Y-109990000D01*
X159930000Y-112725000D02*
X159930000Y-109990000D01*
X159930000Y-112725000D02*
X159930000Y-115460000D01*
X159930000Y-115460000D02*
X159665000Y-115460000D01*
%TO.C,J6*%
X186090000Y-124260000D02*
X186090000Y-125410000D01*
X186090000Y-125410000D02*
X187140000Y-125410000D01*
X187140000Y-125410000D02*
X187140000Y-126400000D01*
X187260000Y-122290000D02*
X190140000Y-122290000D01*
X191310000Y-124260000D02*
X191310000Y-125410000D01*
X191310000Y-125410000D02*
X190260000Y-125410000D01*
%TO.C,C16*%
X164490000Y-114090580D02*
X164490000Y-113809420D01*
X165510000Y-114090580D02*
X165510000Y-113809420D01*
%TO.C,C9*%
X180234420Y-121440000D02*
X180515580Y-121440000D01*
X180234420Y-122460000D02*
X180515580Y-122460000D01*
%TO.C,C4*%
X180515580Y-119940000D02*
X180234420Y-119940000D01*
X180515580Y-120960000D02*
X180234420Y-120960000D01*
%TO.C,C11*%
X173190000Y-110090580D02*
X173190000Y-109809420D01*
X174210000Y-110090580D02*
X174210000Y-109809420D01*
%TO.C,R4*%
X153077500Y-121162258D02*
X153077500Y-120687742D01*
X154122500Y-121162258D02*
X154122500Y-120687742D01*
%TO.C,SW3*%
X142650000Y-106600000D02*
X142650000Y-106900000D01*
X139350000Y-106600000D02*
X142650000Y-106600000D01*
X139350000Y-106900000D02*
X139350000Y-106600000D01*
X139350000Y-109100000D02*
X139350000Y-109400000D01*
X142650000Y-109400000D02*
X142650000Y-109100000D01*
X139350000Y-109400000D02*
X142650000Y-109400000D01*
%TO.C,SW4*%
X138150000Y-112600000D02*
X138150000Y-112900000D01*
X134850000Y-112600000D02*
X138150000Y-112600000D01*
X134850000Y-112900000D02*
X134850000Y-112600000D01*
X134850000Y-115100000D02*
X134850000Y-115400000D01*
X138150000Y-115400000D02*
X138150000Y-115100000D01*
X134850000Y-115400000D02*
X138150000Y-115400000D01*
%TO.C,SW5*%
X148150000Y-112600000D02*
X148150000Y-112900000D01*
X144850000Y-112600000D02*
X148150000Y-112600000D01*
X144850000Y-112900000D02*
X144850000Y-112600000D01*
X144850000Y-115100000D02*
X144850000Y-115400000D01*
X148150000Y-115400000D02*
X148150000Y-115100000D01*
X144850000Y-115400000D02*
X148150000Y-115400000D01*
%TO.C,SW6*%
X142650000Y-118600000D02*
X142650000Y-118900000D01*
X139350000Y-118600000D02*
X142650000Y-118600000D01*
X139350000Y-118900000D02*
X139350000Y-118600000D01*
X139350000Y-121100000D02*
X139350000Y-121400000D01*
X142650000Y-121400000D02*
X142650000Y-121100000D01*
X139350000Y-121400000D02*
X142650000Y-121400000D01*
%TO.C,SW7*%
X195350000Y-117400000D02*
X195350000Y-117100000D01*
X198650000Y-117400000D02*
X195350000Y-117400000D01*
X198650000Y-117100000D02*
X198650000Y-117400000D01*
X198650000Y-114900000D02*
X198650000Y-114600000D01*
X195350000Y-114600000D02*
X195350000Y-114900000D01*
X198650000Y-114600000D02*
X195350000Y-114600000D01*
%TO.C,SW8*%
X200350000Y-111400000D02*
X200350000Y-111100000D01*
X203650000Y-111400000D02*
X200350000Y-111400000D01*
X203650000Y-111100000D02*
X203650000Y-111400000D01*
X203650000Y-108900000D02*
X203650000Y-108600000D01*
X200350000Y-108600000D02*
X200350000Y-108900000D01*
X203650000Y-108600000D02*
X200350000Y-108600000D01*
%TO.C,SW9*%
X168070000Y-129670000D02*
X168370000Y-129670000D01*
X168070000Y-132970000D02*
X168070000Y-129670000D01*
X168370000Y-132970000D02*
X168070000Y-132970000D01*
X170570000Y-132970000D02*
X170870000Y-132970000D01*
X170870000Y-129670000D02*
X170570000Y-129670000D01*
X170870000Y-132970000D02*
X170870000Y-129670000D01*
%TO.C,SW10*%
X180600000Y-129350000D02*
X180900000Y-129350000D01*
X180600000Y-132650000D02*
X180600000Y-129350000D01*
X180900000Y-132650000D02*
X180600000Y-132650000D01*
X183100000Y-132650000D02*
X183400000Y-132650000D01*
X183400000Y-129350000D02*
X183100000Y-129350000D01*
X183400000Y-132650000D02*
X183400000Y-129350000D01*
%TO.C,J8*%
X152770000Y-129180000D02*
X165470000Y-129180000D01*
X165470000Y-131720000D01*
X152770000Y-131720000D01*
X152770000Y-129180000D01*
%TO.C,J18*%
X164790000Y-133630000D02*
X164790000Y-132470000D01*
X165600000Y-133630000D02*
X164790000Y-133630000D01*
X166410000Y-133630000D02*
X167615000Y-133630000D01*
X166410000Y-133630000D02*
X166410000Y-133136708D01*
X167615000Y-133630000D02*
X167615000Y-132787923D01*
X167615000Y-132152077D02*
X167615000Y-131310000D01*
X166410000Y-131803292D02*
X166410000Y-131310000D01*
X166410000Y-131310000D02*
X167615000Y-131310000D01*
%TD*%
M02*
