%TF.GenerationSoftware,KiCad,Pcbnew,10.0.5*%
%TF.CreationDate,2026-08-21T00:00:12+05:30*%
%TF.ProjectId,microboy,6d696372-6f62-46f7-992e-6b696361645f,rev?*%
%TF.SameCoordinates,Original*%
%TF.FileFunction,Legend,Bot*%
%TF.FilePolarity,Positive*%
%FSLAX46Y46*%
G04 Gerber Fmt 4.6, Leading zero omitted, Abs format (unit mm)*
G04 Created by KiCad (PCBNEW 10.0.5) date 2026-08-21 00:00:12*
%MOMM*%
%LPD*%
G01*
G04 APERTURE LIST*
%ADD10C,0.150000*%
%ADD11C,0.120000*%
G04 APERTURE END LIST*
D10*
X151152744Y-105489819D02*
X151057506Y-105489819D01*
X151057506Y-105489819D02*
X150962268Y-105537438D01*
X150962268Y-105537438D02*
X150914649Y-105585057D01*
X150914649Y-105585057D02*
X150867030Y-105680295D01*
X150867030Y-105680295D02*
X150819411Y-105870771D01*
X150819411Y-105870771D02*
X150819411Y-106108866D01*
X150819411Y-106108866D02*
X150867030Y-106299342D01*
X150867030Y-106299342D02*
X150914649Y-106394580D01*
X150914649Y-106394580D02*
X150962268Y-106442200D01*
X150962268Y-106442200D02*
X151057506Y-106489819D01*
X151057506Y-106489819D02*
X151152744Y-106489819D01*
X151152744Y-106489819D02*
X151247982Y-106442200D01*
X151247982Y-106442200D02*
X151295601Y-106394580D01*
X151295601Y-106394580D02*
X151343220Y-106299342D01*
X151343220Y-106299342D02*
X151390839Y-106108866D01*
X151390839Y-106108866D02*
X151390839Y-105870771D01*
X151390839Y-105870771D02*
X151343220Y-105680295D01*
X151343220Y-105680295D02*
X151295601Y-105585057D01*
X151295601Y-105585057D02*
X151247982Y-105537438D01*
X151247982Y-105537438D02*
X151152744Y-105489819D01*
X151349411Y-129069819D02*
X151920839Y-129069819D01*
X151635125Y-129069819D02*
X151635125Y-128069819D01*
X151635125Y-128069819D02*
X151730363Y-128212676D01*
X151730363Y-128212676D02*
X151825601Y-128307914D01*
X151825601Y-128307914D02*
X151920839Y-128355533D01*
X150730363Y-128069819D02*
X150635125Y-128069819D01*
X150635125Y-128069819D02*
X150539887Y-128117438D01*
X150539887Y-128117438D02*
X150492268Y-128165057D01*
X150492268Y-128165057D02*
X150444649Y-128260295D01*
X150444649Y-128260295D02*
X150397030Y-128450771D01*
X150397030Y-128450771D02*
X150397030Y-128688866D01*
X150397030Y-128688866D02*
X150444649Y-128879342D01*
X150444649Y-128879342D02*
X150492268Y-128974580D01*
X150492268Y-128974580D02*
X150539887Y-129022200D01*
X150539887Y-129022200D02*
X150635125Y-129069819D01*
X150635125Y-129069819D02*
X150730363Y-129069819D01*
X150730363Y-129069819D02*
X150825601Y-129022200D01*
X150825601Y-129022200D02*
X150873220Y-128974580D01*
X150873220Y-128974580D02*
X150920839Y-128879342D01*
X150920839Y-128879342D02*
X150968458Y-128688866D01*
X150968458Y-128688866D02*
X150968458Y-128450771D01*
X150968458Y-128450771D02*
X150920839Y-128260295D01*
X150920839Y-128260295D02*
X150873220Y-128165057D01*
X150873220Y-128165057D02*
X150825601Y-128117438D01*
X150825601Y-128117438D02*
X150730363Y-128069819D01*
X152797030Y-117809819D02*
X153273220Y-117809819D01*
X153273220Y-117809819D02*
X153320839Y-118286009D01*
X153320839Y-118286009D02*
X153273220Y-118238390D01*
X153273220Y-118238390D02*
X153177982Y-118190771D01*
X153177982Y-118190771D02*
X152939887Y-118190771D01*
X152939887Y-118190771D02*
X152844649Y-118238390D01*
X152844649Y-118238390D02*
X152797030Y-118286009D01*
X152797030Y-118286009D02*
X152749411Y-118381247D01*
X152749411Y-118381247D02*
X152749411Y-118619342D01*
X152749411Y-118619342D02*
X152797030Y-118714580D01*
X152797030Y-118714580D02*
X152844649Y-118762200D01*
X152844649Y-118762200D02*
X152939887Y-118809819D01*
X152939887Y-118809819D02*
X153177982Y-118809819D01*
X153177982Y-118809819D02*
X153273220Y-118762200D01*
X153273220Y-118762200D02*
X153320839Y-118714580D01*
X163519411Y-126739819D02*
X164090839Y-126739819D01*
X163805125Y-126739819D02*
X163805125Y-125739819D01*
X163805125Y-125739819D02*
X163900363Y-125882676D01*
X163900363Y-125882676D02*
X163995601Y-125977914D01*
X163995601Y-125977914D02*
X164090839Y-126025533D01*
X162614649Y-125739819D02*
X163090839Y-125739819D01*
X163090839Y-125739819D02*
X163138458Y-126216009D01*
X163138458Y-126216009D02*
X163090839Y-126168390D01*
X163090839Y-126168390D02*
X162995601Y-126120771D01*
X162995601Y-126120771D02*
X162757506Y-126120771D01*
X162757506Y-126120771D02*
X162662268Y-126168390D01*
X162662268Y-126168390D02*
X162614649Y-126216009D01*
X162614649Y-126216009D02*
X162567030Y-126311247D01*
X162567030Y-126311247D02*
X162567030Y-126549342D01*
X162567030Y-126549342D02*
X162614649Y-126644580D01*
X162614649Y-126644580D02*
X162662268Y-126692200D01*
X162662268Y-126692200D02*
X162757506Y-126739819D01*
X162757506Y-126739819D02*
X162995601Y-126739819D01*
X162995601Y-126739819D02*
X163090839Y-126692200D01*
X163090839Y-126692200D02*
X163138458Y-126644580D01*
X174120839Y-125595057D02*
X174073220Y-125547438D01*
X174073220Y-125547438D02*
X173977982Y-125499819D01*
X173977982Y-125499819D02*
X173739887Y-125499819D01*
X173739887Y-125499819D02*
X173644649Y-125547438D01*
X173644649Y-125547438D02*
X173597030Y-125595057D01*
X173597030Y-125595057D02*
X173549411Y-125690295D01*
X173549411Y-125690295D02*
X173549411Y-125785533D01*
X173549411Y-125785533D02*
X173597030Y-125928390D01*
X173597030Y-125928390D02*
X174168458Y-126499819D01*
X174168458Y-126499819D02*
X173549411Y-126499819D01*
X172930363Y-125499819D02*
X172835125Y-125499819D01*
X172835125Y-125499819D02*
X172739887Y-125547438D01*
X172739887Y-125547438D02*
X172692268Y-125595057D01*
X172692268Y-125595057D02*
X172644649Y-125690295D01*
X172644649Y-125690295D02*
X172597030Y-125880771D01*
X172597030Y-125880771D02*
X172597030Y-126118866D01*
X172597030Y-126118866D02*
X172644649Y-126309342D01*
X172644649Y-126309342D02*
X172692268Y-126404580D01*
X172692268Y-126404580D02*
X172739887Y-126452200D01*
X172739887Y-126452200D02*
X172835125Y-126499819D01*
X172835125Y-126499819D02*
X172930363Y-126499819D01*
X172930363Y-126499819D02*
X173025601Y-126452200D01*
X173025601Y-126452200D02*
X173073220Y-126404580D01*
X173073220Y-126404580D02*
X173120839Y-126309342D01*
X173120839Y-126309342D02*
X173168458Y-126118866D01*
X173168458Y-126118866D02*
X173168458Y-125880771D01*
X173168458Y-125880771D02*
X173120839Y-125690295D01*
X173120839Y-125690295D02*
X173073220Y-125595057D01*
X173073220Y-125595057D02*
X173025601Y-125547438D01*
X173025601Y-125547438D02*
X172930363Y-125499819D01*
X179184649Y-106343152D02*
X179184649Y-107009819D01*
X179422744Y-105962200D02*
X179660839Y-106676485D01*
X179660839Y-106676485D02*
X179041792Y-106676485D01*
X178756077Y-106009819D02*
X178089411Y-106009819D01*
X178089411Y-106009819D02*
X178517982Y-107009819D01*
X184030839Y-125545057D02*
X183983220Y-125497438D01*
X183983220Y-125497438D02*
X183887982Y-125449819D01*
X183887982Y-125449819D02*
X183649887Y-125449819D01*
X183649887Y-125449819D02*
X183554649Y-125497438D01*
X183554649Y-125497438D02*
X183507030Y-125545057D01*
X183507030Y-125545057D02*
X183459411Y-125640295D01*
X183459411Y-125640295D02*
X183459411Y-125735533D01*
X183459411Y-125735533D02*
X183507030Y-125878390D01*
X183507030Y-125878390D02*
X184078458Y-126449819D01*
X184078458Y-126449819D02*
X183459411Y-126449819D01*
X182554649Y-125449819D02*
X183030839Y-125449819D01*
X183030839Y-125449819D02*
X183078458Y-125926009D01*
X183078458Y-125926009D02*
X183030839Y-125878390D01*
X183030839Y-125878390D02*
X182935601Y-125830771D01*
X182935601Y-125830771D02*
X182697506Y-125830771D01*
X182697506Y-125830771D02*
X182602268Y-125878390D01*
X182602268Y-125878390D02*
X182554649Y-125926009D01*
X182554649Y-125926009D02*
X182507030Y-126021247D01*
X182507030Y-126021247D02*
X182507030Y-126259342D01*
X182507030Y-126259342D02*
X182554649Y-126354580D01*
X182554649Y-126354580D02*
X182602268Y-126402200D01*
X182602268Y-126402200D02*
X182697506Y-126449819D01*
X182697506Y-126449819D02*
X182935601Y-126449819D01*
X182935601Y-126449819D02*
X183030839Y-126402200D01*
X183030839Y-126402200D02*
X183078458Y-126354580D01*
X187759887Y-113246009D02*
X187617030Y-113293628D01*
X187617030Y-113293628D02*
X187569411Y-113341247D01*
X187569411Y-113341247D02*
X187521792Y-113436485D01*
X187521792Y-113436485D02*
X187521792Y-113579342D01*
X187521792Y-113579342D02*
X187569411Y-113674580D01*
X187569411Y-113674580D02*
X187617030Y-113722200D01*
X187617030Y-113722200D02*
X187712268Y-113769819D01*
X187712268Y-113769819D02*
X188093220Y-113769819D01*
X188093220Y-113769819D02*
X188093220Y-112769819D01*
X188093220Y-112769819D02*
X187759887Y-112769819D01*
X187759887Y-112769819D02*
X187664649Y-112817438D01*
X187664649Y-112817438D02*
X187617030Y-112865057D01*
X187617030Y-112865057D02*
X187569411Y-112960295D01*
X187569411Y-112960295D02*
X187569411Y-113055533D01*
X187569411Y-113055533D02*
X187617030Y-113150771D01*
X187617030Y-113150771D02*
X187664649Y-113198390D01*
X187664649Y-113198390D02*
X187759887Y-113246009D01*
X187759887Y-113246009D02*
X188093220Y-113246009D01*
X187140839Y-113484104D02*
X186664649Y-113484104D01*
X187236077Y-113769819D02*
X186902744Y-112769819D01*
X186902744Y-112769819D02*
X186569411Y-113769819D01*
X186378934Y-112769819D02*
X185807506Y-112769819D01*
X186093220Y-113769819D02*
X186093220Y-112769819D01*
X184236077Y-113769819D02*
X184712267Y-113769819D01*
X184712267Y-113769819D02*
X184712267Y-112769819D01*
X183902743Y-113246009D02*
X183569410Y-113246009D01*
X183426553Y-113769819D02*
X183902743Y-113769819D01*
X183902743Y-113769819D02*
X183902743Y-112769819D01*
X183902743Y-112769819D02*
X183426553Y-112769819D01*
X182997981Y-113769819D02*
X182997981Y-112769819D01*
X182997981Y-112769819D02*
X182759886Y-112769819D01*
X182759886Y-112769819D02*
X182617029Y-112817438D01*
X182617029Y-112817438D02*
X182521791Y-112912676D01*
X182521791Y-112912676D02*
X182474172Y-113007914D01*
X182474172Y-113007914D02*
X182426553Y-113198390D01*
X182426553Y-113198390D02*
X182426553Y-113341247D01*
X182426553Y-113341247D02*
X182474172Y-113531723D01*
X182474172Y-113531723D02*
X182521791Y-113626961D01*
X182521791Y-113626961D02*
X182617029Y-113722200D01*
X182617029Y-113722200D02*
X182759886Y-113769819D01*
X182759886Y-113769819D02*
X182997981Y-113769819D01*
X191918458Y-115759819D02*
X191299411Y-115759819D01*
X191299411Y-115759819D02*
X191632744Y-116140771D01*
X191632744Y-116140771D02*
X191489887Y-116140771D01*
X191489887Y-116140771D02*
X191394649Y-116188390D01*
X191394649Y-116188390D02*
X191347030Y-116236009D01*
X191347030Y-116236009D02*
X191299411Y-116331247D01*
X191299411Y-116331247D02*
X191299411Y-116569342D01*
X191299411Y-116569342D02*
X191347030Y-116664580D01*
X191347030Y-116664580D02*
X191394649Y-116712200D01*
X191394649Y-116712200D02*
X191489887Y-116759819D01*
X191489887Y-116759819D02*
X191775601Y-116759819D01*
X191775601Y-116759819D02*
X191870839Y-116712200D01*
X191870839Y-116712200D02*
X191918458Y-116664580D01*
X190394649Y-115759819D02*
X190870839Y-115759819D01*
X190870839Y-115759819D02*
X190918458Y-116236009D01*
X190918458Y-116236009D02*
X190870839Y-116188390D01*
X190870839Y-116188390D02*
X190775601Y-116140771D01*
X190775601Y-116140771D02*
X190537506Y-116140771D01*
X190537506Y-116140771D02*
X190442268Y-116188390D01*
X190442268Y-116188390D02*
X190394649Y-116236009D01*
X190394649Y-116236009D02*
X190347030Y-116331247D01*
X190347030Y-116331247D02*
X190347030Y-116569342D01*
X190347030Y-116569342D02*
X190394649Y-116664580D01*
X190394649Y-116664580D02*
X190442268Y-116712200D01*
X190442268Y-116712200D02*
X190537506Y-116759819D01*
X190537506Y-116759819D02*
X190775601Y-116759819D01*
X190775601Y-116759819D02*
X190870839Y-116712200D01*
X190870839Y-116712200D02*
X190918458Y-116664580D01*
X194478458Y-128079819D02*
X193859411Y-128079819D01*
X193859411Y-128079819D02*
X194192744Y-128460771D01*
X194192744Y-128460771D02*
X194049887Y-128460771D01*
X194049887Y-128460771D02*
X193954649Y-128508390D01*
X193954649Y-128508390D02*
X193907030Y-128556009D01*
X193907030Y-128556009D02*
X193859411Y-128651247D01*
X193859411Y-128651247D02*
X193859411Y-128889342D01*
X193859411Y-128889342D02*
X193907030Y-128984580D01*
X193907030Y-128984580D02*
X193954649Y-129032200D01*
X193954649Y-129032200D02*
X194049887Y-129079819D01*
X194049887Y-129079819D02*
X194335601Y-129079819D01*
X194335601Y-129079819D02*
X194430839Y-129032200D01*
X194430839Y-129032200D02*
X194478458Y-128984580D01*
X193240363Y-128079819D02*
X193145125Y-128079819D01*
X193145125Y-128079819D02*
X193049887Y-128127438D01*
X193049887Y-128127438D02*
X193002268Y-128175057D01*
X193002268Y-128175057D02*
X192954649Y-128270295D01*
X192954649Y-128270295D02*
X192907030Y-128460771D01*
X192907030Y-128460771D02*
X192907030Y-128698866D01*
X192907030Y-128698866D02*
X192954649Y-128889342D01*
X192954649Y-128889342D02*
X193002268Y-128984580D01*
X193002268Y-128984580D02*
X193049887Y-129032200D01*
X193049887Y-129032200D02*
X193145125Y-129079819D01*
X193145125Y-129079819D02*
X193240363Y-129079819D01*
X193240363Y-129079819D02*
X193335601Y-129032200D01*
X193335601Y-129032200D02*
X193383220Y-128984580D01*
X193383220Y-128984580D02*
X193430839Y-128889342D01*
X193430839Y-128889342D02*
X193478458Y-128698866D01*
X193478458Y-128698866D02*
X193478458Y-128460771D01*
X193478458Y-128460771D02*
X193430839Y-128270295D01*
X193430839Y-128270295D02*
X193383220Y-128175057D01*
X193383220Y-128175057D02*
X193335601Y-128127438D01*
X193335601Y-128127438D02*
X193240363Y-128079819D01*
X194034649Y-105953152D02*
X194034649Y-106619819D01*
X194272744Y-105572200D02*
X194510839Y-106286485D01*
X194510839Y-106286485D02*
X193891792Y-106286485D01*
X193320363Y-105619819D02*
X193225125Y-105619819D01*
X193225125Y-105619819D02*
X193129887Y-105667438D01*
X193129887Y-105667438D02*
X193082268Y-105715057D01*
X193082268Y-105715057D02*
X193034649Y-105810295D01*
X193034649Y-105810295D02*
X192987030Y-106000771D01*
X192987030Y-106000771D02*
X192987030Y-106238866D01*
X192987030Y-106238866D02*
X193034649Y-106429342D01*
X193034649Y-106429342D02*
X193082268Y-106524580D01*
X193082268Y-106524580D02*
X193129887Y-106572200D01*
X193129887Y-106572200D02*
X193225125Y-106619819D01*
X193225125Y-106619819D02*
X193320363Y-106619819D01*
X193320363Y-106619819D02*
X193415601Y-106572200D01*
X193415601Y-106572200D02*
X193463220Y-106524580D01*
X193463220Y-106524580D02*
X193510839Y-106429342D01*
X193510839Y-106429342D02*
X193558458Y-106238866D01*
X193558458Y-106238866D02*
X193558458Y-106000771D01*
X193558458Y-106000771D02*
X193510839Y-105810295D01*
X193510839Y-105810295D02*
X193463220Y-105715057D01*
X193463220Y-105715057D02*
X193415601Y-105667438D01*
X193415601Y-105667438D02*
X193320363Y-105619819D01*
X153416009Y-106290112D02*
X153463628Y-106432969D01*
X153463628Y-106432969D02*
X153511247Y-106480588D01*
X153511247Y-106480588D02*
X153606485Y-106528207D01*
X153606485Y-106528207D02*
X153749342Y-106528207D01*
X153749342Y-106528207D02*
X153844580Y-106480588D01*
X153844580Y-106480588D02*
X153892200Y-106432969D01*
X153892200Y-106432969D02*
X153939819Y-106337731D01*
X153939819Y-106337731D02*
X153939819Y-105956779D01*
X153939819Y-105956779D02*
X152939819Y-105956779D01*
X152939819Y-105956779D02*
X152939819Y-106290112D01*
X152939819Y-106290112D02*
X152987438Y-106385350D01*
X152987438Y-106385350D02*
X153035057Y-106432969D01*
X153035057Y-106432969D02*
X153130295Y-106480588D01*
X153130295Y-106480588D02*
X153225533Y-106480588D01*
X153225533Y-106480588D02*
X153320771Y-106432969D01*
X153320771Y-106432969D02*
X153368390Y-106385350D01*
X153368390Y-106385350D02*
X153416009Y-106290112D01*
X153416009Y-106290112D02*
X153416009Y-105956779D01*
X152939819Y-107147255D02*
X152939819Y-107337731D01*
X152939819Y-107337731D02*
X152987438Y-107432969D01*
X152987438Y-107432969D02*
X153082676Y-107528207D01*
X153082676Y-107528207D02*
X153273152Y-107575826D01*
X153273152Y-107575826D02*
X153606485Y-107575826D01*
X153606485Y-107575826D02*
X153796961Y-107528207D01*
X153796961Y-107528207D02*
X153892200Y-107432969D01*
X153892200Y-107432969D02*
X153939819Y-107337731D01*
X153939819Y-107337731D02*
X153939819Y-107147255D01*
X153939819Y-107147255D02*
X153892200Y-107052017D01*
X153892200Y-107052017D02*
X153796961Y-106956779D01*
X153796961Y-106956779D02*
X153606485Y-106909160D01*
X153606485Y-106909160D02*
X153273152Y-106909160D01*
X153273152Y-106909160D02*
X153082676Y-106956779D01*
X153082676Y-106956779D02*
X152987438Y-107052017D01*
X152987438Y-107052017D02*
X152939819Y-107147255D01*
X152939819Y-108194874D02*
X152939819Y-108385350D01*
X152939819Y-108385350D02*
X152987438Y-108480588D01*
X152987438Y-108480588D02*
X153082676Y-108575826D01*
X153082676Y-108575826D02*
X153273152Y-108623445D01*
X153273152Y-108623445D02*
X153606485Y-108623445D01*
X153606485Y-108623445D02*
X153796961Y-108575826D01*
X153796961Y-108575826D02*
X153892200Y-108480588D01*
X153892200Y-108480588D02*
X153939819Y-108385350D01*
X153939819Y-108385350D02*
X153939819Y-108194874D01*
X153939819Y-108194874D02*
X153892200Y-108099636D01*
X153892200Y-108099636D02*
X153796961Y-108004398D01*
X153796961Y-108004398D02*
X153606485Y-107956779D01*
X153606485Y-107956779D02*
X153273152Y-107956779D01*
X153273152Y-107956779D02*
X153082676Y-108004398D01*
X153082676Y-108004398D02*
X152987438Y-108099636D01*
X152987438Y-108099636D02*
X152939819Y-108194874D01*
X152939819Y-108909160D02*
X152939819Y-109480588D01*
X153939819Y-109194874D02*
X152939819Y-109194874D01*
X153892200Y-109766303D02*
X153939819Y-109909160D01*
X153939819Y-109909160D02*
X153939819Y-110147255D01*
X153939819Y-110147255D02*
X153892200Y-110242493D01*
X153892200Y-110242493D02*
X153844580Y-110290112D01*
X153844580Y-110290112D02*
X153749342Y-110337731D01*
X153749342Y-110337731D02*
X153654104Y-110337731D01*
X153654104Y-110337731D02*
X153558866Y-110290112D01*
X153558866Y-110290112D02*
X153511247Y-110242493D01*
X153511247Y-110242493D02*
X153463628Y-110147255D01*
X153463628Y-110147255D02*
X153416009Y-109956779D01*
X153416009Y-109956779D02*
X153368390Y-109861541D01*
X153368390Y-109861541D02*
X153320771Y-109813922D01*
X153320771Y-109813922D02*
X153225533Y-109766303D01*
X153225533Y-109766303D02*
X153130295Y-109766303D01*
X153130295Y-109766303D02*
X153035057Y-109813922D01*
X153035057Y-109813922D02*
X152987438Y-109861541D01*
X152987438Y-109861541D02*
X152939819Y-109956779D01*
X152939819Y-109956779D02*
X152939819Y-110194874D01*
X152939819Y-110194874D02*
X152987438Y-110337731D01*
X153416009Y-110766303D02*
X153416009Y-111099636D01*
X153939819Y-111242493D02*
X153939819Y-110766303D01*
X153939819Y-110766303D02*
X152939819Y-110766303D01*
X152939819Y-110766303D02*
X152939819Y-111242493D01*
X153939819Y-112147255D02*
X153939819Y-111671065D01*
X153939819Y-111671065D02*
X152939819Y-111671065D01*
X147029819Y-103228207D02*
X146553628Y-102894874D01*
X147029819Y-102656779D02*
X146029819Y-102656779D01*
X146029819Y-102656779D02*
X146029819Y-103037731D01*
X146029819Y-103037731D02*
X146077438Y-103132969D01*
X146077438Y-103132969D02*
X146125057Y-103180588D01*
X146125057Y-103180588D02*
X146220295Y-103228207D01*
X146220295Y-103228207D02*
X146363152Y-103228207D01*
X146363152Y-103228207D02*
X146458390Y-103180588D01*
X146458390Y-103180588D02*
X146506009Y-103132969D01*
X146506009Y-103132969D02*
X146553628Y-103037731D01*
X146553628Y-103037731D02*
X146553628Y-102656779D01*
X146506009Y-103656779D02*
X146506009Y-103990112D01*
X147029819Y-104132969D02*
X147029819Y-103656779D01*
X147029819Y-103656779D02*
X146029819Y-103656779D01*
X146029819Y-103656779D02*
X146029819Y-104132969D01*
X146982200Y-104513922D02*
X147029819Y-104656779D01*
X147029819Y-104656779D02*
X147029819Y-104894874D01*
X147029819Y-104894874D02*
X146982200Y-104990112D01*
X146982200Y-104990112D02*
X146934580Y-105037731D01*
X146934580Y-105037731D02*
X146839342Y-105085350D01*
X146839342Y-105085350D02*
X146744104Y-105085350D01*
X146744104Y-105085350D02*
X146648866Y-105037731D01*
X146648866Y-105037731D02*
X146601247Y-104990112D01*
X146601247Y-104990112D02*
X146553628Y-104894874D01*
X146553628Y-104894874D02*
X146506009Y-104704398D01*
X146506009Y-104704398D02*
X146458390Y-104609160D01*
X146458390Y-104609160D02*
X146410771Y-104561541D01*
X146410771Y-104561541D02*
X146315533Y-104513922D01*
X146315533Y-104513922D02*
X146220295Y-104513922D01*
X146220295Y-104513922D02*
X146125057Y-104561541D01*
X146125057Y-104561541D02*
X146077438Y-104609160D01*
X146077438Y-104609160D02*
X146029819Y-104704398D01*
X146029819Y-104704398D02*
X146029819Y-104942493D01*
X146029819Y-104942493D02*
X146077438Y-105085350D01*
X146506009Y-105513922D02*
X146506009Y-105847255D01*
X147029819Y-105990112D02*
X147029819Y-105513922D01*
X147029819Y-105513922D02*
X146029819Y-105513922D01*
X146029819Y-105513922D02*
X146029819Y-105990112D01*
X146029819Y-106275827D02*
X146029819Y-106847255D01*
X147029819Y-106561541D02*
X146029819Y-106561541D01*
X157822200Y-106789160D02*
X157869819Y-106932017D01*
X157869819Y-106932017D02*
X157869819Y-107170112D01*
X157869819Y-107170112D02*
X157822200Y-107265350D01*
X157822200Y-107265350D02*
X157774580Y-107312969D01*
X157774580Y-107312969D02*
X157679342Y-107360588D01*
X157679342Y-107360588D02*
X157584104Y-107360588D01*
X157584104Y-107360588D02*
X157488866Y-107312969D01*
X157488866Y-107312969D02*
X157441247Y-107265350D01*
X157441247Y-107265350D02*
X157393628Y-107170112D01*
X157393628Y-107170112D02*
X157346009Y-106979636D01*
X157346009Y-106979636D02*
X157298390Y-106884398D01*
X157298390Y-106884398D02*
X157250771Y-106836779D01*
X157250771Y-106836779D02*
X157155533Y-106789160D01*
X157155533Y-106789160D02*
X157060295Y-106789160D01*
X157060295Y-106789160D02*
X156965057Y-106836779D01*
X156965057Y-106836779D02*
X156917438Y-106884398D01*
X156917438Y-106884398D02*
X156869819Y-106979636D01*
X156869819Y-106979636D02*
X156869819Y-107217731D01*
X156869819Y-107217731D02*
X156917438Y-107360588D01*
X156869819Y-107693922D02*
X157869819Y-107932017D01*
X157869819Y-107932017D02*
X157155533Y-108122493D01*
X157155533Y-108122493D02*
X157869819Y-108312969D01*
X157869819Y-108312969D02*
X156869819Y-108551065D01*
X157774580Y-109503445D02*
X157822200Y-109455826D01*
X157822200Y-109455826D02*
X157869819Y-109312969D01*
X157869819Y-109312969D02*
X157869819Y-109217731D01*
X157869819Y-109217731D02*
X157822200Y-109074874D01*
X157822200Y-109074874D02*
X157726961Y-108979636D01*
X157726961Y-108979636D02*
X157631723Y-108932017D01*
X157631723Y-108932017D02*
X157441247Y-108884398D01*
X157441247Y-108884398D02*
X157298390Y-108884398D01*
X157298390Y-108884398D02*
X157107914Y-108932017D01*
X157107914Y-108932017D02*
X157012676Y-108979636D01*
X157012676Y-108979636D02*
X156917438Y-109074874D01*
X156917438Y-109074874D02*
X156869819Y-109217731D01*
X156869819Y-109217731D02*
X156869819Y-109312969D01*
X156869819Y-109312969D02*
X156917438Y-109455826D01*
X156917438Y-109455826D02*
X156965057Y-109503445D01*
X157869819Y-110408207D02*
X157869819Y-109932017D01*
X157869819Y-109932017D02*
X156869819Y-109932017D01*
X157869819Y-110741541D02*
X156869819Y-110741541D01*
X157869819Y-111312969D02*
X157298390Y-110884398D01*
X156869819Y-111312969D02*
X157441247Y-110741541D01*
X159692200Y-106719160D02*
X159739819Y-106862017D01*
X159739819Y-106862017D02*
X159739819Y-107100112D01*
X159739819Y-107100112D02*
X159692200Y-107195350D01*
X159692200Y-107195350D02*
X159644580Y-107242969D01*
X159644580Y-107242969D02*
X159549342Y-107290588D01*
X159549342Y-107290588D02*
X159454104Y-107290588D01*
X159454104Y-107290588D02*
X159358866Y-107242969D01*
X159358866Y-107242969D02*
X159311247Y-107195350D01*
X159311247Y-107195350D02*
X159263628Y-107100112D01*
X159263628Y-107100112D02*
X159216009Y-106909636D01*
X159216009Y-106909636D02*
X159168390Y-106814398D01*
X159168390Y-106814398D02*
X159120771Y-106766779D01*
X159120771Y-106766779D02*
X159025533Y-106719160D01*
X159025533Y-106719160D02*
X158930295Y-106719160D01*
X158930295Y-106719160D02*
X158835057Y-106766779D01*
X158835057Y-106766779D02*
X158787438Y-106814398D01*
X158787438Y-106814398D02*
X158739819Y-106909636D01*
X158739819Y-106909636D02*
X158739819Y-107147731D01*
X158739819Y-107147731D02*
X158787438Y-107290588D01*
X158739819Y-107623922D02*
X159739819Y-107862017D01*
X159739819Y-107862017D02*
X159025533Y-108052493D01*
X159025533Y-108052493D02*
X159739819Y-108242969D01*
X159739819Y-108242969D02*
X158739819Y-108481065D01*
X159739819Y-108862017D02*
X158739819Y-108862017D01*
X158739819Y-108862017D02*
X158739819Y-109100112D01*
X158739819Y-109100112D02*
X158787438Y-109242969D01*
X158787438Y-109242969D02*
X158882676Y-109338207D01*
X158882676Y-109338207D02*
X158977914Y-109385826D01*
X158977914Y-109385826D02*
X159168390Y-109433445D01*
X159168390Y-109433445D02*
X159311247Y-109433445D01*
X159311247Y-109433445D02*
X159501723Y-109385826D01*
X159501723Y-109385826D02*
X159596961Y-109338207D01*
X159596961Y-109338207D02*
X159692200Y-109242969D01*
X159692200Y-109242969D02*
X159739819Y-109100112D01*
X159739819Y-109100112D02*
X159739819Y-108862017D01*
X159739819Y-109862017D02*
X158739819Y-109862017D01*
X158739819Y-110528683D02*
X158739819Y-110719159D01*
X158739819Y-110719159D02*
X158787438Y-110814397D01*
X158787438Y-110814397D02*
X158882676Y-110909635D01*
X158882676Y-110909635D02*
X159073152Y-110957254D01*
X159073152Y-110957254D02*
X159406485Y-110957254D01*
X159406485Y-110957254D02*
X159596961Y-110909635D01*
X159596961Y-110909635D02*
X159692200Y-110814397D01*
X159692200Y-110814397D02*
X159739819Y-110719159D01*
X159739819Y-110719159D02*
X159739819Y-110528683D01*
X159739819Y-110528683D02*
X159692200Y-110433445D01*
X159692200Y-110433445D02*
X159596961Y-110338207D01*
X159596961Y-110338207D02*
X159406485Y-110290588D01*
X159406485Y-110290588D02*
X159073152Y-110290588D01*
X159073152Y-110290588D02*
X158882676Y-110338207D01*
X158882676Y-110338207D02*
X158787438Y-110433445D01*
X158787438Y-110433445D02*
X158739819Y-110528683D01*
X160749819Y-106786779D02*
X161559342Y-106786779D01*
X161559342Y-106786779D02*
X161654580Y-106834398D01*
X161654580Y-106834398D02*
X161702200Y-106882017D01*
X161702200Y-106882017D02*
X161749819Y-106977255D01*
X161749819Y-106977255D02*
X161749819Y-107167731D01*
X161749819Y-107167731D02*
X161702200Y-107262969D01*
X161702200Y-107262969D02*
X161654580Y-107310588D01*
X161654580Y-107310588D02*
X161559342Y-107358207D01*
X161559342Y-107358207D02*
X160749819Y-107358207D01*
X161702200Y-107786779D02*
X161749819Y-107929636D01*
X161749819Y-107929636D02*
X161749819Y-108167731D01*
X161749819Y-108167731D02*
X161702200Y-108262969D01*
X161702200Y-108262969D02*
X161654580Y-108310588D01*
X161654580Y-108310588D02*
X161559342Y-108358207D01*
X161559342Y-108358207D02*
X161464104Y-108358207D01*
X161464104Y-108358207D02*
X161368866Y-108310588D01*
X161368866Y-108310588D02*
X161321247Y-108262969D01*
X161321247Y-108262969D02*
X161273628Y-108167731D01*
X161273628Y-108167731D02*
X161226009Y-107977255D01*
X161226009Y-107977255D02*
X161178390Y-107882017D01*
X161178390Y-107882017D02*
X161130771Y-107834398D01*
X161130771Y-107834398D02*
X161035533Y-107786779D01*
X161035533Y-107786779D02*
X160940295Y-107786779D01*
X160940295Y-107786779D02*
X160845057Y-107834398D01*
X160845057Y-107834398D02*
X160797438Y-107882017D01*
X160797438Y-107882017D02*
X160749819Y-107977255D01*
X160749819Y-107977255D02*
X160749819Y-108215350D01*
X160749819Y-108215350D02*
X160797438Y-108358207D01*
X161226009Y-109120112D02*
X161273628Y-109262969D01*
X161273628Y-109262969D02*
X161321247Y-109310588D01*
X161321247Y-109310588D02*
X161416485Y-109358207D01*
X161416485Y-109358207D02*
X161559342Y-109358207D01*
X161559342Y-109358207D02*
X161654580Y-109310588D01*
X161654580Y-109310588D02*
X161702200Y-109262969D01*
X161702200Y-109262969D02*
X161749819Y-109167731D01*
X161749819Y-109167731D02*
X161749819Y-108786779D01*
X161749819Y-108786779D02*
X160749819Y-108786779D01*
X160749819Y-108786779D02*
X160749819Y-109120112D01*
X160749819Y-109120112D02*
X160797438Y-109215350D01*
X160797438Y-109215350D02*
X160845057Y-109262969D01*
X160845057Y-109262969D02*
X160940295Y-109310588D01*
X160940295Y-109310588D02*
X161035533Y-109310588D01*
X161035533Y-109310588D02*
X161130771Y-109262969D01*
X161130771Y-109262969D02*
X161178390Y-109215350D01*
X161178390Y-109215350D02*
X161226009Y-109120112D01*
X161226009Y-109120112D02*
X161226009Y-108786779D01*
X161749819Y-110548684D02*
X160749819Y-110548684D01*
X160749819Y-110548684D02*
X160749819Y-110786779D01*
X160749819Y-110786779D02*
X160797438Y-110929636D01*
X160797438Y-110929636D02*
X160892676Y-111024874D01*
X160892676Y-111024874D02*
X160987914Y-111072493D01*
X160987914Y-111072493D02*
X161178390Y-111120112D01*
X161178390Y-111120112D02*
X161321247Y-111120112D01*
X161321247Y-111120112D02*
X161511723Y-111072493D01*
X161511723Y-111072493D02*
X161606961Y-111024874D01*
X161606961Y-111024874D02*
X161702200Y-110929636D01*
X161702200Y-110929636D02*
X161749819Y-110786779D01*
X161749819Y-110786779D02*
X161749819Y-110548684D01*
X161368866Y-111548684D02*
X161368866Y-112310589D01*
X161749819Y-111929636D02*
X160987914Y-111929636D01*
X162939819Y-106836779D02*
X163749342Y-106836779D01*
X163749342Y-106836779D02*
X163844580Y-106884398D01*
X163844580Y-106884398D02*
X163892200Y-106932017D01*
X163892200Y-106932017D02*
X163939819Y-107027255D01*
X163939819Y-107027255D02*
X163939819Y-107217731D01*
X163939819Y-107217731D02*
X163892200Y-107312969D01*
X163892200Y-107312969D02*
X163844580Y-107360588D01*
X163844580Y-107360588D02*
X163749342Y-107408207D01*
X163749342Y-107408207D02*
X162939819Y-107408207D01*
X163892200Y-107836779D02*
X163939819Y-107979636D01*
X163939819Y-107979636D02*
X163939819Y-108217731D01*
X163939819Y-108217731D02*
X163892200Y-108312969D01*
X163892200Y-108312969D02*
X163844580Y-108360588D01*
X163844580Y-108360588D02*
X163749342Y-108408207D01*
X163749342Y-108408207D02*
X163654104Y-108408207D01*
X163654104Y-108408207D02*
X163558866Y-108360588D01*
X163558866Y-108360588D02*
X163511247Y-108312969D01*
X163511247Y-108312969D02*
X163463628Y-108217731D01*
X163463628Y-108217731D02*
X163416009Y-108027255D01*
X163416009Y-108027255D02*
X163368390Y-107932017D01*
X163368390Y-107932017D02*
X163320771Y-107884398D01*
X163320771Y-107884398D02*
X163225533Y-107836779D01*
X163225533Y-107836779D02*
X163130295Y-107836779D01*
X163130295Y-107836779D02*
X163035057Y-107884398D01*
X163035057Y-107884398D02*
X162987438Y-107932017D01*
X162987438Y-107932017D02*
X162939819Y-108027255D01*
X162939819Y-108027255D02*
X162939819Y-108265350D01*
X162939819Y-108265350D02*
X162987438Y-108408207D01*
X163416009Y-109170112D02*
X163463628Y-109312969D01*
X163463628Y-109312969D02*
X163511247Y-109360588D01*
X163511247Y-109360588D02*
X163606485Y-109408207D01*
X163606485Y-109408207D02*
X163749342Y-109408207D01*
X163749342Y-109408207D02*
X163844580Y-109360588D01*
X163844580Y-109360588D02*
X163892200Y-109312969D01*
X163892200Y-109312969D02*
X163939819Y-109217731D01*
X163939819Y-109217731D02*
X163939819Y-108836779D01*
X163939819Y-108836779D02*
X162939819Y-108836779D01*
X162939819Y-108836779D02*
X162939819Y-109170112D01*
X162939819Y-109170112D02*
X162987438Y-109265350D01*
X162987438Y-109265350D02*
X163035057Y-109312969D01*
X163035057Y-109312969D02*
X163130295Y-109360588D01*
X163130295Y-109360588D02*
X163225533Y-109360588D01*
X163225533Y-109360588D02*
X163320771Y-109312969D01*
X163320771Y-109312969D02*
X163368390Y-109265350D01*
X163368390Y-109265350D02*
X163416009Y-109170112D01*
X163416009Y-109170112D02*
X163416009Y-108836779D01*
X163939819Y-110598684D02*
X162939819Y-110598684D01*
X162939819Y-110598684D02*
X162939819Y-110836779D01*
X162939819Y-110836779D02*
X162987438Y-110979636D01*
X162987438Y-110979636D02*
X163082676Y-111074874D01*
X163082676Y-111074874D02*
X163177914Y-111122493D01*
X163177914Y-111122493D02*
X163368390Y-111170112D01*
X163368390Y-111170112D02*
X163511247Y-111170112D01*
X163511247Y-111170112D02*
X163701723Y-111122493D01*
X163701723Y-111122493D02*
X163796961Y-111074874D01*
X163796961Y-111074874D02*
X163892200Y-110979636D01*
X163892200Y-110979636D02*
X163939819Y-110836779D01*
X163939819Y-110836779D02*
X163939819Y-110598684D01*
X163558866Y-111598684D02*
X163558866Y-112360589D01*
X165519819Y-107542969D02*
X165519819Y-107066779D01*
X165519819Y-107066779D02*
X165996009Y-107019160D01*
X165996009Y-107019160D02*
X165948390Y-107066779D01*
X165948390Y-107066779D02*
X165900771Y-107162017D01*
X165900771Y-107162017D02*
X165900771Y-107400112D01*
X165900771Y-107400112D02*
X165948390Y-107495350D01*
X165948390Y-107495350D02*
X165996009Y-107542969D01*
X165996009Y-107542969D02*
X166091247Y-107590588D01*
X166091247Y-107590588D02*
X166329342Y-107590588D01*
X166329342Y-107590588D02*
X166424580Y-107542969D01*
X166424580Y-107542969D02*
X166472200Y-107495350D01*
X166472200Y-107495350D02*
X166519819Y-107400112D01*
X166519819Y-107400112D02*
X166519819Y-107162017D01*
X166519819Y-107162017D02*
X166472200Y-107066779D01*
X166472200Y-107066779D02*
X166424580Y-107019160D01*
X165519819Y-107876303D02*
X166519819Y-108209636D01*
X166519819Y-108209636D02*
X165519819Y-108542969D01*
X169349819Y-106273922D02*
X170349819Y-106607255D01*
X170349819Y-106607255D02*
X169349819Y-106940588D01*
X169826009Y-107607255D02*
X169873628Y-107750112D01*
X169873628Y-107750112D02*
X169921247Y-107797731D01*
X169921247Y-107797731D02*
X170016485Y-107845350D01*
X170016485Y-107845350D02*
X170159342Y-107845350D01*
X170159342Y-107845350D02*
X170254580Y-107797731D01*
X170254580Y-107797731D02*
X170302200Y-107750112D01*
X170302200Y-107750112D02*
X170349819Y-107654874D01*
X170349819Y-107654874D02*
X170349819Y-107273922D01*
X170349819Y-107273922D02*
X169349819Y-107273922D01*
X169349819Y-107273922D02*
X169349819Y-107607255D01*
X169349819Y-107607255D02*
X169397438Y-107702493D01*
X169397438Y-107702493D02*
X169445057Y-107750112D01*
X169445057Y-107750112D02*
X169540295Y-107797731D01*
X169540295Y-107797731D02*
X169635533Y-107797731D01*
X169635533Y-107797731D02*
X169730771Y-107750112D01*
X169730771Y-107750112D02*
X169778390Y-107702493D01*
X169778390Y-107702493D02*
X169826009Y-107607255D01*
X169826009Y-107607255D02*
X169826009Y-107273922D01*
X170064104Y-108226303D02*
X170064104Y-108702493D01*
X170349819Y-108131065D02*
X169349819Y-108464398D01*
X169349819Y-108464398D02*
X170349819Y-108797731D01*
X169349819Y-108988208D02*
X169349819Y-109559636D01*
X170349819Y-109273922D02*
X169349819Y-109273922D01*
X173819819Y-106572969D02*
X173819819Y-106096779D01*
X173819819Y-106096779D02*
X172819819Y-106096779D01*
X173819819Y-106906303D02*
X172819819Y-106906303D01*
X172819819Y-106906303D02*
X172819819Y-107144398D01*
X172819819Y-107144398D02*
X172867438Y-107287255D01*
X172867438Y-107287255D02*
X172962676Y-107382493D01*
X172962676Y-107382493D02*
X173057914Y-107430112D01*
X173057914Y-107430112D02*
X173248390Y-107477731D01*
X173248390Y-107477731D02*
X173391247Y-107477731D01*
X173391247Y-107477731D02*
X173581723Y-107430112D01*
X173581723Y-107430112D02*
X173676961Y-107382493D01*
X173676961Y-107382493D02*
X173772200Y-107287255D01*
X173772200Y-107287255D02*
X173819819Y-107144398D01*
X173819819Y-107144398D02*
X173819819Y-106906303D01*
X172819819Y-108096779D02*
X172819819Y-108287255D01*
X172819819Y-108287255D02*
X172867438Y-108382493D01*
X172867438Y-108382493D02*
X172962676Y-108477731D01*
X172962676Y-108477731D02*
X173153152Y-108525350D01*
X173153152Y-108525350D02*
X173486485Y-108525350D01*
X173486485Y-108525350D02*
X173676961Y-108477731D01*
X173676961Y-108477731D02*
X173772200Y-108382493D01*
X173772200Y-108382493D02*
X173819819Y-108287255D01*
X173819819Y-108287255D02*
X173819819Y-108096779D01*
X173819819Y-108096779D02*
X173772200Y-108001541D01*
X173772200Y-108001541D02*
X173676961Y-107906303D01*
X173676961Y-107906303D02*
X173486485Y-107858684D01*
X173486485Y-107858684D02*
X173153152Y-107858684D01*
X173153152Y-107858684D02*
X172962676Y-107906303D01*
X172962676Y-107906303D02*
X172867438Y-108001541D01*
X172867438Y-108001541D02*
X172819819Y-108096779D01*
X173296009Y-109715827D02*
X173296009Y-110049160D01*
X173819819Y-110192017D02*
X173819819Y-109715827D01*
X173819819Y-109715827D02*
X172819819Y-109715827D01*
X172819819Y-109715827D02*
X172819819Y-110192017D01*
X173819819Y-110620589D02*
X172819819Y-110620589D01*
X172819819Y-110620589D02*
X173819819Y-111192017D01*
X173819819Y-111192017D02*
X172819819Y-111192017D01*
X176176009Y-106730112D02*
X176223628Y-106872969D01*
X176223628Y-106872969D02*
X176271247Y-106920588D01*
X176271247Y-106920588D02*
X176366485Y-106968207D01*
X176366485Y-106968207D02*
X176509342Y-106968207D01*
X176509342Y-106968207D02*
X176604580Y-106920588D01*
X176604580Y-106920588D02*
X176652200Y-106872969D01*
X176652200Y-106872969D02*
X176699819Y-106777731D01*
X176699819Y-106777731D02*
X176699819Y-106396779D01*
X176699819Y-106396779D02*
X175699819Y-106396779D01*
X175699819Y-106396779D02*
X175699819Y-106730112D01*
X175699819Y-106730112D02*
X175747438Y-106825350D01*
X175747438Y-106825350D02*
X175795057Y-106872969D01*
X175795057Y-106872969D02*
X175890295Y-106920588D01*
X175890295Y-106920588D02*
X175985533Y-106920588D01*
X175985533Y-106920588D02*
X176080771Y-106872969D01*
X176080771Y-106872969D02*
X176128390Y-106825350D01*
X176128390Y-106825350D02*
X176176009Y-106730112D01*
X176176009Y-106730112D02*
X176176009Y-106396779D01*
X176414104Y-107349160D02*
X176414104Y-107825350D01*
X176699819Y-107253922D02*
X175699819Y-107587255D01*
X175699819Y-107587255D02*
X176699819Y-107920588D01*
X175699819Y-108111065D02*
X175699819Y-108682493D01*
X176699819Y-108396779D02*
X175699819Y-108396779D01*
X176652200Y-109730113D02*
X176699819Y-109872970D01*
X176699819Y-109872970D02*
X176699819Y-110111065D01*
X176699819Y-110111065D02*
X176652200Y-110206303D01*
X176652200Y-110206303D02*
X176604580Y-110253922D01*
X176604580Y-110253922D02*
X176509342Y-110301541D01*
X176509342Y-110301541D02*
X176414104Y-110301541D01*
X176414104Y-110301541D02*
X176318866Y-110253922D01*
X176318866Y-110253922D02*
X176271247Y-110206303D01*
X176271247Y-110206303D02*
X176223628Y-110111065D01*
X176223628Y-110111065D02*
X176176009Y-109920589D01*
X176176009Y-109920589D02*
X176128390Y-109825351D01*
X176128390Y-109825351D02*
X176080771Y-109777732D01*
X176080771Y-109777732D02*
X175985533Y-109730113D01*
X175985533Y-109730113D02*
X175890295Y-109730113D01*
X175890295Y-109730113D02*
X175795057Y-109777732D01*
X175795057Y-109777732D02*
X175747438Y-109825351D01*
X175747438Y-109825351D02*
X175699819Y-109920589D01*
X175699819Y-109920589D02*
X175699819Y-110158684D01*
X175699819Y-110158684D02*
X175747438Y-110301541D01*
X175699819Y-110587256D02*
X175699819Y-111158684D01*
X176699819Y-110872970D02*
X175699819Y-110872970D01*
X176414104Y-111444399D02*
X176414104Y-111920589D01*
X176699819Y-111349161D02*
X175699819Y-111682494D01*
X175699819Y-111682494D02*
X176699819Y-112015827D01*
X175699819Y-112206304D02*
X175699819Y-112777732D01*
X176699819Y-112492018D02*
X175699819Y-112492018D01*
%TO.C,JP1*%
D11*
X179042499Y-113550000D02*
X179042499Y-112950000D01*
X179742499Y-112250000D02*
X181142499Y-112250000D01*
X181142499Y-114250000D02*
X179742499Y-114250000D01*
X181842499Y-112950000D02*
X181842499Y-113550000D01*
X179042499Y-112950000D02*
G75*
G02*
X179742499Y-112250000I699999J1D01*
G01*
X179742499Y-114250000D02*
G75*
G02*
X179042499Y-113550000I-1J699999D01*
G01*
X181142499Y-112250000D02*
G75*
G02*
X181842499Y-112950000I0J-700000D01*
G01*
X181842499Y-113550000D02*
G75*
G02*
X181142499Y-114250000I-700000J0D01*
G01*
%TD*%
M02*
