%TF.GenerationSoftware,KiCad,Pcbnew,10.0.5*%
%TF.CreationDate,2026-08-21T00:00:12+05:30*%
%TF.ProjectId,microboy,6d696372-6f62-46f7-992e-6b696361645f,rev?*%
%TF.SameCoordinates,Original*%
%TF.FileFunction,AssemblyDrawing,Top*%
%FSLAX46Y46*%
G04 Gerber Fmt 4.6, Leading zero omitted, Abs format (unit mm)*
G04 Created by KiCad (PCBNEW 10.0.5) date 2026-08-21 00:00:12*
%MOMM*%
%LPD*%
G01*
G04 APERTURE LIST*
%ADD10C,0.150000*%
%ADD11C,0.120000*%
%ADD12C,0.060000*%
%ADD13C,0.100000*%
G04 APERTURE END LIST*
D10*
X195524819Y-113949523D02*
X196239104Y-113949523D01*
X196239104Y-113949523D02*
X196381961Y-113997142D01*
X196381961Y-113997142D02*
X196477200Y-114092380D01*
X196477200Y-114092380D02*
X196524819Y-114235237D01*
X196524819Y-114235237D02*
X196524819Y-114330475D01*
X196524819Y-112949523D02*
X196524819Y-113520951D01*
X196524819Y-113235237D02*
X195524819Y-113235237D01*
X195524819Y-113235237D02*
X195667676Y-113330475D01*
X195667676Y-113330475D02*
X195762914Y-113425713D01*
X195762914Y-113425713D02*
X195810533Y-113520951D01*
X195524819Y-112330475D02*
X195524819Y-112235237D01*
X195524819Y-112235237D02*
X195572438Y-112139999D01*
X195572438Y-112139999D02*
X195620057Y-112092380D01*
X195620057Y-112092380D02*
X195715295Y-112044761D01*
X195715295Y-112044761D02*
X195905771Y-111997142D01*
X195905771Y-111997142D02*
X196143866Y-111997142D01*
X196143866Y-111997142D02*
X196334342Y-112044761D01*
X196334342Y-112044761D02*
X196429580Y-112092380D01*
X196429580Y-112092380D02*
X196477200Y-112139999D01*
X196477200Y-112139999D02*
X196524819Y-112235237D01*
X196524819Y-112235237D02*
X196524819Y-112330475D01*
X196524819Y-112330475D02*
X196477200Y-112425713D01*
X196477200Y-112425713D02*
X196429580Y-112473332D01*
X196429580Y-112473332D02*
X196334342Y-112520951D01*
X196334342Y-112520951D02*
X196143866Y-112568570D01*
X196143866Y-112568570D02*
X195905771Y-112568570D01*
X195905771Y-112568570D02*
X195715295Y-112520951D01*
X195715295Y-112520951D02*
X195620057Y-112473332D01*
X195620057Y-112473332D02*
X195572438Y-112425713D01*
X195572438Y-112425713D02*
X195524819Y-112330475D01*
X196024819Y-114549766D02*
X196024819Y-111772142D01*
D11*
X184593332Y-84093855D02*
X184212380Y-84093855D01*
X184212380Y-84093855D02*
X184212380Y-83293855D01*
X185317142Y-84017664D02*
X185279046Y-84055760D01*
X185279046Y-84055760D02*
X185164761Y-84093855D01*
X185164761Y-84093855D02*
X185088570Y-84093855D01*
X185088570Y-84093855D02*
X184974284Y-84055760D01*
X184974284Y-84055760D02*
X184898094Y-83979569D01*
X184898094Y-83979569D02*
X184859999Y-83903379D01*
X184859999Y-83903379D02*
X184821903Y-83750998D01*
X184821903Y-83750998D02*
X184821903Y-83636712D01*
X184821903Y-83636712D02*
X184859999Y-83484331D01*
X184859999Y-83484331D02*
X184898094Y-83408140D01*
X184898094Y-83408140D02*
X184974284Y-83331950D01*
X184974284Y-83331950D02*
X185088570Y-83293855D01*
X185088570Y-83293855D02*
X185164761Y-83293855D01*
X185164761Y-83293855D02*
X185279046Y-83331950D01*
X185279046Y-83331950D02*
X185317142Y-83370045D01*
X185659999Y-84093855D02*
X185659999Y-83293855D01*
X185659999Y-83293855D02*
X185850475Y-83293855D01*
X185850475Y-83293855D02*
X185964761Y-83331950D01*
X185964761Y-83331950D02*
X186040951Y-83408140D01*
X186040951Y-83408140D02*
X186079046Y-83484331D01*
X186079046Y-83484331D02*
X186117142Y-83636712D01*
X186117142Y-83636712D02*
X186117142Y-83750998D01*
X186117142Y-83750998D02*
X186079046Y-83903379D01*
X186079046Y-83903379D02*
X186040951Y-83979569D01*
X186040951Y-83979569D02*
X185964761Y-84055760D01*
X185964761Y-84055760D02*
X185850475Y-84093855D01*
X185850475Y-84093855D02*
X185659999Y-84093855D01*
X186269523Y-84170045D02*
X186879046Y-84170045D01*
X187031427Y-84055760D02*
X187145713Y-84093855D01*
X187145713Y-84093855D02*
X187336189Y-84093855D01*
X187336189Y-84093855D02*
X187412380Y-84055760D01*
X187412380Y-84055760D02*
X187450475Y-84017664D01*
X187450475Y-84017664D02*
X187488570Y-83941474D01*
X187488570Y-83941474D02*
X187488570Y-83865283D01*
X187488570Y-83865283D02*
X187450475Y-83789093D01*
X187450475Y-83789093D02*
X187412380Y-83750998D01*
X187412380Y-83750998D02*
X187336189Y-83712902D01*
X187336189Y-83712902D02*
X187183808Y-83674807D01*
X187183808Y-83674807D02*
X187107618Y-83636712D01*
X187107618Y-83636712D02*
X187069523Y-83598617D01*
X187069523Y-83598617D02*
X187031427Y-83522426D01*
X187031427Y-83522426D02*
X187031427Y-83446236D01*
X187031427Y-83446236D02*
X187069523Y-83370045D01*
X187069523Y-83370045D02*
X187107618Y-83331950D01*
X187107618Y-83331950D02*
X187183808Y-83293855D01*
X187183808Y-83293855D02*
X187374285Y-83293855D01*
X187374285Y-83293855D02*
X187488570Y-83331950D01*
X187717142Y-83293855D02*
X188174285Y-83293855D01*
X187945713Y-84093855D02*
X187945713Y-83293855D01*
X188364761Y-83293855D02*
X188898095Y-83293855D01*
X188898095Y-83293855D02*
X188555237Y-84093855D01*
X189126666Y-83293855D02*
X189660000Y-83293855D01*
X189660000Y-83293855D02*
X189317142Y-84093855D01*
X190079047Y-83636712D02*
X190002857Y-83598617D01*
X190002857Y-83598617D02*
X189964762Y-83560521D01*
X189964762Y-83560521D02*
X189926666Y-83484331D01*
X189926666Y-83484331D02*
X189926666Y-83446236D01*
X189926666Y-83446236D02*
X189964762Y-83370045D01*
X189964762Y-83370045D02*
X190002857Y-83331950D01*
X190002857Y-83331950D02*
X190079047Y-83293855D01*
X190079047Y-83293855D02*
X190231428Y-83293855D01*
X190231428Y-83293855D02*
X190307619Y-83331950D01*
X190307619Y-83331950D02*
X190345714Y-83370045D01*
X190345714Y-83370045D02*
X190383809Y-83446236D01*
X190383809Y-83446236D02*
X190383809Y-83484331D01*
X190383809Y-83484331D02*
X190345714Y-83560521D01*
X190345714Y-83560521D02*
X190307619Y-83598617D01*
X190307619Y-83598617D02*
X190231428Y-83636712D01*
X190231428Y-83636712D02*
X190079047Y-83636712D01*
X190079047Y-83636712D02*
X190002857Y-83674807D01*
X190002857Y-83674807D02*
X189964762Y-83712902D01*
X189964762Y-83712902D02*
X189926666Y-83789093D01*
X189926666Y-83789093D02*
X189926666Y-83941474D01*
X189926666Y-83941474D02*
X189964762Y-84017664D01*
X189964762Y-84017664D02*
X190002857Y-84055760D01*
X190002857Y-84055760D02*
X190079047Y-84093855D01*
X190079047Y-84093855D02*
X190231428Y-84093855D01*
X190231428Y-84093855D02*
X190307619Y-84055760D01*
X190307619Y-84055760D02*
X190345714Y-84017664D01*
X190345714Y-84017664D02*
X190383809Y-83941474D01*
X190383809Y-83941474D02*
X190383809Y-83789093D01*
X190383809Y-83789093D02*
X190345714Y-83712902D01*
X190345714Y-83712902D02*
X190307619Y-83674807D01*
X190307619Y-83674807D02*
X190231428Y-83636712D01*
X190764762Y-84093855D02*
X190917143Y-84093855D01*
X190917143Y-84093855D02*
X190993333Y-84055760D01*
X190993333Y-84055760D02*
X191031429Y-84017664D01*
X191031429Y-84017664D02*
X191107619Y-83903379D01*
X191107619Y-83903379D02*
X191145714Y-83750998D01*
X191145714Y-83750998D02*
X191145714Y-83446236D01*
X191145714Y-83446236D02*
X191107619Y-83370045D01*
X191107619Y-83370045D02*
X191069524Y-83331950D01*
X191069524Y-83331950D02*
X190993333Y-83293855D01*
X190993333Y-83293855D02*
X190840952Y-83293855D01*
X190840952Y-83293855D02*
X190764762Y-83331950D01*
X190764762Y-83331950D02*
X190726667Y-83370045D01*
X190726667Y-83370045D02*
X190688571Y-83446236D01*
X190688571Y-83446236D02*
X190688571Y-83636712D01*
X190688571Y-83636712D02*
X190726667Y-83712902D01*
X190726667Y-83712902D02*
X190764762Y-83750998D01*
X190764762Y-83750998D02*
X190840952Y-83789093D01*
X190840952Y-83789093D02*
X190993333Y-83789093D01*
X190993333Y-83789093D02*
X191069524Y-83750998D01*
X191069524Y-83750998D02*
X191107619Y-83712902D01*
X191107619Y-83712902D02*
X191145714Y-83636712D01*
D10*
X164915238Y-111608152D02*
X164915238Y-112274819D01*
X164677143Y-111227200D02*
X164439048Y-111941485D01*
X164439048Y-111941485D02*
X165058095Y-111941485D01*
X165439048Y-112179580D02*
X165486667Y-112227200D01*
X165486667Y-112227200D02*
X165439048Y-112274819D01*
X165439048Y-112274819D02*
X165391429Y-112227200D01*
X165391429Y-112227200D02*
X165439048Y-112179580D01*
X165439048Y-112179580D02*
X165439048Y-112274819D01*
X165820000Y-111274819D02*
X166486666Y-111274819D01*
X166486666Y-111274819D02*
X166058095Y-112274819D01*
X167296190Y-111608152D02*
X167296190Y-112274819D01*
X166867619Y-111608152D02*
X166867619Y-112131961D01*
X166867619Y-112131961D02*
X166915238Y-112227200D01*
X166915238Y-112227200D02*
X167010476Y-112274819D01*
X167010476Y-112274819D02*
X167153333Y-112274819D01*
X167153333Y-112274819D02*
X167248571Y-112227200D01*
X167248571Y-112227200D02*
X167296190Y-112179580D01*
X168105714Y-111751009D02*
X167772381Y-111751009D01*
X167772381Y-112274819D02*
X167772381Y-111274819D01*
X167772381Y-111274819D02*
X168248571Y-111274819D01*
D12*
X165617857Y-110843832D02*
X165598809Y-110862880D01*
X165598809Y-110862880D02*
X165541667Y-110881927D01*
X165541667Y-110881927D02*
X165503571Y-110881927D01*
X165503571Y-110881927D02*
X165446428Y-110862880D01*
X165446428Y-110862880D02*
X165408333Y-110824784D01*
X165408333Y-110824784D02*
X165389286Y-110786689D01*
X165389286Y-110786689D02*
X165370238Y-110710499D01*
X165370238Y-110710499D02*
X165370238Y-110653356D01*
X165370238Y-110653356D02*
X165389286Y-110577165D01*
X165389286Y-110577165D02*
X165408333Y-110539070D01*
X165408333Y-110539070D02*
X165446428Y-110500975D01*
X165446428Y-110500975D02*
X165503571Y-110481927D01*
X165503571Y-110481927D02*
X165541667Y-110481927D01*
X165541667Y-110481927D02*
X165598809Y-110500975D01*
X165598809Y-110500975D02*
X165617857Y-110520022D01*
X165998809Y-110881927D02*
X165770238Y-110881927D01*
X165884524Y-110881927D02*
X165884524Y-110481927D01*
X165884524Y-110481927D02*
X165846428Y-110539070D01*
X165846428Y-110539070D02*
X165808333Y-110577165D01*
X165808333Y-110577165D02*
X165770238Y-110596213D01*
X166151190Y-110520022D02*
X166170238Y-110500975D01*
X166170238Y-110500975D02*
X166208333Y-110481927D01*
X166208333Y-110481927D02*
X166303571Y-110481927D01*
X166303571Y-110481927D02*
X166341666Y-110500975D01*
X166341666Y-110500975D02*
X166360714Y-110520022D01*
X166360714Y-110520022D02*
X166379761Y-110558118D01*
X166379761Y-110558118D02*
X166379761Y-110596213D01*
X166379761Y-110596213D02*
X166360714Y-110653356D01*
X166360714Y-110653356D02*
X166132142Y-110881927D01*
X166132142Y-110881927D02*
X166379761Y-110881927D01*
D10*
X161613095Y-109050057D02*
X161660714Y-109002438D01*
X161660714Y-109002438D02*
X161755952Y-108954819D01*
X161755952Y-108954819D02*
X161994047Y-108954819D01*
X161994047Y-108954819D02*
X162089285Y-109002438D01*
X162089285Y-109002438D02*
X162136904Y-109050057D01*
X162136904Y-109050057D02*
X162184523Y-109145295D01*
X162184523Y-109145295D02*
X162184523Y-109240533D01*
X162184523Y-109240533D02*
X162136904Y-109383390D01*
X162136904Y-109383390D02*
X161565476Y-109954819D01*
X161565476Y-109954819D02*
X162184523Y-109954819D01*
X162517857Y-108954819D02*
X163184523Y-108954819D01*
X163184523Y-108954819D02*
X162755952Y-109954819D01*
X164136904Y-109954819D02*
X163803571Y-109478628D01*
X163565476Y-109954819D02*
X163565476Y-108954819D01*
X163565476Y-108954819D02*
X163946428Y-108954819D01*
X163946428Y-108954819D02*
X164041666Y-109002438D01*
X164041666Y-109002438D02*
X164089285Y-109050057D01*
X164089285Y-109050057D02*
X164136904Y-109145295D01*
X164136904Y-109145295D02*
X164136904Y-109288152D01*
X164136904Y-109288152D02*
X164089285Y-109383390D01*
X164089285Y-109383390D02*
X164041666Y-109431009D01*
X164041666Y-109431009D02*
X163946428Y-109478628D01*
X163946428Y-109478628D02*
X163565476Y-109478628D01*
D12*
X162617857Y-110881927D02*
X162484524Y-110691451D01*
X162389286Y-110881927D02*
X162389286Y-110481927D01*
X162389286Y-110481927D02*
X162541667Y-110481927D01*
X162541667Y-110481927D02*
X162579762Y-110500975D01*
X162579762Y-110500975D02*
X162598809Y-110520022D01*
X162598809Y-110520022D02*
X162617857Y-110558118D01*
X162617857Y-110558118D02*
X162617857Y-110615260D01*
X162617857Y-110615260D02*
X162598809Y-110653356D01*
X162598809Y-110653356D02*
X162579762Y-110672403D01*
X162579762Y-110672403D02*
X162541667Y-110691451D01*
X162541667Y-110691451D02*
X162389286Y-110691451D01*
X162998809Y-110881927D02*
X162770238Y-110881927D01*
X162884524Y-110881927D02*
X162884524Y-110481927D01*
X162884524Y-110481927D02*
X162846428Y-110539070D01*
X162846428Y-110539070D02*
X162808333Y-110577165D01*
X162808333Y-110577165D02*
X162770238Y-110596213D01*
X163379761Y-110881927D02*
X163151190Y-110881927D01*
X163265476Y-110881927D02*
X163265476Y-110481927D01*
X163265476Y-110481927D02*
X163227380Y-110539070D01*
X163227380Y-110539070D02*
X163189285Y-110577165D01*
X163189285Y-110577165D02*
X163151190Y-110596213D01*
D11*
X161391905Y-128903855D02*
X161391905Y-128103855D01*
X161734761Y-128180045D02*
X161772857Y-128141950D01*
X161772857Y-128141950D02*
X161849047Y-128103855D01*
X161849047Y-128103855D02*
X162039523Y-128103855D01*
X162039523Y-128103855D02*
X162115714Y-128141950D01*
X162115714Y-128141950D02*
X162153809Y-128180045D01*
X162153809Y-128180045D02*
X162191904Y-128256236D01*
X162191904Y-128256236D02*
X162191904Y-128332426D01*
X162191904Y-128332426D02*
X162153809Y-128446712D01*
X162153809Y-128446712D02*
X161696666Y-128903855D01*
X161696666Y-128903855D02*
X162191904Y-128903855D01*
X162496666Y-128865760D02*
X162610952Y-128903855D01*
X162610952Y-128903855D02*
X162801428Y-128903855D01*
X162801428Y-128903855D02*
X162877619Y-128865760D01*
X162877619Y-128865760D02*
X162915714Y-128827664D01*
X162915714Y-128827664D02*
X162953809Y-128751474D01*
X162953809Y-128751474D02*
X162953809Y-128675283D01*
X162953809Y-128675283D02*
X162915714Y-128599093D01*
X162915714Y-128599093D02*
X162877619Y-128560998D01*
X162877619Y-128560998D02*
X162801428Y-128522902D01*
X162801428Y-128522902D02*
X162649047Y-128484807D01*
X162649047Y-128484807D02*
X162572857Y-128446712D01*
X162572857Y-128446712D02*
X162534762Y-128408617D01*
X162534762Y-128408617D02*
X162496666Y-128332426D01*
X162496666Y-128332426D02*
X162496666Y-128256236D01*
X162496666Y-128256236D02*
X162534762Y-128180045D01*
X162534762Y-128180045D02*
X162572857Y-128141950D01*
X162572857Y-128141950D02*
X162649047Y-128103855D01*
X162649047Y-128103855D02*
X162839524Y-128103855D01*
X162839524Y-128103855D02*
X162953809Y-128141950D01*
X163106191Y-128980045D02*
X163715714Y-128980045D01*
X163868095Y-128675283D02*
X164249048Y-128675283D01*
X163791905Y-128903855D02*
X164058572Y-128103855D01*
X164058572Y-128103855D02*
X164325238Y-128903855D01*
X164591905Y-128103855D02*
X164591905Y-128751474D01*
X164591905Y-128751474D02*
X164630000Y-128827664D01*
X164630000Y-128827664D02*
X164668095Y-128865760D01*
X164668095Y-128865760D02*
X164744286Y-128903855D01*
X164744286Y-128903855D02*
X164896667Y-128903855D01*
X164896667Y-128903855D02*
X164972857Y-128865760D01*
X164972857Y-128865760D02*
X165010952Y-128827664D01*
X165010952Y-128827664D02*
X165049048Y-128751474D01*
X165049048Y-128751474D02*
X165049048Y-128103855D01*
X165430000Y-128903855D02*
X165430000Y-128103855D01*
X165430000Y-128103855D02*
X165620476Y-128103855D01*
X165620476Y-128103855D02*
X165734762Y-128141950D01*
X165734762Y-128141950D02*
X165810952Y-128218140D01*
X165810952Y-128218140D02*
X165849047Y-128294331D01*
X165849047Y-128294331D02*
X165887143Y-128446712D01*
X165887143Y-128446712D02*
X165887143Y-128560998D01*
X165887143Y-128560998D02*
X165849047Y-128713379D01*
X165849047Y-128713379D02*
X165810952Y-128789569D01*
X165810952Y-128789569D02*
X165734762Y-128865760D01*
X165734762Y-128865760D02*
X165620476Y-128903855D01*
X165620476Y-128903855D02*
X165430000Y-128903855D01*
X166230000Y-128903855D02*
X166230000Y-128103855D01*
X166763333Y-128103855D02*
X166915714Y-128103855D01*
X166915714Y-128103855D02*
X166991904Y-128141950D01*
X166991904Y-128141950D02*
X167068095Y-128218140D01*
X167068095Y-128218140D02*
X167106190Y-128370521D01*
X167106190Y-128370521D02*
X167106190Y-128637188D01*
X167106190Y-128637188D02*
X167068095Y-128789569D01*
X167068095Y-128789569D02*
X166991904Y-128865760D01*
X166991904Y-128865760D02*
X166915714Y-128903855D01*
X166915714Y-128903855D02*
X166763333Y-128903855D01*
X166763333Y-128903855D02*
X166687142Y-128865760D01*
X166687142Y-128865760D02*
X166610952Y-128789569D01*
X166610952Y-128789569D02*
X166572856Y-128637188D01*
X166572856Y-128637188D02*
X166572856Y-128370521D01*
X166572856Y-128370521D02*
X166610952Y-128218140D01*
X166610952Y-128218140D02*
X166687142Y-128141950D01*
X166687142Y-128141950D02*
X166763333Y-128103855D01*
%TO.C,J19*%
D13*
X177480000Y-104655000D02*
X175380000Y-104655000D01*
X177480000Y-103385000D02*
X177480000Y-104655000D01*
X175905000Y-103385000D02*
X177480000Y-103385000D01*
X175380000Y-104655000D02*
X175380000Y-103910000D01*
X175380000Y-103910000D02*
X175905000Y-103385000D01*
%TO.C,J20*%
X148230000Y-104220000D02*
X148755000Y-103695000D01*
X148230000Y-104965000D02*
X148230000Y-104220000D01*
X148755000Y-103695000D02*
X150330000Y-103695000D01*
X150330000Y-103695000D02*
X150330000Y-104965000D01*
X150330000Y-104965000D02*
X148230000Y-104965000D01*
%TO.C,J10*%
X197120000Y-113775000D02*
X195020000Y-113775000D01*
X197120000Y-112505000D02*
X197120000Y-113775000D01*
X195545000Y-112505000D02*
X197120000Y-112505000D01*
X195020000Y-113775000D02*
X195020000Y-113030000D01*
X195020000Y-113030000D02*
X195545000Y-112505000D01*
%TO.C,J15*%
X172230000Y-104030000D02*
X172755000Y-103505000D01*
X172230000Y-104775000D02*
X172230000Y-104030000D01*
X172755000Y-103505000D02*
X174330000Y-103505000D01*
X174330000Y-103505000D02*
X174330000Y-104775000D01*
X174330000Y-104775000D02*
X172230000Y-104775000D01*
%TO.C,J17*%
X165210000Y-103910000D02*
X165735000Y-103385000D01*
X165210000Y-104655000D02*
X165210000Y-103910000D01*
X165735000Y-103385000D02*
X167310000Y-103385000D01*
X167310000Y-103385000D02*
X167310000Y-104655000D01*
X167310000Y-104655000D02*
X165210000Y-104655000D01*
%TO.C,J16*%
X168920000Y-104000000D02*
X169445000Y-103475000D01*
X168920000Y-104745000D02*
X168920000Y-104000000D01*
X169445000Y-103475000D02*
X171020000Y-103475000D01*
X171020000Y-103475000D02*
X171020000Y-104745000D01*
X171020000Y-104745000D02*
X168920000Y-104745000D01*
%TO.C,J14*%
X180620000Y-103010000D02*
X181145000Y-103535000D01*
X178605000Y-103010000D02*
X180620000Y-103010000D01*
X181145000Y-103535000D02*
X181145000Y-105110000D01*
X181145000Y-105110000D02*
X178605000Y-105110000D01*
X178605000Y-105110000D02*
X178605000Y-103010000D01*
%TO.C,J13*%
X163020000Y-103670000D02*
X163545000Y-104195000D01*
X161005000Y-103670000D02*
X163020000Y-103670000D01*
X163545000Y-104195000D02*
X163545000Y-105770000D01*
X163545000Y-105770000D02*
X161005000Y-105770000D01*
X161005000Y-105770000D02*
X161005000Y-103670000D01*
%TO.C,J12*%
X157615000Y-105650000D02*
X157090000Y-105125000D01*
X159630000Y-105650000D02*
X157615000Y-105650000D01*
X157090000Y-105125000D02*
X157090000Y-103550000D01*
X157090000Y-103550000D02*
X159630000Y-103550000D01*
X159630000Y-103550000D02*
X159630000Y-105650000D01*
%TO.C,J11*%
X152430000Y-104350000D02*
X152955000Y-103825000D01*
X152430000Y-105095000D02*
X152430000Y-104350000D01*
X152955000Y-103825000D02*
X154530000Y-103825000D01*
X154530000Y-103825000D02*
X154530000Y-105095000D01*
X154530000Y-105095000D02*
X152430000Y-105095000D01*
%TO.C,J9*%
X196060000Y-110070000D02*
X195535000Y-110595000D01*
X196060000Y-108055000D02*
X196060000Y-110070000D01*
X195535000Y-110595000D02*
X193960000Y-110595000D01*
X193960000Y-110595000D02*
X193960000Y-108055000D01*
X193960000Y-108055000D02*
X196060000Y-108055000D01*
%TO.C,J4*%
X199970000Y-131840000D02*
X199445000Y-132365000D01*
X199970000Y-119665000D02*
X199970000Y-131840000D01*
X199445000Y-132365000D02*
X197870000Y-132365000D01*
X197870000Y-132365000D02*
X197870000Y-119665000D01*
X197870000Y-119665000D02*
X199970000Y-119665000D01*
%TO.C,J3*%
X173870000Y-132890000D02*
X173345000Y-132365000D01*
X179695000Y-132890000D02*
X173870000Y-132890000D01*
X173345000Y-132365000D02*
X173345000Y-130790000D01*
X173345000Y-130790000D02*
X179695000Y-130790000D01*
X179695000Y-130790000D02*
X179695000Y-132890000D01*
%TO.C,J1*%
X148450000Y-117330000D02*
X148975000Y-116805000D01*
X148450000Y-129505000D02*
X148450000Y-117330000D01*
X148975000Y-116805000D02*
X150550000Y-116805000D01*
X150550000Y-116805000D02*
X150550000Y-129505000D01*
X150550000Y-129505000D02*
X148450000Y-129505000D01*
%TO.C,C2*%
X190725000Y-113350000D02*
X191525000Y-113350000D01*
X190725000Y-114950000D02*
X190725000Y-113350000D01*
X191525000Y-113350000D02*
X191525000Y-114950000D01*
X191525000Y-114950000D02*
X190725000Y-114950000D01*
%TO.C,C13*%
X168950000Y-109150000D02*
X169750000Y-109150000D01*
X168950000Y-110750000D02*
X168950000Y-109150000D01*
X169750000Y-109150000D02*
X169750000Y-110750000D01*
X169750000Y-110750000D02*
X168950000Y-110750000D01*
%TO.C,D1*%
X190362500Y-109900000D02*
X191762500Y-109900000D01*
X190362500Y-111700000D02*
X190362500Y-109900000D01*
X190712500Y-110600000D02*
X191412500Y-110600000D01*
X190712500Y-111100000D02*
X191412500Y-111100000D01*
X191062500Y-110600000D02*
X191062500Y-110350000D01*
X191062500Y-111100000D02*
X190712500Y-110600000D01*
X191062500Y-111100000D02*
X191062500Y-111300000D01*
X191412500Y-110600000D02*
X191062500Y-111100000D01*
X191762500Y-109900000D02*
X191762500Y-111700000D01*
X191762500Y-111700000D02*
X190362500Y-111700000D01*
%TO.C,R9*%
X153187500Y-123225000D02*
X154012500Y-123225000D01*
X153187500Y-124825000D02*
X153187500Y-123225000D01*
X154012500Y-123225000D02*
X154012500Y-124825000D01*
X154012500Y-124825000D02*
X153187500Y-124825000D01*
%TO.C,J5*%
X186200000Y-118000000D02*
X186200000Y-120900000D01*
X187550000Y-119950000D02*
X187550000Y-120550000D01*
X187550000Y-120550000D02*
X187850000Y-120550000D01*
X187850000Y-119950000D02*
X187550000Y-119950000D01*
X187850000Y-120550000D02*
X187850000Y-119950000D01*
X188550000Y-119950000D02*
X188550000Y-120550000D01*
X188550000Y-120550000D02*
X188850000Y-120550000D01*
X188850000Y-119950000D02*
X188550000Y-119950000D01*
X188850000Y-120550000D02*
X188850000Y-119950000D01*
X189550000Y-119950000D02*
X189550000Y-120550000D01*
X189550000Y-120550000D02*
X189850000Y-120550000D01*
X189700000Y-118707107D02*
X189200000Y-118000000D01*
X189850000Y-119950000D02*
X189550000Y-119950000D01*
X189850000Y-120550000D02*
X189850000Y-119950000D01*
X190200000Y-118000000D02*
X189700000Y-118707107D01*
X191200000Y-118000000D02*
X186200000Y-118000000D01*
X191200000Y-118000000D02*
X191200000Y-120900000D01*
X191200000Y-120900000D02*
X186200000Y-120900000D01*
%TO.C,SW1*%
X164350000Y-123000000D02*
X166850000Y-123000000D01*
X164350000Y-126000000D02*
X164350000Y-123000000D01*
X166850000Y-123000000D02*
X166850000Y-126000000D01*
X166850000Y-126000000D02*
X164350000Y-126000000D01*
X166350000Y-124500000D02*
G75*
G02*
X164850000Y-124500000I-750000J0D01*
G01*
X164850000Y-124500000D02*
G75*
G02*
X166350000Y-124500000I750000J0D01*
G01*
%TO.C,L1*%
X161400000Y-112000000D02*
X161400000Y-114500000D01*
X161400000Y-114500000D02*
X163400000Y-114500000D01*
X163400000Y-112000000D02*
X161400000Y-112000000D01*
X163400000Y-114500000D02*
X163400000Y-112000000D01*
%TO.C,U3*%
X187362500Y-113275000D02*
X187762500Y-112875000D01*
X187362500Y-115775000D02*
X187362500Y-113275000D01*
X187762500Y-112875000D02*
X188962500Y-112875000D01*
X188962500Y-112875000D02*
X188962500Y-115775000D01*
X188962500Y-115775000D02*
X187362500Y-115775000D01*
%TO.C,C1*%
X183200000Y-112950000D02*
X184800000Y-112950000D01*
X183200000Y-113750000D02*
X183200000Y-112950000D01*
X184800000Y-112950000D02*
X184800000Y-113750000D01*
X184800000Y-113750000D02*
X183200000Y-113750000D01*
%TO.C,D2*%
X179575000Y-109350000D02*
X179575000Y-109850000D01*
X179575000Y-109850000D02*
X181175000Y-109850000D01*
X179875000Y-109050000D02*
X179575000Y-109350000D01*
X181175000Y-109050000D02*
X179875000Y-109050000D01*
X181175000Y-109850000D02*
X181175000Y-109050000D01*
%TO.C,C10*%
X176350000Y-109150000D02*
X177150000Y-109150000D01*
X176350000Y-110750000D02*
X176350000Y-109150000D01*
X177150000Y-109150000D02*
X177150000Y-110750000D01*
X177150000Y-110750000D02*
X176350000Y-110750000D01*
%TO.C,R3*%
X183200000Y-114437500D02*
X184800000Y-114437500D01*
X183200000Y-115262500D02*
X183200000Y-114437500D01*
X184800000Y-114437500D02*
X184800000Y-115262500D01*
X184800000Y-115262500D02*
X183200000Y-115262500D01*
%TO.C,C17*%
X172350000Y-123750000D02*
X173150000Y-123750000D01*
X172350000Y-125350000D02*
X172350000Y-123750000D01*
X173150000Y-123750000D02*
X173150000Y-125350000D01*
X173150000Y-125350000D02*
X172350000Y-125350000D01*
%TO.C,C5*%
X179575000Y-115100000D02*
X181175000Y-115100000D01*
X179575000Y-115900000D02*
X179575000Y-115100000D01*
X181175000Y-115100000D02*
X181175000Y-115900000D01*
X181175000Y-115900000D02*
X179575000Y-115900000D01*
%TO.C,R1*%
X189750000Y-108012500D02*
X191350000Y-108012500D01*
X189750000Y-108837500D02*
X189750000Y-108012500D01*
X191350000Y-108012500D02*
X191350000Y-108837500D01*
X191350000Y-108837500D02*
X189750000Y-108837500D01*
%TO.C,U2*%
X183200000Y-108325000D02*
X183600000Y-107925000D01*
X183200000Y-110825000D02*
X183200000Y-108325000D01*
X183600000Y-107925000D02*
X184800000Y-107925000D01*
X184800000Y-107925000D02*
X184800000Y-110825000D01*
X184800000Y-110825000D02*
X183200000Y-110825000D01*
%TO.C,R8*%
X179575000Y-112087500D02*
X181175000Y-112087500D01*
X179575000Y-112912500D02*
X179575000Y-112087500D01*
X181175000Y-112087500D02*
X181175000Y-112912500D01*
X181175000Y-112912500D02*
X179575000Y-112912500D01*
%TO.C,C12*%
X165075000Y-110300000D02*
X166675000Y-110300000D01*
X165075000Y-111100000D02*
X165075000Y-110300000D01*
X166675000Y-110300000D02*
X166675000Y-111100000D01*
X166675000Y-111100000D02*
X165075000Y-111100000D01*
%TO.C,R10*%
X153187500Y-115300000D02*
X154012500Y-115300000D01*
X153187500Y-116900000D02*
X153187500Y-115300000D01*
X154012500Y-115300000D02*
X154012500Y-116900000D01*
X154012500Y-116900000D02*
X153187500Y-116900000D01*
%TO.C,C18*%
X179575000Y-113600000D02*
X181175000Y-113600000D01*
X179575000Y-114400000D02*
X179575000Y-113600000D01*
X181175000Y-113600000D02*
X181175000Y-114400000D01*
X181175000Y-114400000D02*
X179575000Y-114400000D01*
%TO.C,R2*%
X179575000Y-110587500D02*
X181175000Y-110587500D01*
X179575000Y-111412500D02*
X179575000Y-110587500D01*
X181175000Y-110587500D02*
X181175000Y-111412500D01*
X181175000Y-111412500D02*
X179575000Y-111412500D01*
%TO.C,C3*%
X183200000Y-111450000D02*
X184800000Y-111450000D01*
X183200000Y-112250000D02*
X183200000Y-111450000D01*
X184800000Y-111450000D02*
X184800000Y-112250000D01*
X184800000Y-112250000D02*
X183200000Y-112250000D01*
%TO.C,R11*%
X162075000Y-110287500D02*
X163675000Y-110287500D01*
X162075000Y-111112500D02*
X162075000Y-110287500D01*
X163675000Y-110287500D02*
X163675000Y-111112500D01*
X163675000Y-111112500D02*
X162075000Y-111112500D01*
%TO.C,C6*%
X170350000Y-123750000D02*
X171150000Y-123750000D01*
X170350000Y-125350000D02*
X170350000Y-123750000D01*
X171150000Y-123750000D02*
X171150000Y-125350000D01*
X171150000Y-125350000D02*
X170350000Y-125350000D01*
%TO.C,C8*%
X164650000Y-116700000D02*
X166250000Y-116700000D01*
X164650000Y-117500000D02*
X164650000Y-116700000D01*
X166250000Y-116700000D02*
X166250000Y-117500000D01*
X166250000Y-117500000D02*
X164650000Y-117500000D01*
%TO.C,U5*%
D10*
X167950000Y-112250000D02*
X167950000Y-121250000D01*
X167950000Y-121250000D02*
X168950000Y-122250000D01*
X168950000Y-122250000D02*
X177950000Y-122250000D01*
X177950000Y-112250000D02*
X167950000Y-112250000D01*
X177950000Y-122250000D02*
X177950000Y-112250000D01*
%TO.C,C19*%
D13*
X171800000Y-109150000D02*
X172600000Y-109150000D01*
X171800000Y-110750000D02*
X171800000Y-109150000D01*
X172600000Y-109150000D02*
X172600000Y-110750000D01*
X172600000Y-110750000D02*
X171800000Y-110750000D01*
%TO.C,U1*%
X154700000Y-119475000D02*
X159700000Y-119475000D01*
X154700000Y-124475000D02*
X154700000Y-119475000D01*
X155700000Y-125475000D02*
X154700000Y-124475000D01*
X159700000Y-119475000D02*
X159700000Y-125475000D01*
X159700000Y-125475000D02*
X155700000Y-125475000D01*
%TO.C,R7*%
X161500000Y-116687500D02*
X163100000Y-116687500D01*
X161500000Y-117512500D02*
X161500000Y-116687500D01*
X163100000Y-116687500D02*
X163100000Y-117512500D01*
X163100000Y-117512500D02*
X161500000Y-117512500D01*
%TO.C,C15*%
X164650000Y-120000000D02*
X166250000Y-120000000D01*
X164650000Y-120800000D02*
X164650000Y-120000000D01*
X166250000Y-120000000D02*
X166250000Y-120800000D01*
X166250000Y-120800000D02*
X164650000Y-120800000D01*
%TO.C,R5*%
X186775000Y-108012500D02*
X188375000Y-108012500D01*
X186775000Y-108837500D02*
X186775000Y-108012500D01*
X188375000Y-108012500D02*
X188375000Y-108837500D01*
X188375000Y-108837500D02*
X186775000Y-108837500D01*
%TO.C,C14*%
X166100000Y-113150000D02*
X166900000Y-113150000D01*
X166100000Y-114750000D02*
X166100000Y-113150000D01*
X166900000Y-113150000D02*
X166900000Y-114750000D01*
X166900000Y-114750000D02*
X166100000Y-114750000D01*
%TO.C,R6*%
X161500000Y-115187500D02*
X163100000Y-115187500D01*
X161500000Y-116012500D02*
X161500000Y-115187500D01*
X163100000Y-115187500D02*
X163100000Y-116012500D01*
X163100000Y-116012500D02*
X161500000Y-116012500D01*
%TO.C,Y1*%
X179375000Y-116825000D02*
X179475000Y-116725000D01*
X179375000Y-119125000D02*
X179375000Y-116825000D01*
X179475000Y-116725000D02*
X181275000Y-116725000D01*
X179475000Y-119225000D02*
X179375000Y-119125000D01*
X180375000Y-116725000D02*
X179375000Y-117725000D01*
X181275000Y-116725000D02*
X181375000Y-116825000D01*
X181275000Y-119225000D02*
X179475000Y-119225000D01*
X181375000Y-116825000D02*
X181375000Y-119125000D01*
X181375000Y-119125000D02*
X181275000Y-119225000D01*
%TO.C,C7*%
X174350000Y-123750000D02*
X175150000Y-123750000D01*
X174350000Y-125350000D02*
X174350000Y-123750000D01*
X175150000Y-123750000D02*
X175150000Y-125350000D01*
X175150000Y-125350000D02*
X174350000Y-125350000D01*
%TO.C,Q1*%
X187512500Y-109750000D02*
X187837500Y-109425000D01*
X187512500Y-112325000D02*
X187512500Y-109750000D01*
X187837500Y-109425000D02*
X188812500Y-109425000D01*
X188812500Y-109425000D02*
X188812500Y-112325000D01*
X188812500Y-112325000D02*
X187512500Y-112325000D01*
%TO.C,SW2*%
X160800000Y-123000000D02*
X163300000Y-123000000D01*
X160800000Y-126000000D02*
X160800000Y-123000000D01*
X163300000Y-123000000D02*
X163300000Y-126000000D01*
X163300000Y-126000000D02*
X160800000Y-126000000D01*
X162800000Y-124500000D02*
G75*
G02*
X161300000Y-124500000I-750000J0D01*
G01*
X161300000Y-124500000D02*
G75*
G02*
X162800000Y-124500000I750000J0D01*
G01*
%TO.C,U4*%
X154580000Y-110100000D02*
X159820000Y-110100000D01*
X154580000Y-114350000D02*
X154580000Y-110100000D01*
X155580000Y-115350000D02*
X154580000Y-114350000D01*
X159820000Y-110100000D02*
X159820000Y-115350000D01*
X159820000Y-115350000D02*
X155580000Y-115350000D01*
%TO.C,J6*%
X186200000Y-122400000D02*
X191200000Y-122400000D01*
X186200000Y-125300000D02*
X186200000Y-122400000D01*
X186200000Y-125300000D02*
X191200000Y-125300000D01*
X187200000Y-125300000D02*
X187700000Y-124592893D01*
X187550000Y-122750000D02*
X187550000Y-123350000D01*
X187550000Y-123350000D02*
X187850000Y-123350000D01*
X187700000Y-124592893D02*
X188200000Y-125300000D01*
X187850000Y-122750000D02*
X187550000Y-122750000D01*
X187850000Y-123350000D02*
X187850000Y-122750000D01*
X188550000Y-122750000D02*
X188550000Y-123350000D01*
X188550000Y-123350000D02*
X188850000Y-123350000D01*
X188850000Y-122750000D02*
X188550000Y-122750000D01*
X188850000Y-123350000D02*
X188850000Y-122750000D01*
X189550000Y-122750000D02*
X189550000Y-123350000D01*
X189550000Y-123350000D02*
X189850000Y-123350000D01*
X189850000Y-122750000D02*
X189550000Y-122750000D01*
X189850000Y-123350000D02*
X189850000Y-122750000D01*
X191200000Y-125300000D02*
X191200000Y-122400000D01*
%TO.C,C16*%
X164600000Y-113150000D02*
X165400000Y-113150000D01*
X164600000Y-114750000D02*
X164600000Y-113150000D01*
X165400000Y-113150000D02*
X165400000Y-114750000D01*
X165400000Y-114750000D02*
X164600000Y-114750000D01*
%TO.C,C9*%
X179575000Y-121550000D02*
X181175000Y-121550000D01*
X179575000Y-122350000D02*
X179575000Y-121550000D01*
X181175000Y-121550000D02*
X181175000Y-122350000D01*
X181175000Y-122350000D02*
X179575000Y-122350000D01*
%TO.C,C4*%
X179575000Y-120050000D02*
X181175000Y-120050000D01*
X179575000Y-120850000D02*
X179575000Y-120050000D01*
X181175000Y-120050000D02*
X181175000Y-120850000D01*
X181175000Y-120850000D02*
X179575000Y-120850000D01*
%TO.C,C11*%
X173300000Y-109150000D02*
X174100000Y-109150000D01*
X173300000Y-110750000D02*
X173300000Y-109150000D01*
X174100000Y-109150000D02*
X174100000Y-110750000D01*
X174100000Y-110750000D02*
X173300000Y-110750000D01*
%TO.C,R4*%
X153187500Y-120125000D02*
X154012500Y-120125000D01*
X153187500Y-121725000D02*
X153187500Y-120125000D01*
X154012500Y-120125000D02*
X154012500Y-121725000D01*
X154012500Y-121725000D02*
X153187500Y-121725000D01*
%TO.C,SW3*%
X142500000Y-106750000D02*
X142500000Y-109250000D01*
X139500000Y-106750000D02*
X142500000Y-106750000D01*
X142500000Y-109250000D02*
X139500000Y-109250000D01*
X139500000Y-109250000D02*
X139500000Y-106750000D01*
X141750000Y-108000000D02*
G75*
G02*
X140250000Y-108000000I-750000J0D01*
G01*
X140250000Y-108000000D02*
G75*
G02*
X141750000Y-108000000I750000J0D01*
G01*
%TO.C,SW4*%
X138000000Y-112750000D02*
X138000000Y-115250000D01*
X135000000Y-112750000D02*
X138000000Y-112750000D01*
X138000000Y-115250000D02*
X135000000Y-115250000D01*
X135000000Y-115250000D02*
X135000000Y-112750000D01*
X137250000Y-114000000D02*
G75*
G02*
X135750000Y-114000000I-750000J0D01*
G01*
X135750000Y-114000000D02*
G75*
G02*
X137250000Y-114000000I750000J0D01*
G01*
%TO.C,SW5*%
X148000000Y-112750000D02*
X148000000Y-115250000D01*
X145000000Y-112750000D02*
X148000000Y-112750000D01*
X148000000Y-115250000D02*
X145000000Y-115250000D01*
X145000000Y-115250000D02*
X145000000Y-112750000D01*
X147250000Y-114000000D02*
G75*
G02*
X145750000Y-114000000I-750000J0D01*
G01*
X145750000Y-114000000D02*
G75*
G02*
X147250000Y-114000000I750000J0D01*
G01*
%TO.C,SW6*%
X142500000Y-118750000D02*
X142500000Y-121250000D01*
X139500000Y-118750000D02*
X142500000Y-118750000D01*
X142500000Y-121250000D02*
X139500000Y-121250000D01*
X139500000Y-121250000D02*
X139500000Y-118750000D01*
X141750000Y-120000000D02*
G75*
G02*
X140250000Y-120000000I-750000J0D01*
G01*
X140250000Y-120000000D02*
G75*
G02*
X141750000Y-120000000I750000J0D01*
G01*
%TO.C,SW7*%
X195500000Y-117250000D02*
X195500000Y-114750000D01*
X198500000Y-117250000D02*
X195500000Y-117250000D01*
X195500000Y-114750000D02*
X198500000Y-114750000D01*
X198500000Y-114750000D02*
X198500000Y-117250000D01*
X197750000Y-116000000D02*
G75*
G02*
X196250000Y-116000000I-750000J0D01*
G01*
X196250000Y-116000000D02*
G75*
G02*
X197750000Y-116000000I750000J0D01*
G01*
%TO.C,SW8*%
X200500000Y-111250000D02*
X200500000Y-108750000D01*
X203500000Y-111250000D02*
X200500000Y-111250000D01*
X200500000Y-108750000D02*
X203500000Y-108750000D01*
X203500000Y-108750000D02*
X203500000Y-111250000D01*
X202750000Y-110000000D02*
G75*
G02*
X201250000Y-110000000I-750000J0D01*
G01*
X201250000Y-110000000D02*
G75*
G02*
X202750000Y-110000000I750000J0D01*
G01*
%TO.C,SW9*%
X168220000Y-129820000D02*
X170720000Y-129820000D01*
X168220000Y-132820000D02*
X168220000Y-129820000D01*
X170720000Y-129820000D02*
X170720000Y-132820000D01*
X170720000Y-132820000D02*
X168220000Y-132820000D01*
X170220000Y-131320000D02*
G75*
G02*
X168720000Y-131320000I-750000J0D01*
G01*
X168720000Y-131320000D02*
G75*
G02*
X170220000Y-131320000I750000J0D01*
G01*
%TO.C,SW10*%
X180750000Y-129500000D02*
X183250000Y-129500000D01*
X180750000Y-132500000D02*
X180750000Y-129500000D01*
X183250000Y-129500000D02*
X183250000Y-132500000D01*
X183250000Y-132500000D02*
X180750000Y-132500000D01*
X182750000Y-131000000D02*
G75*
G02*
X181250000Y-131000000I-750000J0D01*
G01*
X181250000Y-131000000D02*
G75*
G02*
X182750000Y-131000000I750000J0D01*
G01*
%TO.C,J18*%
X165490000Y-133520000D02*
X164965000Y-132995000D01*
X167505000Y-133520000D02*
X165490000Y-133520000D01*
X164965000Y-132995000D02*
X164965000Y-131420000D01*
X164965000Y-131420000D02*
X167505000Y-131420000D01*
X167505000Y-131420000D02*
X167505000Y-133520000D01*
%TD*%
X174835000Y-102835000D02*
X178025000Y-105205000D01*
X178025000Y-102835000D02*
X174835000Y-105205000D01*
X147685000Y-103145000D02*
X150875000Y-105515000D01*
X150875000Y-103145000D02*
X147685000Y-105515000D01*
X194475000Y-111955000D02*
X197665000Y-114325000D01*
X197665000Y-111955000D02*
X194475000Y-114325000D01*
X191370000Y-80860000D02*
X194030000Y-101300000D01*
X194030000Y-80860000D02*
X191370000Y-101300000D01*
X171685000Y-102955000D02*
X174875000Y-105325000D01*
X174875000Y-102955000D02*
X171685000Y-105325000D01*
X164665000Y-102835000D02*
X167855000Y-105205000D01*
X167855000Y-102835000D02*
X164665000Y-105205000D01*
X168375000Y-102925000D02*
X171565000Y-105295000D01*
X171565000Y-102925000D02*
X168375000Y-105295000D01*
X181695000Y-102465000D02*
X178055000Y-105655000D01*
X181695000Y-105655000D02*
X178055000Y-102465000D01*
X164095000Y-103125000D02*
X160455000Y-106315000D01*
X164095000Y-106315000D02*
X160455000Y-103125000D01*
X156540000Y-106195000D02*
X160180000Y-103005000D01*
X156540000Y-103005000D02*
X160180000Y-106195000D01*
X151885000Y-103275000D02*
X155075000Y-105645000D01*
X155075000Y-103275000D02*
X151885000Y-105645000D01*
X196605000Y-111145000D02*
X193415000Y-107505000D01*
X193415000Y-111145000D02*
X196605000Y-107505000D01*
X200515000Y-132915000D02*
X197325000Y-119115000D01*
X197325000Y-132915000D02*
X200515000Y-119115000D01*
X172795000Y-133435000D02*
X180245000Y-130245000D01*
X172795000Y-130245000D02*
X180245000Y-133435000D01*
X147905000Y-116255000D02*
X151095000Y-130055000D01*
X151095000Y-116255000D02*
X147905000Y-130055000D01*
X192145000Y-121645000D02*
X185255000Y-116355000D01*
X185255000Y-121645000D02*
X192145000Y-116355000D01*
X185255000Y-121655000D02*
X192145000Y-126945000D01*
X192145000Y-121655000D02*
X185255000Y-126945000D01*
X138555000Y-106305000D02*
X143445000Y-109695000D01*
X143445000Y-106305000D02*
X138555000Y-109695000D01*
X134055000Y-112305000D02*
X138945000Y-115695000D01*
X138945000Y-112305000D02*
X134055000Y-115695000D01*
X144055000Y-112305000D02*
X148945000Y-115695000D01*
X148945000Y-112305000D02*
X144055000Y-115695000D01*
X138555000Y-118305000D02*
X143445000Y-121695000D01*
X143445000Y-118305000D02*
X138555000Y-121695000D01*
X199445000Y-117695000D02*
X194555000Y-114305000D01*
X194555000Y-117695000D02*
X199445000Y-114305000D01*
X204445000Y-111695000D02*
X199555000Y-108305000D01*
X199555000Y-111695000D02*
X204445000Y-108305000D01*
X167775000Y-133765000D02*
X171165000Y-128875000D01*
X167775000Y-128875000D02*
X171165000Y-133765000D01*
X180305000Y-133445000D02*
X183695000Y-128555000D01*
X180305000Y-128555000D02*
X183695000Y-133445000D01*
X165530000Y-131780000D02*
X152710000Y-129120000D01*
X152710000Y-131780000D02*
X165530000Y-129120000D01*
X164415000Y-134065000D02*
X168055000Y-130875000D01*
X164415000Y-130875000D02*
X168055000Y-134065000D01*
M02*
