%TF.GenerationSoftware,KiCad,Pcbnew,10.0.5*%
%TF.CreationDate,2026-08-21T00:00:12+05:30*%
%TF.ProjectId,microboy,6d696372-6f62-46f7-992e-6b696361645f,rev?*%
%TF.SameCoordinates,Original*%
%TF.FileFunction,Copper,L3,Inr*%
%TF.FilePolarity,Positive*%
%FSLAX46Y46*%
G04 Gerber Fmt 4.6, Leading zero omitted, Abs format (unit mm)*
G04 Created by KiCad (PCBNEW 10.0.5) date 2026-08-21 00:00:12*
%MOMM*%
%LPD*%
G01*
G04 APERTURE LIST*
%TA.AperFunction,ComponentPad*%
%ADD10R,1.000000X1.000000*%
%TD*%
%TA.AperFunction,ComponentPad*%
%ADD11O,1.700000X1.700000*%
%TD*%
%TA.AperFunction,ComponentPad*%
%ADD12R,1.700000X1.700000*%
%TD*%
%TA.AperFunction,ComponentPad*%
%ADD13C,1.000000*%
%TD*%
%TA.AperFunction,ViaPad*%
%ADD14C,0.600000*%
%TD*%
%TA.AperFunction,ViaPad*%
%ADD15C,0.700000*%
%TD*%
%TA.AperFunction,ViaPad*%
%ADD16C,0.800000*%
%TD*%
%TA.AperFunction,ViaPad*%
%ADD17C,0.500000*%
%TD*%
%TA.AperFunction,Conductor*%
%ADD18C,0.400000*%
%TD*%
%TA.AperFunction,Conductor*%
%ADD19C,0.800000*%
%TD*%
%TA.AperFunction,Conductor*%
%ADD20C,0.150000*%
%TD*%
%TA.AperFunction,Conductor*%
%ADD21C,0.250000*%
%TD*%
%TA.AperFunction,Conductor*%
%ADD22C,0.200000*%
%TD*%
G04 APERTURE END LIST*
D10*
%TO.N,/BAT_STAT*%
%TO.C,J19*%
X176430000Y-104020000D03*
%TD*%
%TO.N,/~{RESET}*%
%TO.C,J20*%
X149280000Y-104330000D03*
%TD*%
%TO.N,/GPIO36*%
%TO.C,J10*%
X196070000Y-113140000D03*
%TD*%
D11*
%TO.N,+3V3*%
%TO.C,J7*%
X192700000Y-99970000D03*
%TO.N,GND*%
X192700000Y-97430000D03*
%TO.N,/GPIO40*%
X192700000Y-94890000D03*
%TO.N,/GPIO41*%
X192700000Y-92350000D03*
%TO.N,/GPIO42*%
X192700000Y-89810000D03*
%TO.N,/GPIO43*%
X192700000Y-87270000D03*
%TO.N,/GPIO44*%
X192700000Y-84730000D03*
D12*
%TO.N,/GPIO45*%
X192700000Y-82190000D03*
%TD*%
D10*
%TO.N,/LDO_EN*%
%TO.C,J15*%
X173280000Y-104140000D03*
%TD*%
%TO.N,+5V*%
%TO.C,J17*%
X166260000Y-104020000D03*
%TD*%
%TO.N,VBAT*%
%TO.C,J16*%
X169970000Y-104110000D03*
%TD*%
%TO.N,/GPIO46*%
%TO.C,J14*%
X180510000Y-104060000D03*
D13*
%TO.N,/GPIO47*%
X179240000Y-104060000D03*
%TD*%
D10*
%TO.N,/USB_D-*%
%TO.C,J13*%
X162910000Y-104720000D03*
D13*
%TO.N,/USB_D+*%
X161640000Y-104720000D03*
%TD*%
D10*
%TO.N,/SWCLK*%
%TO.C,J12*%
X157725000Y-104600000D03*
D13*
%TO.N,/SWDIO*%
X158995000Y-104600000D03*
%TD*%
D10*
%TO.N,/BOOTSEL*%
%TO.C,J11*%
X153480000Y-104460000D03*
%TD*%
%TO.N,/GPIO38*%
%TO.C,J9*%
X195010000Y-109960000D03*
D13*
%TO.N,/GPIO39*%
X195010000Y-108690000D03*
%TD*%
D10*
%TO.N,/GPIO25*%
%TO.C,J4*%
X198920000Y-131730000D03*
D13*
%TO.N,/GPIO26*%
X198920000Y-130460000D03*
%TO.N,/GPIO27*%
X198920000Y-129190000D03*
%TO.N,/GPIO28*%
X198920000Y-127920000D03*
%TO.N,/GPIO29*%
X198920000Y-126650000D03*
%TO.N,/GPIO30*%
X198920000Y-125380000D03*
%TO.N,/GPIO31*%
X198920000Y-124110000D03*
%TO.N,/GPIO32*%
X198920000Y-122840000D03*
%TO.N,/GPIO33*%
X198920000Y-121570000D03*
%TO.N,/GPIO34*%
X198920000Y-120300000D03*
%TD*%
D10*
%TO.N,/GPIO19*%
%TO.C,J3*%
X173980000Y-131840000D03*
D13*
%TO.N,/GPIO20*%
X175250000Y-131840000D03*
%TO.N,/GPIO21*%
X176520000Y-131840000D03*
%TO.N,/GPIO22*%
X177790000Y-131840000D03*
%TO.N,/GPIO23*%
X179060000Y-131840000D03*
%TD*%
D10*
%TO.N,/GPIO4*%
%TO.C,J1*%
X149500000Y-117440000D03*
D13*
%TO.N,/GPIO5*%
X149500000Y-118710000D03*
%TO.N,/GPIO6*%
X149500000Y-119980000D03*
%TO.N,/GPIO7*%
X149500000Y-121250000D03*
%TO.N,/GPIO8*%
X149500000Y-122520000D03*
%TO.N,/GPIO9*%
X149500000Y-123790000D03*
%TO.N,/GPIO10*%
X149500000Y-125060000D03*
%TO.N,/GPIO11*%
X149500000Y-126330000D03*
%TO.N,/GPIO12*%
X149500000Y-127600000D03*
%TO.N,/GPIO13*%
X149500000Y-128870000D03*
%TD*%
D12*
%TO.N,/GPIO16*%
%TO.C,J8*%
X164200000Y-130450000D03*
D11*
%TO.N,/GPIO15*%
X161660000Y-130450000D03*
%TO.N,/GPIO14*%
X159120000Y-130450000D03*
%TO.N,GND*%
X156580000Y-130450000D03*
%TO.N,+3V3*%
X154040000Y-130450000D03*
%TD*%
D10*
%TO.N,/GPIO16*%
%TO.C,J18*%
X165600000Y-132470000D03*
D13*
%TO.N,/GPIO17*%
X166870000Y-132470000D03*
%TD*%
D14*
%TO.N,/BAT_STAT*%
X175440000Y-106270000D03*
%TO.N,/~{RESET}*%
X155450000Y-105890000D03*
%TO.N,GND*%
X184090000Y-106840736D03*
X195100000Y-97400000D03*
D15*
%TO.N,+3V3*%
X182130776Y-113275229D03*
D14*
%TO.N,/GPIO24*%
X182020000Y-127780000D03*
%TO.N,/GPIO35*%
X193460000Y-115880000D03*
%TO.N,/GPIO37*%
X198140000Y-110000000D03*
%TO.N,GND*%
X172260000Y-132120000D03*
%TO.N,/GPIO18*%
X169440000Y-128210000D03*
%TO.N,/GPIO3*%
X146290000Y-120020000D03*
%TO.N,/GPIO2*%
X151470000Y-112230000D03*
%TO.N,/GPIO1*%
X151470000Y-110270000D03*
%TO.N,/GPIO0*%
X147040000Y-108250000D03*
%TO.N,+3V3*%
X167100000Y-116600000D03*
D16*
X190150000Y-114250000D03*
X169475000Y-123650000D03*
X188950000Y-114250000D03*
X162050000Y-109550000D03*
D14*
X152804963Y-113791067D03*
D16*
X175875000Y-123775000D03*
X174516942Y-111016942D03*
X180725000Y-123075000D03*
D14*
X155300000Y-118875000D03*
X155300000Y-111575000D03*
X167200000Y-120400000D03*
D16*
X168175000Y-110725000D03*
D14*
%TO.N,GND*%
X175550430Y-110125000D03*
D16*
X192150000Y-115100000D03*
D14*
X182150000Y-117200000D03*
X174325000Y-115875000D03*
X172950000Y-117250000D03*
X171575000Y-118600000D03*
X155925000Y-120325000D03*
X188700000Y-124275000D03*
D16*
X188162030Y-114941663D03*
D14*
X182150000Y-114075000D03*
D16*
X167400000Y-111700000D03*
D14*
X162300000Y-116350000D03*
X182150000Y-121900000D03*
X163600000Y-120400000D03*
X158450000Y-120325000D03*
X172396600Y-126671600D03*
X172650000Y-108350000D03*
X174325000Y-118625000D03*
D16*
X165750000Y-112250000D03*
D14*
X182150000Y-115500000D03*
X188700000Y-116391663D03*
X165450000Y-116525000D03*
X170450000Y-108350000D03*
X159100000Y-113875000D03*
X189080000Y-107975000D03*
X185700000Y-111850000D03*
X171575000Y-115900000D03*
D16*
%TO.N,VBAT*%
X187860000Y-110910000D03*
X186700000Y-110910000D03*
D14*
%TO.N,+5V*%
X181264847Y-108175000D03*
D16*
X188650000Y-109950000D03*
X189800000Y-109950000D03*
D17*
%TO.N,/~{RESET}*%
X167323528Y-122300000D03*
X178825000Y-113250000D03*
X175050000Y-119525000D03*
%TO.N,/SWDIO*%
X176800000Y-116175000D03*
X175500000Y-114750000D03*
D14*
X187700000Y-118900000D03*
%TO.N,/SWCLK*%
X189700000Y-118900000D03*
D17*
X176300000Y-116600000D03*
X175175000Y-115318204D03*
%TO.N,/GPIO5*%
X169625000Y-120700000D03*
%TO.N,/GPIO3*%
X169825000Y-119650000D03*
%TO.N,/GPIO6*%
X170100000Y-121150000D03*
%TO.N,/GPIO7*%
X170575000Y-120700000D03*
%TO.N,/GPIO8*%
X171050000Y-121150000D03*
D14*
%TO.N,/GPIO0*%
X182450000Y-124800000D03*
X189700000Y-124275000D03*
D17*
X169375000Y-118225000D03*
%TO.N,/GPIO2*%
X169375000Y-119175000D03*
D14*
%TO.N,/GPIO1*%
X182980332Y-124269668D03*
D17*
X169825000Y-118700000D03*
D14*
X187700000Y-124275000D03*
D17*
%TO.N,/GPIO9*%
X171525000Y-120700000D03*
%TO.N,/GPIO4*%
X169150000Y-121150000D03*
%TO.N,/GPIO22*%
X176875000Y-120200000D03*
%TO.N,/GPIO40*%
X173525000Y-113775000D03*
%TO.N,/GPIO23*%
X176425000Y-119725000D03*
%TO.N,/GPIO20*%
X176750000Y-122925000D03*
%TO.N,/GPIO37*%
X174950000Y-113325000D03*
%TO.N,/GPIO41*%
X172225000Y-114325000D03*
%TO.N,/GPIO21*%
X177350000Y-121650000D03*
%TO.N,/GPIO38*%
X174475000Y-113775000D03*
%TO.N,/GPIO24*%
X176875000Y-119250000D03*
%TO.N,/GPIO35*%
X175900000Y-113325000D03*
%TO.N,/GPIO18*%
X176400000Y-120650000D03*
%TO.N,/GPIO15*%
X174975000Y-121100000D03*
%TO.N,/GPIO44*%
X170800000Y-113875000D03*
%TO.N,/GPIO43*%
X171275000Y-114325000D03*
%TO.N,/GPIO36*%
X175425000Y-113775000D03*
%TO.N,/GPIO42*%
X171750000Y-113875000D03*
%TO.N,/GPIO16*%
X175450000Y-120650000D03*
%TO.N,/GPIO17*%
X175925000Y-121100000D03*
%TO.N,/GPIO19*%
X176875000Y-121150000D03*
%TO.N,/GPIO39*%
X174000000Y-113325000D03*
D14*
%TO.N,/LDO_EN*%
X185416268Y-115983732D03*
D17*
%TO.N,/GPIO46*%
X169850000Y-113875000D03*
%TO.N,/GPIO47*%
X169375000Y-114325000D03*
%TO.N,/GPIO45*%
X170325000Y-114325000D03*
%TO.N,/GPIO14*%
X174500000Y-120650000D03*
%TO.N,/GPIO12*%
X173550000Y-120650000D03*
%TO.N,/GPIO10*%
X172000000Y-121150000D03*
%TO.N,/GPIO11*%
X172475000Y-120700000D03*
%TO.N,/GPIO13*%
X174025000Y-121100000D03*
%TO.N,/GPIO32*%
X177350000Y-112850000D03*
%TO.N,/GPIO34*%
X176375000Y-113775000D03*
%TO.N,/GPIO33*%
X176850000Y-113325000D03*
%TO.N,/GPIO31*%
X176800000Y-114275000D03*
%TO.N,/GPIO30*%
X176350000Y-114750000D03*
%TO.N,/GPIO26*%
X176875000Y-118300000D03*
%TO.N,/GPIO25*%
X176425000Y-118775000D03*
%TO.N,/GPIO27*%
X176350000Y-117850000D03*
%TO.N,/GPIO29*%
X176800000Y-115225000D03*
%TO.N,/GPIO28*%
X176134338Y-115493910D03*
D14*
%TO.N,+1.1V*%
X175150000Y-117300000D03*
X173018518Y-120194444D03*
D16*
X164000000Y-114725000D03*
D14*
X172750000Y-113150000D03*
X170000000Y-116050000D03*
D17*
%TO.N,/BOOTSEL*%
X160750000Y-121000000D03*
%TO.N,/QSPI_SD0*%
X159750000Y-119275000D03*
X159125000Y-112600000D03*
%TO.N,/QSPI_SD2*%
X158475000Y-125650000D03*
X157850000Y-113850000D03*
%TO.N,/QSPI_SD3*%
X156575000Y-112400000D03*
X157200000Y-119275000D03*
%TO.N,/QSPI_SD1*%
X157200000Y-125650000D03*
X156575000Y-113850000D03*
%TO.N,/QSPI_SCLK*%
X157850000Y-112750000D03*
X158475000Y-119275000D03*
%TO.N,/BAT_STAT*%
X180570729Y-111877755D03*
%TO.N,Net-(JP1-A)*%
X178910000Y-111890000D03*
D15*
%TO.N,GND*%
X137440000Y-108030000D03*
X133460000Y-113930000D03*
X143280000Y-113980000D03*
X137860000Y-119960000D03*
X200780000Y-116050000D03*
X205650000Y-110020000D03*
X182000000Y-133635000D03*
D14*
X174750000Y-126250000D03*
X164300000Y-126800000D03*
X160750000Y-126800000D03*
%TD*%
%TO.N,+3V3*%
D18*
X181505547Y-112650000D02*
X182130776Y-113275229D01*
X178480000Y-112650000D02*
X181505547Y-112650000D01*
X183395229Y-113275229D02*
X182130776Y-113275229D01*
X184620000Y-114500000D02*
X183395229Y-113275229D01*
X176846942Y-111016942D02*
X174516942Y-111016942D01*
X184620000Y-114500000D02*
X184620000Y-116760000D01*
X178480000Y-112650000D02*
X176846942Y-111016942D01*
%TO.N,/GPIO16*%
X164950000Y-129710000D02*
X164160000Y-130500000D01*
%TO.N,+5V*%
D19*
X166520000Y-104020000D02*
X166260000Y-104020000D01*
X168097918Y-109200000D02*
X168097918Y-105597918D01*
X179500000Y-109200000D02*
X168097918Y-109200000D01*
X184507918Y-111860000D02*
X182160000Y-111860000D01*
X185347918Y-112700000D02*
X184507918Y-111860000D01*
X168097918Y-105597918D02*
X166520000Y-104020000D01*
X189800000Y-109950000D02*
X189800000Y-111400000D01*
X188500000Y-112700000D02*
X185347918Y-112700000D01*
X182160000Y-111860000D02*
X179500000Y-109200000D01*
X189800000Y-111400000D02*
X188500000Y-112700000D01*
%TO.N,VBAT*%
X173752082Y-108250000D02*
X169970000Y-104467917D01*
X179893502Y-108250000D02*
X173752082Y-108250000D01*
X169970000Y-104467917D02*
X169970000Y-104110000D01*
X182553502Y-110910000D02*
X179893502Y-108250000D01*
X187860000Y-110910000D02*
X182553502Y-110910000D01*
%TO.N,/LDO_EN*%
D20*
X173280000Y-104740000D02*
X173280000Y-104140000D01*
X173470000Y-104930000D02*
X173280000Y-104740000D01*
X173450000Y-104950000D02*
X173470000Y-104930000D01*
X173450000Y-107064034D02*
X173450000Y-104950000D01*
X181457310Y-107625000D02*
X174010966Y-107625000D01*
X189633883Y-108900000D02*
X182732310Y-108900000D01*
X190550000Y-109816117D02*
X189633883Y-108900000D01*
X188733884Y-113350000D02*
X190550000Y-111533884D01*
X174010966Y-107625000D02*
X173450000Y-107064034D01*
X190550000Y-111533884D02*
X190550000Y-109816117D01*
X186100000Y-113350000D02*
X188733884Y-113350000D01*
X185416268Y-114033732D02*
X186100000Y-113350000D01*
X182732310Y-108900000D02*
X181457310Y-107625000D01*
X185416268Y-115983732D02*
X185416268Y-114033732D01*
%TO.N,+3V3*%
D18*
X163970000Y-110725000D02*
X164425000Y-110725000D01*
X163970000Y-110725000D02*
X163225000Y-110725000D01*
X165455000Y-110894339D02*
X165455000Y-110725000D01*
X167090000Y-112529339D02*
X165455000Y-110894339D01*
X167090000Y-112970000D02*
X167090000Y-112529339D01*
X167100000Y-112980000D02*
X167090000Y-112970000D01*
X167100000Y-116600000D02*
X167100000Y-112980000D01*
X180725000Y-123075000D02*
X180725000Y-120655000D01*
X180725000Y-120655000D02*
X184620000Y-116760000D01*
X180025000Y-123775000D02*
X180725000Y-123075000D01*
X175875000Y-123775000D02*
X180025000Y-123775000D01*
D21*
X175750000Y-123650000D02*
X175875000Y-123775000D01*
D18*
X169475000Y-123650000D02*
X175750000Y-123650000D01*
X167100000Y-120300000D02*
X167200000Y-120400000D01*
X167100000Y-116600000D02*
X167100000Y-120300000D01*
X168175000Y-110725000D02*
X165455000Y-110725000D01*
D21*
X152804963Y-116379963D02*
X152804963Y-113791067D01*
D18*
X155300000Y-118875000D02*
X152804963Y-116379963D01*
X155021030Y-111575000D02*
X152804963Y-113791067D01*
X155300000Y-111575000D02*
X155021030Y-111575000D01*
X156260000Y-110615000D02*
X155300000Y-111575000D01*
X163115000Y-110615000D02*
X156260000Y-110615000D01*
X163225000Y-110725000D02*
X163115000Y-110615000D01*
X188950000Y-114930000D02*
X190150000Y-116130000D01*
X188950000Y-114250000D02*
X188950000Y-114930000D01*
X188480000Y-117800000D02*
X190150000Y-116130000D01*
X185660000Y-117800000D02*
X188480000Y-117800000D01*
X184620000Y-116760000D02*
X185660000Y-117800000D01*
X190150000Y-116130000D02*
X190150000Y-114250000D01*
X168466942Y-111016942D02*
X174516942Y-111016942D01*
D20*
X168175000Y-110725000D02*
X168466942Y-111016942D01*
D21*
X154000000Y-129570000D02*
X154000000Y-130500000D01*
D18*
X152804963Y-128374963D02*
X154000000Y-129570000D01*
X152804963Y-113791067D02*
X152804963Y-128374963D01*
%TO.N,+5V*%
D22*
X183039847Y-109950000D02*
X188650000Y-109950000D01*
X181264847Y-108175000D02*
X183039847Y-109950000D01*
D19*
X189800000Y-109950000D02*
X188650000Y-109950000D01*
%TO.N,/GPIO0*%
D20*
X182450000Y-124800000D02*
X169050000Y-124800000D01*
X168875000Y-118225000D02*
X169375000Y-118225000D01*
X168300000Y-124050000D02*
X168300000Y-118800000D01*
X168300000Y-118800000D02*
X168875000Y-118225000D01*
X169050000Y-124800000D02*
X168300000Y-124050000D01*
%TO.N,/GPIO1*%
X182007537Y-124500000D02*
X182237869Y-124269668D01*
X168850000Y-118700000D02*
X168600000Y-118950000D01*
X169174264Y-124500000D02*
X182007537Y-124500000D01*
X182237869Y-124269668D02*
X182980332Y-124269668D01*
X168600000Y-123925736D02*
X169174264Y-124500000D01*
X169825000Y-118700000D02*
X168850000Y-118700000D01*
X168600000Y-118950000D02*
X168600000Y-123925736D01*
%TO.N,+1.1V*%
D21*
X173018518Y-119230345D02*
X171775000Y-117986827D01*
X170000000Y-116050000D02*
X171250000Y-117300000D01*
X172750000Y-113150000D02*
X172750000Y-116275000D01*
X171725000Y-117300000D02*
X171825000Y-117200000D01*
X173018518Y-120194444D02*
X173018518Y-119230345D01*
X173813173Y-117300000D02*
X172788173Y-116275000D01*
X171250000Y-117300000D02*
X171725000Y-117300000D01*
X171775000Y-117986827D02*
X171775000Y-117250000D01*
X171775000Y-117250000D02*
X171825000Y-117200000D01*
X172788173Y-116275000D02*
X172750000Y-116275000D01*
X175150000Y-117300000D02*
X173813173Y-117300000D01*
X171825000Y-117200000D02*
X172750000Y-116275000D01*
%TO.N,/QSPI_SD2*%
D20*
X157850000Y-125025000D02*
X157850000Y-113850000D01*
X158475000Y-125650000D02*
X157850000Y-125025000D01*
%TO.N,/QSPI_SD1*%
X156575000Y-125025000D02*
X156575000Y-113850000D01*
X157200000Y-125650000D02*
X156575000Y-125025000D01*
%TO.N,+3V3*%
D18*
X165455000Y-110725000D02*
X163970000Y-110725000D01*
X163225000Y-110725000D02*
X162050000Y-109550000D01*
%TD*%
M02*
