%TF.GenerationSoftware,KiCad,Pcbnew,10.0.5*%
%TF.CreationDate,2026-08-21T00:00:12+05:30*%
%TF.ProjectId,microboy,6d696372-6f62-46f7-992e-6b696361645f,rev?*%
%TF.SameCoordinates,Original*%
%TF.FileFunction,Soldermask,Bot*%
%TF.FilePolarity,Negative*%
%FSLAX46Y46*%
G04 Gerber Fmt 4.6, Leading zero omitted, Abs format (unit mm)*
G04 Created by KiCad (PCBNEW 10.0.5) date 2026-08-21 00:00:12*
%MOMM*%
%LPD*%
G01*
G04 APERTURE LIST*
G04 Aperture macros list*
%AMFreePoly0*
4,1,23,0.500000,-0.750000,0.000000,-0.750000,0.000000,-0.745722,-0.065263,-0.745722,-0.191342,-0.711940,-0.304381,-0.646677,-0.396677,-0.554381,-0.461940,-0.441342,-0.495722,-0.315263,-0.495722,-0.250000,-0.500000,-0.250000,-0.500000,0.250000,-0.495722,0.250000,-0.495722,0.315263,-0.461940,0.441342,-0.396677,0.554381,-0.304381,0.646677,-0.191342,0.711940,-0.065263,0.745722,0.000000,0.745722,
0.000000,0.750000,0.500000,0.750000,0.500000,-0.750000,0.500000,-0.750000,$1*%
%AMFreePoly1*
4,1,23,0.000000,0.745722,0.065263,0.745722,0.191342,0.711940,0.304381,0.646677,0.396677,0.554381,0.461940,0.441342,0.495722,0.315263,0.495722,0.250000,0.500000,0.250000,0.500000,-0.250000,0.495722,-0.250000,0.495722,-0.315263,0.461940,-0.441342,0.396677,-0.554381,0.304381,-0.646677,0.191342,-0.711940,0.065263,-0.745722,0.000000,-0.745722,0.000000,-0.750000,-0.500000,-0.750000,
-0.500000,0.750000,0.000000,0.750000,0.000000,0.745722,0.000000,0.745722,$1*%
G04 Aperture macros list end*
%ADD10R,1.000000X1.000000*%
%ADD11O,1.700000X1.700000*%
%ADD12R,1.700000X1.700000*%
%ADD13C,1.000000*%
%ADD14FreePoly0,0.000000*%
%ADD15FreePoly1,0.000000*%
G04 APERTURE END LIST*
G36*
X180242499Y-112950000D02*
G01*
X180642499Y-112950000D01*
X180642499Y-113550000D01*
X180242499Y-113550000D01*
X180242499Y-112950000D01*
G37*
D10*
%TO.C,J19*%
X176430000Y-104020000D03*
%TD*%
%TO.C,J20*%
X149280000Y-104330000D03*
%TD*%
%TO.C,J10*%
X196070000Y-113140000D03*
%TD*%
D11*
%TO.C,J7*%
X192700000Y-99970000D03*
X192700000Y-97430000D03*
X192700000Y-94890000D03*
X192700000Y-92350000D03*
X192700000Y-89810000D03*
X192700000Y-87270000D03*
X192700000Y-84730000D03*
D12*
X192700000Y-82190000D03*
%TD*%
D10*
%TO.C,J15*%
X173280000Y-104140000D03*
%TD*%
%TO.C,J17*%
X166260000Y-104020000D03*
%TD*%
%TO.C,J16*%
X169970000Y-104110000D03*
%TD*%
%TO.C,J14*%
X180510000Y-104060000D03*
D13*
X179240000Y-104060000D03*
%TD*%
D10*
%TO.C,J13*%
X162910000Y-104720000D03*
D13*
X161640000Y-104720000D03*
%TD*%
D10*
%TO.C,J12*%
X157725000Y-104600000D03*
D13*
X158995000Y-104600000D03*
%TD*%
D10*
%TO.C,J11*%
X153480000Y-104460000D03*
%TD*%
%TO.C,J9*%
X195010000Y-109960000D03*
D13*
X195010000Y-108690000D03*
%TD*%
D10*
%TO.C,J4*%
X198920000Y-131730000D03*
D13*
X198920000Y-130460000D03*
X198920000Y-129190000D03*
X198920000Y-127920000D03*
X198920000Y-126650000D03*
X198920000Y-125380000D03*
X198920000Y-124110000D03*
X198920000Y-122840000D03*
X198920000Y-121570000D03*
X198920000Y-120300000D03*
%TD*%
D10*
%TO.C,J3*%
X173980000Y-131840000D03*
D13*
X175250000Y-131840000D03*
X176520000Y-131840000D03*
X177790000Y-131840000D03*
X179060000Y-131840000D03*
%TD*%
D10*
%TO.C,J1*%
X149500000Y-117440000D03*
D13*
X149500000Y-118710000D03*
X149500000Y-119980000D03*
X149500000Y-121250000D03*
X149500000Y-122520000D03*
X149500000Y-123790000D03*
X149500000Y-125060000D03*
X149500000Y-126330000D03*
X149500000Y-127600000D03*
X149500000Y-128870000D03*
%TD*%
D14*
%TO.C,JP1*%
X179792499Y-113250000D03*
D15*
X181092499Y-113250000D03*
%TD*%
D12*
%TO.C,J8*%
X164200000Y-130450000D03*
D11*
X161660000Y-130450000D03*
X159120000Y-130450000D03*
X156580000Y-130450000D03*
X154040000Y-130450000D03*
%TD*%
D10*
%TO.C,J18*%
X165600000Y-132470000D03*
D13*
X166870000Y-132470000D03*
%TD*%
M02*
