%TF.GenerationSoftware,KiCad,Pcbnew,10.0.5*%
%TF.CreationDate,2026-08-21T00:00:12+05:30*%
%TF.ProjectId,microboy,6d696372-6f62-46f7-992e-6b696361645f,rev?*%
%TF.SameCoordinates,Original*%
%TF.FileFunction,Copper,L4,Bot*%
%TF.FilePolarity,Positive*%
%FSLAX46Y46*%
G04 Gerber Fmt 4.6, Leading zero omitted, Abs format (unit mm)*
G04 Created by KiCad (PCBNEW 10.0.5) date 2026-08-21 00:00:12*
%MOMM*%
%LPD*%
G01*
G04 APERTURE LIST*
G04 Aperture macros list*
%AMFreePoly0*
4,1,23,0.500000,-0.750000,0.000000,-0.750000,0.000000,-0.745722,-0.065263,-0.745722,-0.191342,-0.711940,-0.304381,-0.646677,-0.396677,-0.554381,-0.461940,-0.441342,-0.495722,-0.315263,-0.495722,-0.250000,-0.500000,-0.250000,-0.500000,0.250000,-0.495722,0.250000,-0.495722,0.315263,-0.461940,0.441342,-0.396677,0.554381,-0.304381,0.646677,-0.191342,0.711940,-0.065263,0.745722,0.000000,0.745722,
0.000000,0.750000,0.500000,0.750000,0.500000,-0.750000,0.500000,-0.750000,$1*%
%AMFreePoly1*
4,1,23,0.000000,0.745722,0.065263,0.745722,0.191342,0.711940,0.304381,0.646677,0.396677,0.554381,0.461940,0.441342,0.495722,0.315263,0.495722,0.250000,0.500000,0.250000,0.500000,-0.250000,0.495722,-0.250000,0.495722,-0.315263,0.461940,-0.441342,0.396677,-0.554381,0.304381,-0.646677,0.191342,-0.711940,0.065263,-0.745722,0.000000,-0.745722,0.000000,-0.750000,-0.500000,-0.750000,
-0.500000,0.750000,0.000000,0.750000,0.000000,0.745722,0.000000,0.745722,$1*%
G04 Aperture macros list end*
%TA.AperFunction,EtchedComponent*%
%ADD10C,0.000000*%
%TD*%
%TA.AperFunction,ComponentPad*%
%ADD11R,1.000000X1.000000*%
%TD*%
%TA.AperFunction,ComponentPad*%
%ADD12O,1.700000X1.700000*%
%TD*%
%TA.AperFunction,ComponentPad*%
%ADD13R,1.700000X1.700000*%
%TD*%
%TA.AperFunction,ComponentPad*%
%ADD14C,1.000000*%
%TD*%
%TA.AperFunction,SMDPad,CuDef*%
%ADD15FreePoly0,0.000000*%
%TD*%
%TA.AperFunction,SMDPad,CuDef*%
%ADD16FreePoly1,0.000000*%
%TD*%
%TA.AperFunction,ViaPad*%
%ADD17C,0.600000*%
%TD*%
%TA.AperFunction,ViaPad*%
%ADD18C,0.700000*%
%TD*%
%TA.AperFunction,ViaPad*%
%ADD19C,0.800000*%
%TD*%
%TA.AperFunction,ViaPad*%
%ADD20C,0.500000*%
%TD*%
%TA.AperFunction,Conductor*%
%ADD21C,0.150000*%
%TD*%
G04 APERTURE END LIST*
D10*
%TA.AperFunction,EtchedComponent*%
%TO.C,JP1*%
G36*
X180692499Y-113550000D02*
G01*
X180192499Y-113550000D01*
X180192499Y-112950000D01*
X180692499Y-112950000D01*
X180692499Y-113550000D01*
G37*
%TD.AperFunction*%
%TD*%
D11*
%TO.P,J19,1,Pin_1_1*%
%TO.N,/BAT_STAT*%
X176430000Y-104020000D03*
%TD*%
%TO.P,J20,1,Pin_1_1*%
%TO.N,/~{RESET}*%
X149280000Y-104330000D03*
%TD*%
%TO.P,J10,1,Pin_1_1*%
%TO.N,/GPIO36*%
X196070000Y-113140000D03*
%TD*%
D12*
%TO.P,J7,8,Pin_8_8*%
%TO.N,+3V3*%
X192700000Y-99970000D03*
%TO.P,J7,7,Pin_7_7*%
%TO.N,GND*%
X192700000Y-97430000D03*
%TO.P,J7,6,Pin_6_6*%
%TO.N,/GPIO40*%
X192700000Y-94890000D03*
%TO.P,J7,5,Pin_5_5*%
%TO.N,/GPIO41*%
X192700000Y-92350000D03*
%TO.P,J7,4,Pin_4_4*%
%TO.N,/GPIO42*%
X192700000Y-89810000D03*
%TO.P,J7,3,Pin_3_3*%
%TO.N,/GPIO43*%
X192700000Y-87270000D03*
%TO.P,J7,2,Pin_2_2*%
%TO.N,/GPIO44*%
X192700000Y-84730000D03*
D13*
%TO.P,J7,1,Pin_1_1*%
%TO.N,/GPIO45*%
X192700000Y-82190000D03*
%TD*%
D11*
%TO.P,J15,1,Pin_1_1*%
%TO.N,/LDO_EN*%
X173280000Y-104140000D03*
%TD*%
%TO.P,J17,1,Pin_1_1*%
%TO.N,+5V*%
X166260000Y-104020000D03*
%TD*%
%TO.P,J16,1,Pin_1_1*%
%TO.N,VBAT*%
X169970000Y-104110000D03*
%TD*%
%TO.P,J14,1,Pin_1_1*%
%TO.N,/GPIO46*%
X180510000Y-104060000D03*
D14*
%TO.P,J14,2,Pin_2_2*%
%TO.N,/GPIO47*%
X179240000Y-104060000D03*
%TD*%
D11*
%TO.P,J13,1,Pin_1_1*%
%TO.N,/USB_D-*%
X162910000Y-104720000D03*
D14*
%TO.P,J13,2,Pin_2_2*%
%TO.N,/USB_D+*%
X161640000Y-104720000D03*
%TD*%
D11*
%TO.P,J12,1,Pin_1_1*%
%TO.N,/SWCLK*%
X157725000Y-104600000D03*
D14*
%TO.P,J12,2,Pin_2_2*%
%TO.N,/SWDIO*%
X158995000Y-104600000D03*
%TD*%
D11*
%TO.P,J11,1,Pin_1_1*%
%TO.N,/BOOTSEL*%
X153480000Y-104460000D03*
%TD*%
%TO.P,J9,1,Pin_1_1*%
%TO.N,/GPIO38*%
X195010000Y-109960000D03*
D14*
%TO.P,J9,2,Pin_2_2*%
%TO.N,/GPIO39*%
X195010000Y-108690000D03*
%TD*%
D11*
%TO.P,J4,1,Pin_1_1*%
%TO.N,/GPIO25*%
X198920000Y-131730000D03*
D14*
%TO.P,J4,2,Pin_2_2*%
%TO.N,/GPIO26*%
X198920000Y-130460000D03*
%TO.P,J4,3,Pin_3_3*%
%TO.N,/GPIO27*%
X198920000Y-129190000D03*
%TO.P,J4,4,Pin_4_4*%
%TO.N,/GPIO28*%
X198920000Y-127920000D03*
%TO.P,J4,5,Pin_5_5*%
%TO.N,/GPIO29*%
X198920000Y-126650000D03*
%TO.P,J4,6,Pin_6_6*%
%TO.N,/GPIO30*%
X198920000Y-125380000D03*
%TO.P,J4,7,Pin_7_7*%
%TO.N,/GPIO31*%
X198920000Y-124110000D03*
%TO.P,J4,8,Pin_8_8*%
%TO.N,/GPIO32*%
X198920000Y-122840000D03*
%TO.P,J4,9,Pin_9_9*%
%TO.N,/GPIO33*%
X198920000Y-121570000D03*
%TO.P,J4,10,Pin_10_10*%
%TO.N,/GPIO34*%
X198920000Y-120300000D03*
%TD*%
D11*
%TO.P,J3,1,Pin_1_1*%
%TO.N,/GPIO19*%
X173980000Y-131840000D03*
D14*
%TO.P,J3,2,Pin_2_2*%
%TO.N,/GPIO20*%
X175250000Y-131840000D03*
%TO.P,J3,3,Pin_3_3*%
%TO.N,/GPIO21*%
X176520000Y-131840000D03*
%TO.P,J3,4,Pin_4_4*%
%TO.N,/GPIO22*%
X177790000Y-131840000D03*
%TO.P,J3,5,Pin_5_5*%
%TO.N,/GPIO23*%
X179060000Y-131840000D03*
%TD*%
D11*
%TO.P,J1,1,Pin_1_1*%
%TO.N,/GPIO4*%
X149500000Y-117440000D03*
D14*
%TO.P,J1,2,Pin_2_2*%
%TO.N,/GPIO5*%
X149500000Y-118710000D03*
%TO.P,J1,3,Pin_3_3*%
%TO.N,/GPIO6*%
X149500000Y-119980000D03*
%TO.P,J1,4,Pin_4_4*%
%TO.N,/GPIO7*%
X149500000Y-121250000D03*
%TO.P,J1,5,Pin_5_5*%
%TO.N,/GPIO8*%
X149500000Y-122520000D03*
%TO.P,J1,6,Pin_6_6*%
%TO.N,/GPIO9*%
X149500000Y-123790000D03*
%TO.P,J1,7,Pin_7_7*%
%TO.N,/GPIO10*%
X149500000Y-125060000D03*
%TO.P,J1,8,Pin_8_8*%
%TO.N,/GPIO11*%
X149500000Y-126330000D03*
%TO.P,J1,9,Pin_9_9*%
%TO.N,/GPIO12*%
X149500000Y-127600000D03*
%TO.P,J1,10,Pin_10_10*%
%TO.N,/GPIO13*%
X149500000Y-128870000D03*
%TD*%
D15*
%TO.P,JP1,1,A_1*%
%TO.N,Net-(JP1-A)*%
X179792499Y-113250000D03*
D16*
%TO.P,JP1,2,B_2*%
%TO.N,/BAT_STAT*%
X181092499Y-113250000D03*
%TD*%
D13*
%TO.P,J8,1,Pin_1_1*%
%TO.N,/GPIO16*%
X164200000Y-130450000D03*
D12*
%TO.P,J8,2,Pin_2_2*%
%TO.N,/GPIO15*%
X161660000Y-130450000D03*
%TO.P,J8,3,Pin_3_3*%
%TO.N,/GPIO14*%
X159120000Y-130450000D03*
%TO.P,J8,4,Pin_4_4*%
%TO.N,GND*%
X156580000Y-130450000D03*
%TO.P,J8,5,Pin_5_5*%
%TO.N,+3V3*%
X154040000Y-130450000D03*
%TD*%
D11*
%TO.P,J18,1,Pin_1_1*%
%TO.N,/GPIO16*%
X165600000Y-132470000D03*
D14*
%TO.P,J18,2,Pin_2_2*%
%TO.N,/GPIO17*%
X166870000Y-132470000D03*
%TD*%
D17*
%TO.N,/BAT_STAT*%
X175440000Y-106270000D03*
%TO.N,/~{RESET}*%
X155450000Y-105890000D03*
%TO.N,GND*%
X184090000Y-106840736D03*
X195100000Y-97400000D03*
D18*
%TO.N,+3V3*%
X182130776Y-113275229D03*
D17*
%TO.N,/GPIO24*%
X182020000Y-127780000D03*
%TO.N,/GPIO35*%
X193460000Y-115880000D03*
%TO.N,/GPIO37*%
X198140000Y-110000000D03*
%TO.N,GND*%
X172260000Y-132120000D03*
%TO.N,/GPIO18*%
X169440000Y-128210000D03*
%TO.N,/GPIO3*%
X146290000Y-120020000D03*
%TO.N,/GPIO2*%
X151470000Y-112230000D03*
%TO.N,/GPIO1*%
X151470000Y-110270000D03*
%TO.N,/GPIO0*%
X147040000Y-108250000D03*
%TO.N,+3V3*%
X167100000Y-116600000D03*
D19*
X190150000Y-114250000D03*
X169475000Y-123650000D03*
X188950000Y-114250000D03*
X162050000Y-109550000D03*
D17*
X152804963Y-113791067D03*
D19*
X175875000Y-123775000D03*
X174516942Y-111016942D03*
X180725000Y-123075000D03*
D17*
X155300000Y-118875000D03*
X155300000Y-111575000D03*
X167200000Y-120400000D03*
D19*
X168175000Y-110725000D03*
D17*
%TO.N,GND*%
X175550430Y-110125000D03*
D19*
X192150000Y-115100000D03*
D17*
X182150000Y-117200000D03*
X174325000Y-115875000D03*
X172950000Y-117250000D03*
X171575000Y-118600000D03*
X155925000Y-120325000D03*
X188700000Y-124275000D03*
D19*
X188162030Y-114941663D03*
D17*
X182150000Y-114075000D03*
D19*
X167400000Y-111700000D03*
D17*
X162300000Y-116350000D03*
X182150000Y-121900000D03*
X163600000Y-120400000D03*
X158450000Y-120325000D03*
X172396600Y-126671600D03*
X172650000Y-108350000D03*
X174325000Y-118625000D03*
D19*
X165750000Y-112250000D03*
D17*
X182150000Y-115500000D03*
X188700000Y-116391663D03*
X165450000Y-116525000D03*
X170450000Y-108350000D03*
X159100000Y-113875000D03*
X189080000Y-107975000D03*
X185700000Y-111850000D03*
X171575000Y-115900000D03*
D19*
%TO.N,VBAT*%
X187860000Y-110910000D03*
X186700000Y-110910000D03*
D17*
%TO.N,+5V*%
X181264847Y-108175000D03*
D19*
X188650000Y-109950000D03*
X189800000Y-109950000D03*
D20*
%TO.N,/~{RESET}*%
X167323528Y-122300000D03*
X178825000Y-113250000D03*
X175050000Y-119525000D03*
%TO.N,/SWDIO*%
X176800000Y-116175000D03*
X175500000Y-114750000D03*
D17*
X187700000Y-118900000D03*
%TO.N,/SWCLK*%
X189700000Y-118900000D03*
D20*
X176300000Y-116600000D03*
X175175000Y-115318204D03*
%TO.N,/GPIO5*%
X169625000Y-120700000D03*
%TO.N,/GPIO3*%
X169825000Y-119650000D03*
%TO.N,/GPIO6*%
X170100000Y-121150000D03*
%TO.N,/GPIO7*%
X170575000Y-120700000D03*
%TO.N,/GPIO8*%
X171050000Y-121150000D03*
D17*
%TO.N,/GPIO0*%
X182450000Y-124800000D03*
X189700000Y-124275000D03*
D20*
X169375000Y-118225000D03*
%TO.N,/GPIO2*%
X169375000Y-119175000D03*
D17*
%TO.N,/GPIO1*%
X182980332Y-124269668D03*
D20*
X169825000Y-118700000D03*
D17*
X187700000Y-124275000D03*
D20*
%TO.N,/GPIO9*%
X171525000Y-120700000D03*
%TO.N,/GPIO4*%
X169150000Y-121150000D03*
%TO.N,/GPIO22*%
X176875000Y-120200000D03*
%TO.N,/GPIO40*%
X173525000Y-113775000D03*
%TO.N,/GPIO23*%
X176425000Y-119725000D03*
%TO.N,/GPIO20*%
X176750000Y-122925000D03*
%TO.N,/GPIO37*%
X174950000Y-113325000D03*
%TO.N,/GPIO41*%
X172225000Y-114325000D03*
%TO.N,/GPIO21*%
X177350000Y-121650000D03*
%TO.N,/GPIO38*%
X174475000Y-113775000D03*
%TO.N,/GPIO24*%
X176875000Y-119250000D03*
%TO.N,/GPIO35*%
X175900000Y-113325000D03*
%TO.N,/GPIO18*%
X176400000Y-120650000D03*
%TO.N,/GPIO15*%
X174975000Y-121100000D03*
%TO.N,/GPIO44*%
X170800000Y-113875000D03*
%TO.N,/GPIO43*%
X171275000Y-114325000D03*
%TO.N,/GPIO36*%
X175425000Y-113775000D03*
%TO.N,/GPIO42*%
X171750000Y-113875000D03*
%TO.N,/GPIO16*%
X175450000Y-120650000D03*
%TO.N,/GPIO17*%
X175925000Y-121100000D03*
%TO.N,/GPIO19*%
X176875000Y-121150000D03*
%TO.N,/GPIO39*%
X174000000Y-113325000D03*
D17*
%TO.N,/LDO_EN*%
X185416268Y-115983732D03*
D20*
%TO.N,/GPIO46*%
X169850000Y-113875000D03*
%TO.N,/GPIO47*%
X169375000Y-114325000D03*
%TO.N,/GPIO45*%
X170325000Y-114325000D03*
%TO.N,/GPIO14*%
X174500000Y-120650000D03*
%TO.N,/GPIO12*%
X173550000Y-120650000D03*
%TO.N,/GPIO10*%
X172000000Y-121150000D03*
%TO.N,/GPIO11*%
X172475000Y-120700000D03*
%TO.N,/GPIO13*%
X174025000Y-121100000D03*
%TO.N,/GPIO32*%
X177350000Y-112850000D03*
%TO.N,/GPIO34*%
X176375000Y-113775000D03*
%TO.N,/GPIO33*%
X176850000Y-113325000D03*
%TO.N,/GPIO31*%
X176800000Y-114275000D03*
%TO.N,/GPIO30*%
X176350000Y-114750000D03*
%TO.N,/GPIO26*%
X176875000Y-118300000D03*
%TO.N,/GPIO25*%
X176425000Y-118775000D03*
%TO.N,/GPIO27*%
X176350000Y-117850000D03*
%TO.N,/GPIO29*%
X176800000Y-115225000D03*
%TO.N,/GPIO28*%
X176134338Y-115493910D03*
D17*
%TO.N,+1.1V*%
X175150000Y-117300000D03*
X173018518Y-120194444D03*
D19*
X164000000Y-114725000D03*
D17*
X172750000Y-113150000D03*
X170000000Y-116050000D03*
D20*
%TO.N,/BOOTSEL*%
X160750000Y-121000000D03*
%TO.N,/QSPI_SD0*%
X159750000Y-119275000D03*
X159125000Y-112600000D03*
%TO.N,/QSPI_SD2*%
X158475000Y-125650000D03*
X157850000Y-113850000D03*
%TO.N,/QSPI_SD3*%
X156575000Y-112400000D03*
X157200000Y-119275000D03*
%TO.N,/QSPI_SD1*%
X157200000Y-125650000D03*
X156575000Y-113850000D03*
%TO.N,/QSPI_SCLK*%
X157850000Y-112750000D03*
X158475000Y-119275000D03*
%TO.N,/BAT_STAT*%
X180570729Y-111877755D03*
%TO.N,Net-(JP1-A)*%
X178910000Y-111890000D03*
D18*
%TO.N,GND*%
X137440000Y-108030000D03*
X133460000Y-113930000D03*
X143280000Y-113980000D03*
X137860000Y-119960000D03*
X200780000Y-116050000D03*
X205650000Y-110020000D03*
X182000000Y-133635000D03*
D17*
X174750000Y-126250000D03*
X164300000Y-126800000D03*
X160750000Y-126800000D03*
%TD*%
%TO.N,/BAT_STAT*%
D21*
X176430000Y-105280000D02*
X176430000Y-104020000D01*
X175440000Y-106270000D02*
X176430000Y-105280000D01*
%TO.N,/GPIO47*%
X179240000Y-106810000D02*
X179240000Y-104060000D01*
X178300000Y-107750000D02*
X179240000Y-106810000D01*
X169375000Y-112729416D02*
X174354416Y-107750000D01*
X169375000Y-114325000D02*
X169375000Y-112729416D01*
X174354416Y-107750000D02*
X178300000Y-107750000D01*
%TO.N,/GPIO46*%
X180510000Y-107715736D02*
X180510000Y-104060000D01*
X180175736Y-108050000D02*
X180510000Y-107715736D01*
X174478680Y-108050000D02*
X180175736Y-108050000D01*
X169850000Y-112678680D02*
X174478680Y-108050000D01*
X169850000Y-113875000D02*
X169850000Y-112678680D01*
%TO.N,/~{RESET}*%
X155450000Y-107375000D02*
X155450000Y-105890000D01*
X154700000Y-108125000D02*
X155450000Y-107375000D01*
X154699264Y-112784009D02*
X154700000Y-112783273D01*
X154699264Y-119016727D02*
X154699264Y-112784009D01*
X155025000Y-119342463D02*
X154699264Y-119016727D01*
X155025000Y-120725736D02*
X155025000Y-119342463D01*
X154700000Y-112783273D02*
X154700000Y-108125000D01*
X160075000Y-120975000D02*
X155274264Y-120975000D01*
X160525000Y-120525000D02*
X160075000Y-120975000D01*
X160946752Y-120525000D02*
X160525000Y-120525000D01*
X161225000Y-120803248D02*
X160946752Y-120525000D01*
X161225000Y-121125000D02*
X161225000Y-120803248D01*
X163870225Y-121275000D02*
X161375000Y-121275000D01*
X161375000Y-121275000D02*
X161225000Y-121125000D01*
X167395225Y-117750000D02*
X163870225Y-121275000D01*
X155274264Y-120975000D02*
X155025000Y-120725736D01*
X169600000Y-117750000D02*
X167395225Y-117750000D01*
X170300000Y-118450000D02*
X169600000Y-117750000D01*
X170300000Y-120050000D02*
X170300000Y-118450000D01*
%TO.N,GND*%
X160230000Y-126800000D02*
X160750000Y-126800000D01*
X156580000Y-130450000D02*
X160230000Y-126800000D01*
%TO.N,/GPIO14*%
X159180000Y-129080000D02*
X159120000Y-129140000D01*
X159212463Y-129080000D02*
X159180000Y-129080000D01*
X162517463Y-125775000D02*
X159212463Y-129080000D01*
X170429416Y-125775000D02*
X162517463Y-125775000D01*
X174500000Y-121704416D02*
X170429416Y-125775000D01*
X159120000Y-129140000D02*
X159120000Y-130450000D01*
X174500000Y-120650000D02*
X174500000Y-121704416D01*
%TO.N,/GPIO15*%
X170553680Y-126075000D02*
X162875000Y-126075000D01*
X174975000Y-121653680D02*
X170553680Y-126075000D01*
X174975000Y-121100000D02*
X174975000Y-121653680D01*
X162875000Y-126075000D02*
X161660000Y-127290000D01*
X161660000Y-127290000D02*
X161660000Y-130450000D01*
%TO.N,/GPIO16*%
X164959264Y-128600736D02*
X164200000Y-129360000D01*
X164200000Y-129360000D02*
X164200000Y-130450000D01*
X165600000Y-128600736D02*
X164959264Y-128600736D01*
%TO.N,/GPIO45*%
X189950000Y-84940000D02*
X192700000Y-82190000D01*
X189950000Y-102001472D02*
X189950000Y-84940000D01*
X184585736Y-107365736D02*
X189950000Y-102001472D01*
X181284264Y-107365736D02*
X184585736Y-107365736D01*
X180300000Y-108350000D02*
X181284264Y-107365736D01*
X174602944Y-108350000D02*
X180300000Y-108350000D01*
X170325000Y-112627944D02*
X174602944Y-108350000D01*
X170325000Y-114325000D02*
X170325000Y-112627944D01*
%TO.N,/GPIO44*%
X190250000Y-87180000D02*
X192700000Y-84730000D01*
X190250000Y-102125736D02*
X190250000Y-87180000D01*
X174677208Y-108700000D02*
X183675736Y-108700000D01*
X170800000Y-112577208D02*
X174677208Y-108700000D01*
X183675736Y-108700000D02*
X190250000Y-102125736D01*
X170800000Y-113875000D02*
X170800000Y-112577208D01*
%TO.N,/GPIO43*%
X190550000Y-102250000D02*
X190550000Y-89420000D01*
X183800000Y-109000000D02*
X190550000Y-102250000D01*
X174801472Y-109000000D02*
X183800000Y-109000000D01*
X190550000Y-89420000D02*
X192700000Y-87270000D01*
X171275000Y-112526472D02*
X174801472Y-109000000D01*
X171275000Y-114325000D02*
X171275000Y-112526472D01*
%TO.N,/GPIO42*%
X190850000Y-91660000D02*
X192700000Y-89810000D01*
X190850000Y-104160000D02*
X190850000Y-91660000D01*
X187360000Y-107650000D02*
X190850000Y-104160000D01*
X185574264Y-107650000D02*
X187360000Y-107650000D01*
X183924264Y-109300000D02*
X185574264Y-107650000D01*
X174925736Y-109300000D02*
X183924264Y-109300000D01*
X171750000Y-112475736D02*
X174925736Y-109300000D01*
X171750000Y-113875000D02*
X171750000Y-112475736D01*
%TO.N,/GPIO41*%
X191150000Y-93900000D02*
X192700000Y-92350000D01*
X191150000Y-105090000D02*
X191150000Y-93900000D01*
X189090000Y-107150000D02*
X191150000Y-105090000D01*
X188550000Y-107150000D02*
X189090000Y-107150000D01*
X187750000Y-107950000D02*
X188550000Y-107150000D01*
X185698528Y-107950000D02*
X187750000Y-107950000D01*
X184048528Y-109600000D02*
X185698528Y-107950000D01*
X175050000Y-109600000D02*
X184048528Y-109600000D01*
X172225000Y-112425000D02*
X175050000Y-109600000D01*
X172225000Y-114325000D02*
X172225000Y-112425000D01*
%TO.N,/GPIO40*%
X191450000Y-96140000D02*
X192700000Y-94890000D01*
X191450000Y-105494264D02*
X191450000Y-96140000D01*
X189494264Y-107450000D02*
X191450000Y-105494264D01*
X188674264Y-107450000D02*
X189494264Y-107450000D01*
X187874264Y-108250000D02*
X188674264Y-107450000D01*
X185822792Y-108250000D02*
X187874264Y-108250000D01*
X184172792Y-109900000D02*
X185822792Y-108250000D01*
X176543324Y-109900000D02*
X184172792Y-109900000D01*
X173525000Y-112918324D02*
X176543324Y-109900000D01*
X173525000Y-113775000D02*
X173525000Y-112918324D01*
%TO.N,/BOOTSEL*%
X153480000Y-106220000D02*
X153480000Y-104460000D01*
X153450000Y-106250000D02*
X153480000Y-106220000D01*
%TO.N,/GPIO36*%
X185272056Y-113400000D02*
X195810000Y-113400000D01*
X182972056Y-111100000D02*
X185272056Y-113400000D01*
X175425000Y-112830456D02*
X177155456Y-111100000D01*
X175425000Y-113775000D02*
X175425000Y-112830456D01*
X177155456Y-111100000D02*
X182972056Y-111100000D01*
X195810000Y-113400000D02*
X196070000Y-113140000D01*
%TO.N,/GPIO47*%
X178840000Y-104080000D02*
X178760000Y-104080000D01*
%TO.N,/SWDIO*%
X158995000Y-105795000D02*
X158995000Y-104600000D01*
X159450000Y-106250000D02*
X158995000Y-105795000D01*
%TO.N,/SWCLK*%
X157725000Y-105975000D02*
X157725000Y-104600000D01*
X157450000Y-106250000D02*
X157725000Y-105975000D01*
%TO.N,/GPIO22*%
X177950000Y-120600000D02*
X177950000Y-131680000D01*
X177950000Y-131680000D02*
X177790000Y-131840000D01*
X177550000Y-120200000D02*
X177950000Y-120600000D01*
%TO.N,/GPIO23*%
X179060000Y-125259264D02*
X179060000Y-131840000D01*
X178250000Y-124449264D02*
X179060000Y-125259264D01*
%TO.N,/GPIO21*%
X176520000Y-124030000D02*
X177350000Y-123200000D01*
X176520000Y-131840000D02*
X176520000Y-124030000D01*
%TO.N,/GPIO20*%
X175275000Y-131815000D02*
X175250000Y-131840000D01*
X175275000Y-126032537D02*
X175275000Y-131815000D01*
X175250000Y-126007537D02*
X175275000Y-126032537D01*
X175825000Y-122925000D02*
X175250000Y-123500000D01*
X175250000Y-123500000D02*
X175250000Y-126007537D01*
%TO.N,/GPIO19*%
X173980000Y-124345736D02*
X173980000Y-131840000D01*
X176875000Y-121450736D02*
X173980000Y-124345736D01*
%TO.N,/GPIO23*%
X177499264Y-119725000D02*
X178250000Y-120475736D01*
X178250000Y-120475736D02*
X178250000Y-124449264D01*
X176425000Y-119725000D02*
X177499264Y-119725000D01*
%TO.N,/GPIO34*%
X198920000Y-119450000D02*
X198920000Y-120300000D01*
X197720000Y-118250000D02*
X198920000Y-119450000D01*
X191497056Y-118250000D02*
X197720000Y-118250000D01*
X190297056Y-117050000D02*
X191497056Y-118250000D01*
X184897056Y-117050000D02*
X190297056Y-117050000D01*
X182522056Y-114675000D02*
X184897056Y-117050000D01*
X178747792Y-114675000D02*
X182522056Y-114675000D01*
X178212132Y-114139340D02*
X178747792Y-114675000D01*
X178212132Y-112616116D02*
X178212132Y-114139340D01*
X177598008Y-112001992D02*
X178212132Y-112616116D01*
X177101992Y-112001992D02*
X177598008Y-112001992D01*
X176375000Y-112728984D02*
X177101992Y-112001992D01*
X176375000Y-113775000D02*
X176375000Y-112728984D01*
%TO.N,/GPIO33*%
X192250000Y-120000000D02*
X193820000Y-121570000D01*
X193820000Y-121570000D02*
X198920000Y-121570000D01*
%TO.N,/GPIO32*%
X192990000Y-122840000D02*
X198920000Y-122840000D01*
X191950000Y-121800000D02*
X192990000Y-122840000D01*
%TO.N,/GPIO31*%
X191650000Y-123500000D02*
X192260000Y-124110000D01*
X192260000Y-124110000D02*
X198920000Y-124110000D01*
%TO.N,/GPIO25*%
X189552944Y-127025000D02*
X194257944Y-131730000D01*
X178850000Y-120227208D02*
X178850000Y-124200736D01*
X177397792Y-118775000D02*
X178850000Y-120227208D01*
X176425000Y-118775000D02*
X177397792Y-118775000D01*
X178850000Y-124200736D02*
X181674264Y-127025000D01*
X181674264Y-127025000D02*
X189552944Y-127025000D01*
X194257944Y-131730000D02*
X198920000Y-131730000D01*
%TO.N,/GPIO26*%
X193412208Y-130460000D02*
X198920000Y-130460000D01*
X179150000Y-120102944D02*
X179150000Y-124076472D01*
X189677208Y-126725000D02*
X193412208Y-130460000D01*
X177347056Y-118300000D02*
X179150000Y-120102944D01*
X181798528Y-126725000D02*
X189677208Y-126725000D01*
X176875000Y-118300000D02*
X177347056Y-118300000D01*
X179150000Y-124076472D02*
X181798528Y-126725000D01*
%TO.N,/GPIO27*%
X192566472Y-129190000D02*
X198920000Y-129190000D01*
X189801472Y-126425000D02*
X192566472Y-129190000D01*
X181922792Y-126425000D02*
X189801472Y-126425000D01*
X179450000Y-123952208D02*
X181922792Y-126425000D01*
X179450000Y-119978680D02*
X179450000Y-123952208D01*
X177296320Y-117825000D02*
X179450000Y-119978680D01*
X176375000Y-117825000D02*
X177296320Y-117825000D01*
X176350000Y-117850000D02*
X176375000Y-117825000D01*
%TO.N,/GPIO28*%
X191720736Y-127920000D02*
X198920000Y-127920000D01*
X189925736Y-126125000D02*
X191720736Y-127920000D01*
X182047056Y-126125000D02*
X189925736Y-126125000D01*
X179750000Y-123827944D02*
X182047056Y-126125000D01*
X179750000Y-119854416D02*
X179750000Y-123827944D01*
X177270584Y-117375000D02*
X179750000Y-119854416D01*
X175978984Y-117375000D02*
X177270584Y-117375000D01*
X175500000Y-116896016D02*
X175978984Y-117375000D01*
X175500000Y-116300000D02*
X175500000Y-116896016D01*
X176134338Y-115665662D02*
X175500000Y-116300000D01*
X176134338Y-115493910D02*
X176134338Y-115665662D01*
%TO.N,/GPIO29*%
X190875000Y-126650000D02*
X198920000Y-126650000D01*
X190050000Y-125825000D02*
X190875000Y-126650000D01*
%TO.N,/GPIO30*%
X192580000Y-125380000D02*
X198920000Y-125380000D01*
X191350000Y-124150000D02*
X192580000Y-125380000D01*
%TO.N,/GPIO38*%
X194690000Y-109960000D02*
X195010000Y-109960000D01*
X194400000Y-110250000D02*
X194690000Y-109960000D01*
X191550000Y-109300000D02*
X192500000Y-110250000D01*
X185621320Y-109300000D02*
X191550000Y-109300000D01*
X184421320Y-110500000D02*
X185621320Y-109300000D01*
X176791852Y-110500000D02*
X184421320Y-110500000D01*
X174475000Y-112816852D02*
X176791852Y-110500000D01*
X192500000Y-110250000D02*
X194400000Y-110250000D01*
X174475000Y-113775000D02*
X174475000Y-112816852D01*
%TO.N,/GPIO39*%
X194960000Y-108690000D02*
X195010000Y-108690000D01*
X194520000Y-108250000D02*
X194960000Y-108690000D01*
X192300000Y-108250000D02*
X194520000Y-108250000D01*
X191550000Y-109000000D02*
X192300000Y-108250000D01*
X185497056Y-109000000D02*
X191550000Y-109000000D01*
X184297056Y-110200000D02*
X185497056Y-109000000D01*
X176667588Y-110200000D02*
X184297056Y-110200000D01*
X174000000Y-112867588D02*
X176667588Y-110200000D01*
X174000000Y-113325000D02*
X174000000Y-112867588D01*
%TO.N,/GPIO17*%
X166870000Y-127755000D02*
X166870000Y-132470000D01*
X167950000Y-126675000D02*
X166870000Y-127755000D01*
X170802208Y-126675000D02*
X167950000Y-126675000D01*
X175925000Y-121552208D02*
X170802208Y-126675000D01*
X175925000Y-121100000D02*
X175925000Y-121552208D01*
%TO.N,/GPIO16*%
X165600000Y-128600736D02*
X165600000Y-132470000D01*
X167825736Y-126375000D02*
X165600000Y-128600736D01*
X170677944Y-126375000D02*
X167825736Y-126375000D01*
X175450000Y-121602944D02*
X170677944Y-126375000D01*
X175450000Y-120650000D02*
X175450000Y-121602944D01*
%TO.N,/GPIO13*%
X156360000Y-128870000D02*
X149500000Y-128870000D01*
X170305152Y-125475000D02*
X159755000Y-125475000D01*
X174025000Y-121100000D02*
X174025000Y-121755152D01*
X174025000Y-121755152D02*
X170305152Y-125475000D01*
X159755000Y-125475000D02*
X156360000Y-128870000D01*
%TO.N,/GPIO12*%
X157675000Y-125625000D02*
X157675000Y-126935000D01*
X157675000Y-126935000D02*
X157010000Y-127600000D01*
X158125000Y-125175000D02*
X157675000Y-125625000D01*
X170180888Y-125175000D02*
X158125000Y-125175000D01*
X173550000Y-121805888D02*
X170180888Y-125175000D01*
X157010000Y-127600000D02*
X149500000Y-127600000D01*
X173550000Y-120650000D02*
X173550000Y-121805888D01*
%TO.N,/GPIO11*%
X155669264Y-126330000D02*
X149500000Y-126330000D01*
X156767004Y-125232260D02*
X155669264Y-126330000D01*
%TO.N,/GPIO10*%
X155590000Y-125060000D02*
X149500000Y-125060000D01*
X156075000Y-124575000D02*
X155590000Y-125060000D01*
%TO.N,/GPIO9*%
X149985000Y-124275000D02*
X149500000Y-123790000D01*
X169808096Y-124275000D02*
X149985000Y-124275000D01*
X171525000Y-120725000D02*
X171525000Y-122558096D01*
X171525000Y-122558096D02*
X169808096Y-124275000D01*
%TO.N,/GPIO8*%
X150980000Y-122520000D02*
X149500000Y-122520000D01*
X152435000Y-123975000D02*
X150980000Y-122520000D01*
X169216116Y-123025000D02*
X168266116Y-123975000D01*
X169472056Y-123025000D02*
X169216116Y-123025000D01*
X171050000Y-121447056D02*
X169472056Y-123025000D01*
X168266116Y-123975000D02*
X152435000Y-123975000D01*
X171050000Y-121150000D02*
X171050000Y-121447056D01*
%TO.N,/GPIO7*%
X150450000Y-121250000D02*
X149500000Y-121250000D01*
X151450000Y-122250000D02*
X150450000Y-121250000D01*
%TO.N,/GPIO6*%
X151470000Y-120250000D02*
X151200000Y-119980000D01*
X151200000Y-119980000D02*
X149500000Y-119980000D01*
X151530000Y-120250000D02*
X151450000Y-120250000D01*
X151530000Y-120250000D02*
X151470000Y-120250000D01*
%TO.N,/GPIO5*%
X151359264Y-118710000D02*
X149500000Y-118710000D01*
X152924264Y-120275000D02*
X151359264Y-118710000D01*
X152924264Y-121647056D02*
X152924264Y-120275000D01*
X168843324Y-122125000D02*
X167893324Y-123075000D01*
X169625000Y-121599264D02*
X169099264Y-122125000D01*
X154352208Y-123075000D02*
X152924264Y-121647056D01*
X167893324Y-123075000D02*
X154352208Y-123075000D01*
X169625000Y-120700000D02*
X169625000Y-121599264D01*
X169099264Y-122125000D02*
X168843324Y-122125000D01*
%TO.N,/GPIO4*%
X152200000Y-117440000D02*
X149500000Y-117440000D01*
X152899264Y-118139264D02*
X152200000Y-117440000D01*
X152899264Y-119825736D02*
X152899264Y-118139264D01*
X167769060Y-122775000D02*
X154476472Y-122775000D01*
X154476472Y-122775000D02*
X153224264Y-121522792D01*
X168719060Y-121825000D02*
X167769060Y-122775000D01*
X168975000Y-121825000D02*
X168719060Y-121825000D01*
X153224264Y-120150736D02*
X152899264Y-119825736D01*
X169150000Y-121650000D02*
X168975000Y-121825000D01*
X169150000Y-121150000D02*
X169150000Y-121650000D01*
X153224264Y-121522792D02*
X153224264Y-120150736D01*
%TO.N,/GPIO3*%
X146270000Y-120000000D02*
X146290000Y-120020000D01*
X146270000Y-115490000D02*
X146270000Y-120000000D01*
X147510000Y-114250000D02*
X146270000Y-115490000D01*
X152550000Y-114250000D02*
X147510000Y-114250000D01*
X153199264Y-114899264D02*
X152550000Y-114250000D01*
X153199264Y-119701472D02*
X153199264Y-114899264D01*
X153524264Y-121398528D02*
X153524264Y-120026472D01*
X164367281Y-122475000D02*
X154600736Y-122475000D01*
X154600736Y-122475000D02*
X153524264Y-121398528D01*
X167192281Y-119650000D02*
X164367281Y-122475000D01*
X153524264Y-120026472D02*
X153199264Y-119701472D01*
X169825000Y-119650000D02*
X167192281Y-119650000D01*
%TO.N,/GPIO24*%
X182005000Y-127780000D02*
X182020000Y-127780000D01*
X178550000Y-124325000D02*
X182005000Y-127780000D01*
X177448528Y-119250000D02*
X178550000Y-120351472D01*
X178550000Y-120351472D02*
X178550000Y-124325000D01*
X176875000Y-119250000D02*
X177448528Y-119250000D01*
%TO.N,/GPIO35*%
X193446663Y-115866663D02*
X193460000Y-115880000D01*
X182847792Y-111400000D02*
X187314455Y-115866663D01*
X177279720Y-111400000D02*
X182847792Y-111400000D01*
X175900000Y-112779720D02*
X177279720Y-111400000D01*
X175900000Y-113325000D02*
X175900000Y-112779720D01*
X187314455Y-115866663D02*
X193446663Y-115866663D01*
%TO.N,/GPIO37*%
X196850000Y-110000000D02*
X198140000Y-110000000D01*
X192550000Y-112250000D02*
X194600000Y-112250000D01*
X191700000Y-113100000D02*
X192550000Y-112250000D01*
X183096320Y-110800000D02*
X185396320Y-113100000D01*
X185396320Y-113100000D02*
X191700000Y-113100000D01*
X176916116Y-110800000D02*
X183096320Y-110800000D01*
X194600000Y-112250000D02*
X196850000Y-110000000D01*
X174950000Y-113325000D02*
X174950000Y-112766116D01*
X174950000Y-112766116D02*
X176916116Y-110800000D01*
%TO.N,/GPIO18*%
X169450000Y-127175000D02*
X169450000Y-128220000D01*
X169450000Y-128220000D02*
X169440000Y-128210000D01*
X169650000Y-126975000D02*
X169450000Y-127175000D01*
X170926472Y-126975000D02*
X169650000Y-126975000D01*
X176400000Y-121501472D02*
X170926472Y-126975000D01*
X176400000Y-120650000D02*
X176400000Y-121501472D01*
%TO.N,/GPIO15*%
X162300000Y-129820000D02*
X161620000Y-130500000D01*
%TO.N,/GPIO2*%
X151450000Y-112250000D02*
X151470000Y-112230000D01*
%TO.N,/GPIO1*%
X151450000Y-110250000D02*
X151470000Y-110270000D01*
%TO.N,/GPIO0*%
X152500000Y-108250000D02*
X147040000Y-108250000D01*
X154099264Y-119328680D02*
X154099264Y-109849264D01*
X154099264Y-109849264D02*
X152500000Y-108250000D01*
X163994489Y-121575000D02*
X155025736Y-121575000D01*
X155025736Y-121575000D02*
X154424264Y-120973528D01*
X167319489Y-118250000D02*
X163994489Y-121575000D01*
X154424264Y-120973528D02*
X154424264Y-119653680D01*
X169350000Y-118250000D02*
X167319489Y-118250000D01*
X169375000Y-118225000D02*
X169350000Y-118250000D01*
X154424264Y-119653680D02*
X154099264Y-119328680D01*
%TO.N,/~{RESET}*%
X170625000Y-120175000D02*
X170175000Y-120175000D01*
X170425000Y-120175000D02*
X170300000Y-120050000D01*
X170175000Y-120175000D02*
X170300000Y-120050000D01*
X170625000Y-120175000D02*
X170425000Y-120175000D01*
X171500000Y-120175000D02*
X170625000Y-120175000D01*
X167323528Y-122300000D02*
X169448528Y-120175000D01*
X169448528Y-120175000D02*
X170175000Y-120175000D01*
X172150000Y-119525000D02*
X171500000Y-120175000D01*
X175050000Y-119525000D02*
X172150000Y-119525000D01*
%TO.N,/SWDIO*%
X183475736Y-117750000D02*
X179701472Y-117750000D01*
X187350000Y-118550000D02*
X184275736Y-118550000D01*
X178126472Y-116175000D02*
X176800000Y-116175000D01*
X159450000Y-110375736D02*
X162595280Y-113521016D01*
X184275736Y-118550000D02*
X183475736Y-117750000D01*
X169178248Y-114800000D02*
X175450000Y-114800000D01*
X159450000Y-106250000D02*
X159450000Y-110375736D01*
X162595280Y-113521016D02*
X167899264Y-113521016D01*
X187700000Y-118900000D02*
X187350000Y-118550000D01*
X167899264Y-113521016D02*
X169178248Y-114800000D01*
X179701472Y-117750000D02*
X178126472Y-116175000D01*
X175450000Y-114800000D02*
X175500000Y-114750000D01*
%TO.N,/SWCLK*%
X176350000Y-116650000D02*
X176300000Y-116600000D01*
X189700000Y-118900000D02*
X189175000Y-119425000D01*
X167775000Y-113821016D02*
X169053984Y-115100000D01*
X157450000Y-108800000D02*
X162471016Y-113821016D01*
X183351472Y-118050000D02*
X179577208Y-118050000D01*
X174956796Y-115100000D02*
X175175000Y-115318204D01*
X186907537Y-118850000D02*
X184151472Y-118850000D01*
X157450000Y-106250000D02*
X157450000Y-108800000D01*
X187482537Y-119425000D02*
X186907537Y-118850000D01*
X189175000Y-119425000D02*
X187482537Y-119425000D01*
X162471016Y-113821016D02*
X167775000Y-113821016D01*
X179577208Y-118050000D02*
X178177208Y-116650000D01*
X178177208Y-116650000D02*
X176350000Y-116650000D01*
X169053984Y-115100000D02*
X174956796Y-115100000D01*
X184151472Y-118850000D02*
X183351472Y-118050000D01*
%TO.N,/GPIO6*%
X168967588Y-122425000D02*
X168017588Y-123375000D01*
X168017588Y-123375000D02*
X154227944Y-123375000D01*
X152475000Y-120250000D02*
X151530000Y-120250000D01*
X170100000Y-121548528D02*
X169223528Y-122425000D01*
X152624264Y-121771320D02*
X152624264Y-120399264D01*
X152624264Y-120399264D02*
X152475000Y-120250000D01*
X170100000Y-121150000D02*
X170100000Y-121548528D01*
X154227944Y-123375000D02*
X152624264Y-121771320D01*
X169223528Y-122425000D02*
X168967588Y-122425000D01*
%TO.N,/GPIO7*%
X169347792Y-122725000D02*
X169091852Y-122725000D01*
X170575000Y-121497792D02*
X169347792Y-122725000D01*
X168141852Y-123675000D02*
X154103680Y-123675000D01*
X169091852Y-122725000D02*
X168141852Y-123675000D01*
X170575000Y-120700000D02*
X170575000Y-121497792D01*
X154103680Y-123675000D02*
X152678680Y-122250000D01*
X152678680Y-122250000D02*
X151450000Y-122250000D01*
%TO.N,/GPIO0*%
X189175000Y-124800000D02*
X182650000Y-124800000D01*
X189700000Y-124275000D02*
X189175000Y-124800000D01*
X182650000Y-124800000D02*
X182450000Y-124800000D01*
%TO.N,/GPIO2*%
X151450000Y-112250000D02*
X152500000Y-112250000D01*
X153499264Y-119577208D02*
X153824264Y-119902208D01*
X154725000Y-122175000D02*
X164243017Y-122175000D01*
X164243017Y-122175000D02*
X167243017Y-119175000D01*
X153499264Y-113249264D02*
X153499264Y-119577208D01*
X153824264Y-121274264D02*
X154725000Y-122175000D01*
X153824264Y-119902208D02*
X153824264Y-121274264D01*
X167243017Y-119175000D02*
X169375000Y-119175000D01*
X152500000Y-112250000D02*
X153499264Y-113249264D01*
%TO.N,/GPIO1*%
X153799264Y-111499264D02*
X153799264Y-119452944D01*
X154850000Y-121875000D02*
X164118753Y-121875000D01*
X152550000Y-110250000D02*
X153799264Y-111499264D01*
X187700000Y-124275000D02*
X187475000Y-124500000D01*
X151450000Y-110250000D02*
X152550000Y-110250000D01*
X183300000Y-124500000D02*
X183210664Y-124500000D01*
X187475000Y-124500000D02*
X183300000Y-124500000D01*
X164118753Y-121875000D02*
X167293753Y-118700000D01*
X167293753Y-118700000D02*
X169825000Y-118700000D01*
X154124264Y-121149264D02*
X154850000Y-121875000D01*
X183210664Y-124500000D02*
X182980332Y-124269668D01*
X154124264Y-119777944D02*
X154124264Y-121149264D01*
X153799264Y-119452944D02*
X154124264Y-119777944D01*
%TO.N,/GPIO22*%
X176875000Y-120200000D02*
X177550000Y-120200000D01*
%TO.N,/GPIO20*%
X176750000Y-122925000D02*
X175825000Y-122925000D01*
%TO.N,/GPIO21*%
X177350000Y-121650000D02*
X177350000Y-123200000D01*
%TO.N,/GPIO19*%
X176875000Y-121150000D02*
X176875000Y-121450736D01*
%TO.N,/GPIO10*%
X172000000Y-121150000D02*
X172000000Y-122507360D01*
X172000000Y-122507360D02*
X169932360Y-124575000D01*
X169932360Y-124575000D02*
X156075000Y-124575000D01*
%TO.N,/GPIO11*%
X170056624Y-124875000D02*
X157124264Y-124875000D01*
X172475000Y-122456624D02*
X170056624Y-124875000D01*
X157124264Y-124875000D02*
X156767004Y-125232260D01*
X156767004Y-125232260D02*
X156767004Y-125233731D01*
X172475000Y-120700000D02*
X172475000Y-122456624D01*
%TO.N,/GPIO32*%
X191950000Y-119551472D02*
X191950000Y-121800000D01*
X177350000Y-112850000D02*
X177350000Y-114125736D01*
X177350000Y-114125736D02*
X179274264Y-116050000D01*
X179274264Y-116050000D02*
X183048528Y-116050000D01*
X184648528Y-117650000D02*
X190048528Y-117650000D01*
X190048528Y-117650000D02*
X191950000Y-119551472D01*
X183048528Y-116050000D02*
X184648528Y-117650000D01*
%TO.N,/GPIO33*%
X177912132Y-112740380D02*
X177546752Y-112375000D01*
X184772792Y-117350000D02*
X182397792Y-114975000D01*
X177912132Y-114263604D02*
X177912132Y-112740380D01*
X178623528Y-114975000D02*
X177912132Y-114263604D01*
X177546752Y-112375000D02*
X177153248Y-112375000D01*
X182397792Y-114975000D02*
X178623528Y-114975000D01*
X177153248Y-112375000D02*
X176850000Y-112678248D01*
X190172792Y-117350000D02*
X184772792Y-117350000D01*
X176850000Y-112678248D02*
X176850000Y-113325000D01*
X192250000Y-119427208D02*
X190172792Y-117350000D01*
X192250000Y-120000000D02*
X192250000Y-119427208D01*
%TO.N,/GPIO31*%
X179150000Y-116350000D02*
X182924264Y-116350000D01*
X189924264Y-117950000D02*
X191650000Y-119675736D01*
X182924264Y-116350000D02*
X184524264Y-117950000D01*
X177075000Y-114275000D02*
X179150000Y-116350000D01*
X176800000Y-114275000D02*
X177075000Y-114275000D01*
X184524264Y-117950000D02*
X189924264Y-117950000D01*
X191650000Y-119675736D02*
X191650000Y-123500000D01*
%TO.N,/GPIO30*%
X182800000Y-116650000D02*
X184400000Y-118250000D01*
X179025736Y-116650000D02*
X182800000Y-116650000D01*
X177125736Y-114750000D02*
X179025736Y-116650000D01*
X184400000Y-118250000D02*
X189800000Y-118250000D01*
X191350000Y-119800000D02*
X191350000Y-124150000D01*
X189800000Y-118250000D02*
X191350000Y-119800000D01*
X176350000Y-114750000D02*
X177125736Y-114750000D01*
%TO.N,/GPIO29*%
X176331090Y-115968910D02*
X176259338Y-115968910D01*
X180050000Y-119730152D02*
X180050000Y-123703680D01*
X176259338Y-115968910D02*
X175800000Y-116428248D01*
X180050000Y-123703680D02*
X182171320Y-125825000D01*
X176800000Y-115500000D02*
X176331090Y-115968910D01*
X175800000Y-116428248D02*
X175800000Y-116771752D01*
X182171320Y-125825000D02*
X190050000Y-125825000D01*
X175800000Y-116771752D02*
X176103248Y-117075000D01*
X177394848Y-117075000D02*
X180050000Y-119730152D01*
X176103248Y-117075000D02*
X177394848Y-117075000D01*
X176800000Y-115225000D02*
X176800000Y-115500000D01*
%TO.N,/BOOTSEL*%
X154724264Y-119529416D02*
X154399264Y-119204416D01*
X160750000Y-121000000D02*
X160475000Y-121275000D01*
X153450000Y-107200000D02*
X153450000Y-106250000D01*
X154399264Y-119204416D02*
X154399264Y-108149264D01*
X154724264Y-120849264D02*
X154724264Y-119529416D01*
X160475000Y-121275000D02*
X155150000Y-121275000D01*
X154399264Y-108149264D02*
X153450000Y-107200000D01*
X155150000Y-121275000D02*
X154724264Y-120849264D01*
%TO.N,/BAT_STAT*%
X180570729Y-111877755D02*
X180927755Y-111877755D01*
X180927755Y-111877755D02*
X181092499Y-112042499D01*
X181092499Y-112042499D02*
X181092499Y-113250000D01*
%TO.N,Net-(JP1-A)*%
X179792499Y-112192499D02*
X179792499Y-113250000D01*
X179490000Y-111890000D02*
X179792499Y-112192499D01*
X178910000Y-111890000D02*
X179490000Y-111890000D01*
%TD*%
M02*
